SplineFontDB: 3.2
FontName: MononokiFork-BoldItalic
FullName: Mononoki Fork BoldItalic
FamilyName: MononokiFork
Weight: Bold
Copyright: Modifications:\nCopyright (c) 2020, Marvin Dostal\n\nOriginal author:\nCopyright (c) 2013-2017, Matthias Tellen matthias.tellen@googlemail.com\n\nLicensed under SIL OPEN FONT LICENSE Version 1.1 - 26 February 2007
Version: 2.0
ItalicAngle: -9
UnderlinePosition: 0
UnderlineWidth: 0
Ascent: 819
Descent: 205
InvalidEm: 1
UFOAscent: 770
UFODescent: -250
LayerCount: 2
Layer: 0 0 "Back" 1
Layer: 1 0 "Fore" 0
StyleMap: 0x0021
FSType: 0
OS2Version: 0
OS2_WeightWidthSlopeOnly: 0
OS2_UseTypoMetrics: 0
CreationTime: 1593380042
ModificationTime: 1603894368
PfmFamily: 16
TTFWeight: 700
TTFWidth: 5
LineGap: 0
VLineGap: 0
OS2TypoAscent: 0
OS2TypoAOffset: 1
OS2TypoDescent: 0
OS2TypoDOffset: 1
OS2TypoLinegap: 0
OS2WinAscent: 900
OS2WinAOffset: 0
OS2WinDescent: 250
OS2WinDOffset: 0
HheadAscent: 0
HheadAOffset: 1
HheadDescent: 0
HheadDOffset: 1
OS2CapHeight: 720
OS2XHeight: 520
OS2Vendor: 'PfEd'
MarkAttachClasses: 1
DEI: 91125
LangName: 1033
PickledDataWithLists: "(dp0
VGSDimensionPlugin.Dimensions
p1
(dp2
V8A9476DE-11F4-4864-A7B4-14D9B7165FAE
p3
(dp4
VHV
p5
I240
ssVA14B1AE3-86D5-4EA7-AE2F-7B4FA04DAB2E
p6
(dp7
ssVcom.schriftgestaltung.disablesAutomaticAlignment
p8
I01
sVcom.schriftgestaltung.fontMaster.userData
p9
(dp10
VGSOffsetHorizontal
p11
I10
sVGSOffsetVertical
p12
I10
ssVcom.schriftgestaltung.fontMasterID
p13
VC492240F-DFB2-48B7-8D1C-81E7E6E3599E
p14
sVcom.schriftgestaltung.glyphOrder
p15
I00
sVcom.schriftgestaltung.useNiceNames
p16
I00
sVcom.schriftgestaltung.weight
p17
VBold
p18
sVcom.schriftgestaltung.weightValue
p19
I200
sVcom.typemytype.robofont.layerOrder
p20
(lp21
Vbackground
p22
asVpublic.glyphOrder
p23
(lp24
VA
p25
aVAacute
p26
aVAbreve
p27
aVAcircumflex
p28
aVAdieresis
p29
aVAgrave
p30
aVAmacron
p31
aVAogonek
p32
aVAring
p33
aVAtilde
p34
aVAE
p35
aVB
p36
aVC
p37
aVCacute
p38
aVCcaron
p39
aVCcedilla
p40
aVCcircumflex
p41
aVD
p42
aVEth

StartChar: A
Encoding: 65 65 0
GlifName: A_
Width: 575
VWidth: 0
Flags: HW
AnchorPoint: "ogonek" 499 10 basechar 0
AnchorPoint: "bottom" 259 0 basechar 0
AnchorPoint: "top" 323 700 basechar 0
LayerCount: 2
Fore
SplineSet
479 633 m 258
 533 41 l 257
 536 18 520 0 496 0 c 258
 460 0 l 258
 441 0 428 10 427 30 c 257
 409 220 l 257
 154 220 l 257
 76 30 l 257
 69 11 53 0 33 0 c 258
 -2 0 l 258
 -26 0 -36 17 -28 40 c 257
 214 634 l 258
 240 693 289 730 355 730 c 256
 422 730 474 693 479 633 c 258
315 615 m 257
 193 316 l 257
 401 316 l 257
 373 615 l 257
 373 626 362 634 347 634 c 256
 332 634 319 626 315 615 c 257
EndSplineSet
PickledDataWithLists: "(dp0
Vcom.schriftgestaltung.Glyphs.lastChange
p1
V2016-06-09 18:44:34 +0000
p2
s."
EndChar

StartChar: AE
Encoding: 198 198 2
GlifName: A_E_
Width: 575
VWidth: 0
Flags: HW
LayerCount: 2
Fore
SplineSet
357 97 m 257
 467 97 l 257
 489 97 500 84 497 62 c 257
 492 35 l 257
 489 13 474 0 452 0 c 257
 272 0 l 257
 251 0 239 14 242 35 c 257
 264 170 l 257
 133 170 l 257
 76 30 l 257
 69 11 53 0 33 0 c 257
 -2 0 l 257
 -26 0 -36 17 -28 40 c 257
 214 634 l 257
 238 692 287 720 361 720 c 257
 555 720 l 257
 577 720 588 707 584 685 c 257
 580 659 l 257
 577 637 562 624 540 624 c 257
 441 624 l 257
 409 423 l 257
 501 423 l 257
 522 423 534 409 530 388 c 257
 526 361 l 257
 523 340 506 326 485 326 c 257
 393 326 l 257
 357 97 l 257
279 266 m 257
 337 633 l 257
 327 631 319 625 315 615 c 257
 172 266 l 257
 279 266 l 257
EndSplineSet
PickledDataWithLists: "(dp0
Vcom.schriftgestaltung.Glyphs.lastChange
p1
V2016-06-09 18:35:33 +0000
p2
s."
EndChar

StartChar: B
Encoding: 66 66 13
GlifName: B_
Width: 575
VWidth: 0
Flags: HW
LayerCount: 2
Fore
SplineSet
58 35 m 257
 151 624 l 257
 123 624 l 257
 102 624 91 639 94 659 c 257
 98 685 l 257
 101 705 117 720 138 720 c 257
 318 720 l 257
 440 720 531 675 531 563 c 256
 531 482 484 416 405 382 c 257
 482 354 518 297 518 223 c 256
 518 81 386 0 224 0 c 257
 87 0 l 257
 67 0 55 15 58 35 c 257
256 624 m 257
 224 423 l 257
 271 423 l 257
 365 423 432 461 432 539 c 256
 432 594 399 624 313 624 c 257
 256 624 l 257
173 97 m 257
 240 97 l 257
 344 97 422 137 422 223 c 256
 422 300 358 326 276 326 c 257
 209 326 l 257
 173 97 l 257
EndSplineSet
PickledDataWithLists: "(dp0
Vcom.schriftgestaltung.Glyphs.lastChange
p1
V2016-06-09 18:35:33 +0000
p2
s."
EndChar

StartChar: B.hex
Encoding: 65538 -1 14
GlifName: B_.hex
Width: 575
VWidth: 0
Flags: HW
LayerCount: 2
Fore
SplineSet
214 875 m 258
 214 829 l 258
 214 812 205 804 189 804 c 258
 154 804 l 258
 137 804 129 813 129 829 c 258
 129 875 l 258
 129 891 138 900 154 900 c 258
 189 900 l 258
 205 900 214 891 214 875 c 258
502 875 m 258
 502 829 l 258
 502 812 493 804 477 804 c 258
 442 804 l 258
 425 804 417 813 417 829 c 258
 417 875 l 258
 417 891 426 900 442 900 c 258
 477 900 l 258
 493 900 502 891 502 875 c 258
646 875 m 258
 646 829 l 258
 646 812 637 804 621 804 c 258
 586 804 l 258
 569 804 561 813 561 829 c 258
 561 875 l 258
 561 891 570 900 586 900 c 258
 621 900 l 258
 637 900 646 891 646 875 c 258
EndSplineSet
Refer: 13 66 N 1 0 0 1 0 0 2
PickledDataWithLists: "(dp0
Vcom.schriftgestaltung.Glyphs.lastChange
p1
V2016-06-09 18:35:33 +0000
p2
s."
EndChar

StartChar: C
Encoding: 67 67 16
GlifName: C_
Width: 575
VWidth: 0
Flags: HW
AnchorPoint: "top" 361 720 basechar 0
AnchorPoint: "bottom" 247 0 basechar 0
LayerCount: 2
Fore
SplineSet
420 100 m 256
 441 108 457 101 462 81 c 258
 468 57 l 258
 473 36 463 19 443 11 c 256
 391 -10 343 -20 296 -20 c 256
 155 -20 76 68 76 219 c 256
 76 258 81 296 97 400 c 256
 130 608 248 730 414 730 c 256
 461 730 507 720 552 699 c 256
 569 691 574 674 562 653 c 258
 548 629 l 258
 537 609 519 602 501 610 c 256
 462 625 428 632 397 632 c 256
 294 632 227 552 203 400 c 256
 185 282 182 258 182 228 c 256
 182 131 225 78 309 78 c 256
 340 78 376 85 420 100 c 256
  PathStart: -2
EndSplineSet
PickledDataWithLists: "(dp0
Vcom.schriftgestaltung.Glyphs.lastChange
p1
V2016-06-09 18:35:33 +0000
p2
s."
EndChar

StartChar: C.hex
Encoding: 65539 -1 17
GlifName: C_.hex
Width: 575
VWidth: 0
Flags: HW
LayerCount: 2
Fore
SplineSet
214 875 m 258
 214 829 l 258
 214 812 205 804 189 804 c 258
 154 804 l 258
 137 804 129 813 129 829 c 258
 129 875 l 258
 129 891 138 900 154 900 c 258
 189 900 l 258
 205 900 214 891 214 875 c 258
358 875 m 258
 358 829 l 258
 358 812 349 804 333 804 c 258
 298 804 l 258
 281 804 273 813 273 829 c 258
 273 875 l 258
 273 891 282 900 298 900 c 258
 333 900 l 258
 349 900 358 891 358 875 c 258
EndSplineSet
Refer: 16 67 N 1 0 0 1 0 0 2
PickledDataWithLists: "(dp0
Vcom.schriftgestaltung.Glyphs.lastChange
p1
V2016-06-09 18:35:33 +0000
p2
s."
EndChar

StartChar: D
Encoding: 68 68 23
GlifName: D_
Width: 575
VWidth: 0
Flags: HW
LayerCount: 2
Fore
SplineSet
133 720 m 258
 185 720 l 258
 438 720 556 646 556 483 c 256
 556 442 552 413 538 328 c 256
 501 95 388 0 143 0 c 258
 89 0 l 258
 65 0 52 16 56 39 c 258
 149 624 l 257
 125 624 l 258
 101 624 88 640 92 663 c 258
 96 688 l 258
 99 708 113 720 133 720 c 258
172 96 m 257
 342 103 406 164 434 344 c 256
 449 431 451 451 451 483 c 256
 451 575 398 613 255 622 c 257
 172 96 l 257
  PathStart: -2
EndSplineSet
PickledDataWithLists: "(dp0
Vcom.schriftgestaltung.Glyphs.lastChange
p1
V2016-06-09 18:46:00 +0000
p2
s."
EndChar

StartChar: D.hex
Encoding: 65540 -1 24
GlifName: D_.hex
Width: 575
VWidth: 0
Flags: HW
LayerCount: 2
Fore
SplineSet
214 875 m 258
 214 829 l 258
 214 812 205 804 189 804 c 258
 154 804 l 258
 137 804 129 813 129 829 c 258
 129 875 l 258
 129 891 138 900 154 900 c 258
 189 900 l 258
 205 900 214 891 214 875 c 258
358 875 m 258
 358 829 l 258
 358 812 349 804 333 804 c 258
 298 804 l 258
 281 804 273 813 273 829 c 258
 273 875 l 258
 273 891 282 900 298 900 c 258
 333 900 l 258
 349 900 358 891 358 875 c 258
646 875 m 258
 646 829 l 258
 646 812 637 804 621 804 c 258
 586 804 l 258
 569 804 561 813 561 829 c 258
 561 875 l 258
 561 891 570 900 586 900 c 258
 621 900 l 258
 637 900 646 891 646 875 c 258
EndSplineSet
Refer: 23 68 N 1 0 0 1 0 0 2
PickledDataWithLists: "(dp0
Vcom.schriftgestaltung.Glyphs.lastChange
p1
V2016-06-09 18:35:33 +0000
p2
s."
EndChar

StartChar: E
Encoding: 69 69 27
GlifName: E_
Width: 575
VWidth: 0
Flags: HW
LayerCount: 2
Fore
SplineSet
156 97 m 257
 467 97 l 257
 487 97 499 82 496 62 c 257
 492 35 l 257
 489 15 472 0 451 0 c 257
 70 0 l 257
 50 0 38 15 41 35 c 257
 144 685 l 257
 147 705 164 720 184 720 c 257
 543 720 l 257
 563 720 576 706 573 685 c 257
 569 659 l 257
 565 638 548 624 528 624 c 257
 239 624 l 257
 207 423 l 257
 475 423 l 257
 496 423 508 408 505 388 c 257
 501 361 l 257
 497 341 480 326 460 326 c 257
 192 326 l 257
 156 97 l 257
EndSplineSet
PickledDataWithLists: "(dp0
Vcom.schriftgestaltung.Glyphs.lastChange
p1
V2016-06-09 18:35:33 +0000
p2
s."
EndChar

StartChar: E.hex
Encoding: 65541 -1 28
GlifName: E_.hex
Width: 575
VWidth: 0
Flags: HW
LayerCount: 2
Fore
SplineSet
214 875 m 258
 214 829 l 258
 214 812 205 804 189 804 c 258
 154 804 l 258
 137 804 129 813 129 829 c 258
 129 875 l 258
 129 891 138 900 154 900 c 258
 189 900 l 258
 205 900 214 891 214 875 c 258
358 875 m 258
 358 829 l 258
 358 812 349 804 333 804 c 258
 298 804 l 258
 281 804 273 813 273 829 c 258
 273 875 l 258
 273 891 282 900 298 900 c 258
 333 900 l 258
 349 900 358 891 358 875 c 258
502 875 m 258
 502 829 l 258
 502 812 493 804 477 804 c 258
 442 804 l 258
 425 804 417 813 417 829 c 258
 417 875 l 258
 417 891 426 900 442 900 c 258
 477 900 l 258
 493 900 502 891 502 875 c 258
EndSplineSet
Refer: 27 69 N 1 0 0 1 0 0 2
PickledDataWithLists: "(dp0
Vcom.schriftgestaltung.Glyphs.lastChange
p1
V2016-06-09 18:35:33 +0000
p2
s."
EndChar

StartChar: Eth
Encoding: 208 208 39
GlifName: E_th
Width: 575
VWidth: 0
Flags: HW
LayerCount: 2
Fore
SplineSet
36 337 m 258
 40 363 l 258
 43 380 53 389 69 389 c 258
 292 389 l 258
 308 389 316 380 313 364 c 258
 309 337 l 258
 306 321 296 312 280 312 c 258
 57 312 l 258
 41 312 33 321 36 337 c 258
EndSplineSet
Refer: 23 68 N 1 0 0 1 -10 0 2
PickledDataWithLists: "(dp0
Vcom.schriftgestaltung.Glyphs.lastChange
p1
V2016-06-09 18:35:33 +0000
p2
s."
EndChar

StartChar: Euro
Encoding: 8364 8364 40
GlifName: E_uro
Width: 575
VWidth: 0
Flags: HW
LayerCount: 2
Fore
SplineSet
468 385 m 258
 88 385 l 258
 68 385 55 400 58 420 c 258
 62 441 l 258
 65 462 82 476 102 476 c 258
 111 476 l 257
 139 593 206 730 425 730 c 256
 458 730 513 728 573 717 c 256
 594 713 602 696 595 676 c 258
 584 648 l 257
 577 630 558 618 538 622 c 256
 484 632 435 634 410 634 c 256
 278 634 237 565 216 476 c 257
 482 476 l 258
 502 476 515 462 512 441 c 258
 508 420 l 258
 505 400 488 385 468 385 c 258
455 98 m 256
 476 102 491 91 493 71 c 258
 495 45 l 257
 495 25 482 7 460 3 c 256
 393 -9 339 -10 308 -10 c 256
 88 -10 65 130 74 244 c 257
 65 244 l 258
 45 244 33 259 36 279 c 258
 39 300 l 258
 43 321 60 335 80 335 c 258
 460 335 l 258
 480 335 493 321 489 300 c 258
 486 279 l 258
 483 259 465 244 445 244 c 258
 180 244 l 257
 173 130 213 87 324 87 c 256
 352 87 400 89 455 98 c 256
  PathStart: -2
EndSplineSet
PickledDataWithLists: "(dp0
Vcom.schriftgestaltung.Glyphs.lastChange
p1
V2015-12-22 14:04:06 +0000
p2
s."
EndChar

StartChar: F
Encoding: 70 70 41
GlifName: F_
Width: 575
VWidth: 0
Flags: HW
LayerCount: 2
Fore
SplineSet
184 720 m 257
 565 720 l 257
 585 720 598 706 595 685 c 257
 591 659 l 257
 587 638 570 624 550 624 c 257
 239 624 l 257
 202 388 l 257
 491 388 l 257
 511 388 524 373 520 353 c 257
 516 326 l 257
 513 306 495 292 476 292 c 257
 187 292 l 257
 146 35 l 257
 143 15 127 0 105 0 c 257
 70 0 l 257
 50 0 38 15 41 35 c 257
 144 685 l 257
 147 705 164 720 184 720 c 257
EndSplineSet
PickledDataWithLists: "(dp0
Vcom.schriftgestaltung.Glyphs.lastChange
p1
V2016-06-09 18:35:33 +0000
p2
s."
EndChar

StartChar: F.hex
Encoding: 65542 -1 42
GlifName: F_.hex
Width: 575
VWidth: 0
Flags: HW
LayerCount: 2
Fore
SplineSet
214 875 m 258
 214 829 l 258
 214 812 205 804 189 804 c 258
 154 804 l 258
 137 804 129 813 129 829 c 258
 129 875 l 258
 129 891 138 900 154 900 c 258
 189 900 l 258
 205 900 214 891 214 875 c 258
358 875 m 258
 358 829 l 258
 358 812 349 804 333 804 c 258
 298 804 l 258
 281 804 273 813 273 829 c 258
 273 875 l 258
 273 891 282 900 298 900 c 258
 333 900 l 258
 349 900 358 891 358 875 c 258
502 875 m 258
 502 829 l 258
 502 812 493 804 477 804 c 258
 442 804 l 258
 425 804 417 813 417 829 c 258
 417 875 l 258
 417 891 426 900 442 900 c 258
 477 900 l 258
 493 900 502 891 502 875 c 258
646 875 m 258
 646 829 l 258
 646 812 637 804 621 804 c 258
 586 804 l 258
 569 804 561 813 561 829 c 258
 561 875 l 258
 561 891 570 900 586 900 c 258
 621 900 l 258
 637 900 646 891 646 875 c 258
EndSplineSet
Refer: 41 70 N 1 0 0 1 0 0 2
PickledDataWithLists: "(dp0
Vcom.schriftgestaltung.Glyphs.lastChange
p1
V2016-06-09 18:35:33 +0000
p2
s."
EndChar

StartChar: G
Encoding: 71 71 43
GlifName: G_
Width: 575
VWidth: 0
Flags: HW
AnchorPoint: "top" 358 700 basechar 0
AnchorPoint: "bottom" 247 0 basechar 0
LayerCount: 2
Fore
SplineSet
367 409 m 258
 499 409 l 258
 520 409 531 395 528 374 c 258
 477 51 l 258
 474 33 463 19 446 12 c 256
 393 -9 343 -20 296 -20 c 256
 155 -20 76 68 76 218 c 256
 76 264 81 296 97 400 c 256
 130 608 248 730 414 730 c 256
 461 730 507 720 552 699 c 256
 569 691 574 674 562 653 c 258
 548 629 l 258
 537 609 519 602 501 610 c 256
 462 625 428 632 397 632 c 256
 294 632 227 552 203 400 c 256
 185 282 182 263 182 228 c 256
 182 131 225 78 309 78 c 256
 329 78 352 81 378 88 c 257
 413 312 l 257
 351 312 l 258
 329 312 318 325 322 347 c 258
 326 373 l 258
 329 395 345 409 367 409 c 258
EndSplineSet
PickledDataWithLists: "(dp0
Vcom.schriftgestaltung.Glyphs.lastChange
p1
V2016-06-09 18:35:33 +0000
p2
s."
EndChar

StartChar: Gamma
Encoding: 915 915 44
GlifName: G_amma
Width: 575
VWidth: 0
Flags: HW
LayerCount: 2
Fore
SplineSet
168 720 m 258
 553 720 l 258
 575 720 586 707 582 685 c 258
 578 659 l 258
 575 637 560 624 538 624 c 258
 223 624 l 257
 129 35 l 258
 126 13 111 0 89 0 c 258
 54 0 l 258
 33 0 21 14 24 35 c 258
 127 685 l 258
 131 707 146 720 168 720 c 258
EndSplineSet
PickledDataWithLists: "(dp0
Vcom.schriftgestaltung.Glyphs.lastChange
p1
V2015-12-22 16:32:37 +0000
p2
s."
EndChar

StartChar: H
Encoding: 72 72 46
GlifName: H_
Width: 575
VWidth: 0
Flags: HW
AnchorPoint: "bottom" 247 0 basechar 0
AnchorPoint: "top" 361 720 basechar 0
AnchorPoint: "topleft" 93 720 basechar 0
AnchorPoint: "center" 304 360 basechar 0
LayerCount: 2
Fore
SplineSet
521 720 m 257
 556 720 l 257
 576 720 589 706 586 685 c 257
 483 35 l 257
 480 15 464 0 442 0 c 257
 407 0 l 257
 387 0 375 15 378 35 c 257
 425 333 l 257
 176 333 l 257
 129 35 l 257
 126 15 110 0 88 0 c 257
 53 0 l 257
 33 0 21 15 24 35 c 257
 127 685 l 257
 130 705 147 720 167 720 c 257
 202 720 l 257
 224 720 235 706 232 685 c 257
 192 430 l 257
 441 430 l 257
 481 685 l 257
 484 706 502 720 521 720 c 257
EndSplineSet
PickledDataWithLists: "(dp0
Vcom.schriftgestaltung.Glyphs.lastChange
p1
V2016-06-09 18:35:33 +0000
p2
s."
EndChar

StartChar: I
Encoding: 73 73 48
GlifName: I_
Width: 575
VWidth: 0
Flags: HW
AnchorPoint: "ogonek" 476 10 basechar 0
AnchorPoint: "top" 361 720 basechar 0
AnchorPoint: "topleft" 93 720 basechar 0
AnchorPoint: "bottom" 247 0 basechar 0
LayerCount: 2
Fore
SplineSet
194 720 m 257
 529 720 l 257
 549 720 562 706 559 685 c 257
 555 659 l 257
 551 638 534 624 514 624 c 257
 399 624 l 257
 316 97 l 257
 441 97 l 257
 462 97 473 82 470 62 c 257
 466 35 l 257
 463 15 447 0 425 0 c 257
 70 0 l 257
 50 0 38 15 41 35 c 257
 45 62 l 257
 48 82 66 97 86 97 c 257
 211 97 l 257
 294 624 l 257
 179 624 l 257
 159 624 147 639 150 659 c 257
 154 685 l 257
 157 706 175 720 194 720 c 257
EndSplineSet
PickledDataWithLists: "(dp0
Vcom.schriftgestaltung.Glyphs.lastChange
p1
V2016-06-09 18:35:33 +0000
p2
s."
EndChar

StartChar: IJ
Encoding: 306 306 49
GlifName: I_J_
Width: 575
VWidth: 0
Flags: HW
LayerCount: 2
Fore
SplineSet
164 720 m 257
 299 720 l 257
 319 720 332 706 329 685 c 257
 325 659 l 257
 321 638 304 624 284 624 c 257
 269 624 l 257
 186 97 l 257
 211 97 l 257
 232 97 243 82 240 62 c 257
 236 35 l 257
 233 15 217 0 195 0 c 257
 40 0 l 257
 20 0 8 15 11 35 c 257
 15 62 l 257
 18 82 36 97 56 97 c 257
 81 97 l 257
 164 624 l 257
 149 624 l 257
 129 624 117 639 120 659 c 257
 124 685 l 257
 127 706 145 720 164 720 c 257
426 720 m 257
 539 720 l 257
 561 720 572 706 569 685 c 257
 482 135 l 257
 465 27 400 1 302 1 c 257
 281 1 268 15 271 35 c 257
 275 62 l 257
 278 82 296 97 316 97 c 257
 351 97 372 103 377 135 c 257
 454 624 l 257
 411 624 l 257
 391 624 378 638 382 659 c 257
 386 685 l 257
 389 705 406 720 426 720 c 257
EndSplineSet
PickledDataWithLists: "(dp0
Vcom.schriftgestaltung.Glyphs.lastChange
p1
V2016-06-09 18:35:33 +0000
p2
s."
EndChar

StartChar: J
Encoding: 74 74 57
GlifName: J_
Width: 575
VWidth: 0
Flags: HW
AnchorPoint: "top" 361 720 basechar 0
AnchorPoint: "bottom" 247 0 basechar 0
LayerCount: 2
Back
SplineSet
268 700 m 258
 536 700 l 258
 553 700 560 692 557 675 c 258
 494 275 l 258
 459 52 328 -10 164 -10 c 256
 134 -10 88 -8 36 3 c 256
 20 6 15 17 22 33 c 258
 33 59 l 258
 39 75 51 81 67 78 c 256
 112 69 155 67 176 67 c 256
 332 67 390 153 409 275 c 258
 464 624 l 257
 256 624 l 258
 240 624 233 632 235 649 c 258
 239 675 l 258
 242 691 252 700 268 700 c 258
EndSplineSet
Fore
SplineSet
258 720 m 257
 538 720 l 257
 558 720 570 705 567 685 c 257
 503 280 l 257
 469 64 333 -10 204 -10 c 257
 152 -10 97.345703125 -10.619140625 41 9 c 256
 20.2233482686 16.2342703956 20 28 27 49 c 262
 37 80 l 258
 44 100 51.5078125 102.592773438 72 98 c 256
 130.752929688 84.8330078125 180.015860429 82.8736862093 220 84 c 256
 291 86 374 131 397 280 c 257
 451 622 l 257
 242 622 l 257
 222 622 210 637 213 657 c 257
 217 685 l 257
 220 705 238 720 258 720 c 257
EndSplineSet
PickledDataWithLists: "(dp0
Vcom.schriftgestaltung.Glyphs.lastChange
p1
V2016-06-09 18:35:33 +0000
p2
s."
EndChar

StartChar: K
Encoding: 75 75 59
GlifName: K_
Width: 575
VWidth: 0
Flags: HW
LayerCount: 2
Fore
SplineSet
455 0 m 257
 403 0 l 257
 387 0 375 7 368 21 c 257
 368 20 l 257
 197 323 l 257
 192 323 l 257
 146 35 l 257
 143 15 127 0 105 0 c 257
 70 0 l 257
 50 0 38 15 41 35 c 257
 144 685 l 257
 147 705 164 720 184 720 c 257
 219 720 l 257
 241 720 252 706 249 685 c 257
 207 419 l 257
 214 419 l 257
 460 701 l 257
 472 714 486 720 501 720 c 257
 554 720 l 257
 581 720 591 696 570 674 c 257
 295 370 l 257
 486 47 l 257
 499 25 483 0 455 0 c 257
EndSplineSet
PickledDataWithLists: "(dp0
Vcom.schriftgestaltung.Glyphs.lastChange
p1
V2016-06-09 18:35:33 +0000
p2
s."
EndChar

StartChar: L
Encoding: 76 76 61
GlifName: L_
Width: 575
VWidth: 0
Flags: HW
LayerCount: 2
Fore
SplineSet
156 97 m 257
 505 97 l 257
 525 97 537 82 534 62 c 257
 530 35 l 257
 527 15 510 0 489 0 c 257
 70 0 l 257
 50 0 38 15 41 35 c 257
 144 685 l 257
 147 705 164 720 184 720 c 257
 219 720 l 257
 241 720 252 706 249 685 c 257
 156 97 l 257
EndSplineSet
PickledDataWithLists: "(dp0
Vcom.schriftgestaltung.Glyphs.lastChange
p1
V2016-06-09 18:35:33 +0000
p2
s."
EndChar

StartChar: Lambda
Encoding: 923 923 63
GlifName: L_ambda
Width: 575
VWidth: 0
Flags: HW
LayerCount: 2
Fore
SplineSet
362 730 m 256
 431 730 474 695 479 633 c 258
 533 41 l 257
 536 18 520 0 496 0 c 258
 460 0 l 258
 441 0 428 10 427 30 c 258
 373 615 l 258
 372 627 363 634 347 634 c 256
 331 634 320 627 315 615 c 258
 76 30 l 257
 69 11 53 0 33 0 c 258
 -2 0 l 258
 -26 0 -36 17 -28 40 c 258
 214 634 l 258
 240 696 293 730 362 730 c 256
  PathStart: -2
EndSplineSet
PickledDataWithLists: "(dp0
Vcom.schriftgestaltung.Glyphs.lastChange
p1
V2015-12-22 12:18:02 +0000
p2
s."
EndChar

StartChar: Lslash
Encoding: 321 321 66
GlifName: L_slash
Width: 575
VWidth: 0
Flags: HW
LayerCount: 2
Fore
SplineSet
32 332 m 258
 299 512 l 258
 312 520 326 517 333 507 c 258
 348 484 l 258
 356 471 351 455 338 446 c 258
 71 267 l 258
 58 259 44 261 37 271 c 258
 21 294 l 258
 13 306 19 323 32 332 c 258
EndSplineSet
Refer: 61 76 N 1 0 0 1 0 0 2
PickledDataWithLists: "(dp0
Vcom.schriftgestaltung.Glyphs.lastChange
p1
V2016-06-09 18:35:33 +0000
p2
s."
EndChar

StartChar: M
Encoding: 77 77 67
GlifName: M_
Width: 575
VWidth: 0
Flags: HW
LayerCount: 2
Fore
SplineSet
572 725 m 258
 595 725 607 712 603 690 c 257
 520 36 l 257
 516 16 498 0 478 0 c 258
 444 0 l 258
 424 0 412 14 415 36 c 258
 477 540 l 257
 355 354 l 258
 345 338 331 330 313 330 c 258
 285 330 l 258
 267 330 255 338 251 354 c 258
 187 540 l 257
 90 35 l 258
 86 14 70 0 50 0 c 258
 16 0 l 258
 -4 0 -18 16 -14 36 c 258
 109 690 l 258
 113 712 129 725 152 725 c 258
 168 725 l 258
 200 725 220 711 229 683 c 258
 315 431 l 257
 481 683 l 258
 498 711 524 725 556 725 c 258
 572 725 l 258
  PathStart: -2
EndSplineSet
PickledDataWithLists: "(dp0
Vcom.schriftgestaltung.Glyphs.lastChange
p1
V2016-06-09 18:35:33 +0000
p2
s."
EndChar

StartChar: N
Encoding: 78 78 69
GlifName: N_
Width: 575
VWidth: 0
Flags: HW
LayerCount: 2
Fore
SplineSet
520 725 m 258
 554 725 l 258
 574 725 587 709 584 689 c 258
 480 35 l 258
 477 13 461 0 438 0 c 258
 422 0 l 258
 391 0 370 13 360 41 c 258
 204 515 l 257
 129 36 l 258
 125 15 108 0 88 0 c 258
 54 0 l 258
 34 0 20 16 24 36 c 258
 127 690 l 258
 131 712 147 725 170 725 c 258
 186 725 l 258
 218 725 237 711 247 683 c 258
 402 201 l 257
 479 689 l 258
 482 710 500 725 520 725 c 258
EndSplineSet
PickledDataWithLists: "(dp0
Vcom.schriftgestaltung.Glyphs.lastChange
p1
V2016-06-09 18:35:33 +0000
p2
s."
EndChar

StartChar: O
Encoding: 79 79 74
GlifName: O_
Width: 575
VWidth: 0
Flags: HW
LayerCount: 2
Fore
SplineSet
101 467 m 258
 127 630 230 730 362 730 c 256
 493 730 565 629 540 467 c 258
 506 253 l 258
 480 91 376 -10 245 -10 c 256
 113 -10 41 90 67 253 c 258
 101 467 l 258
  PathStart: -2
172 253 m 258
 156 153 196 86 260 86 c 256
 323 86 385 153 401 253 c 258
 435 467 l 258
 451 567 410 634 347 634 c 256
 283 634 222 567 206 467 c 258
 172 253 l 258
  PathStart: -2
EndSplineSet
PickledDataWithLists: "(dp0
Vcom.schriftgestaltung.Glyphs.lastChange
p1
V2016-06-09 18:35:33 +0000
p2
s."
EndChar

StartChar: OE
Encoding: 338 338 75
GlifName: O_E_
Width: 575
VWidth: 0
Flags: HW
LayerCount: 2
Fore
SplineSet
359 97 m 257
 469 97 l 257
 490 97 501 82 498 62 c 257
 494 35 l 257
 491 15 475 0 453 0 c 257
 248 0 l 257
 123 0 71 81 71 194 c 256
 71 233 77 265 108 457 c 257
 131 607 215 720 362 720 c 257
 556 720 l 257
 576 720 589 706 586 685 c 257
 582 659 l 257
 578 638 561 624 541 624 c 257
 442 624 l 257
 410 423 l 257
 502 423 l 257
 523 423 535 408 532 388 c 257
 528 361 l 257
 524 341 507 326 487 326 c 257
 395 326 l 257
 359 97 l 257
254 97 m 257
 337 624 l 257
 260 618 227 544 213 457 c 257
 181 256 177 238 177 203 c 256
 177 145 196 102 254 97 c 257
EndSplineSet
PickledDataWithLists: "(dp0
Vcom.schriftgestaltung.Glyphs.lastChange
p1
V2016-06-09 18:35:33 +0000
p2
s."
EndChar

StartChar: P
Encoding: 80 80 85
GlifName: P_
Width: 575
VWidth: 0
Flags: HW
LayerCount: 2
Fore
SplineSet
183 720 m 258
 318 720 l 258
 471 720 566 644 566 520 c 256
 566 364 421 260 245 260 c 258
 180 260 l 257
 144 35 l 258
 141 13 126 0 104 0 c 258
 69 0 l 258
 48 0 36 14 39 35 c 258
 142 685 l 258
 146 706 162 720 183 720 c 258
195 356 m 257
 260 356 l 258
 372 356 460 416 460 504 c 256
 460 580 401 624 303 624 c 258
 238 624 l 257
 195 356 l 257
EndSplineSet
PickledDataWithLists: "(dp0
Vcom.schriftgestaltung.Glyphs.lastChange
p1
V2016-06-09 18:35:33 +0000
p2
s."
EndChar

StartChar: Phi
Encoding: 934 934 86
GlifName: P_hi
Width: 575
VWidth: 0
Flags: HW
LayerCount: 2
Fore
SplineSet
627 659 m 258
 624 638 608 624 587 624 c 258
 398 624 l 257
 389 569 l 257
 497 555 559 492 559 397 c 256
 559 264 460 170 323 151 c 257
 314 96 l 257
 503 96 l 258
 524 96 536 82 532 61 c 258
 528 35 l 258
 525 13 510 0 488 0 c 258
 6 0 l 258
 -16 0 -27 13 -24 35 c 258
 -20 61 l 258
 -16 83 -1 96 20 96 c 258
 209 96 l 257
 218 151 l 257
 99 166 33 243 51 360 c 256
 69 473 156 551 284 568 c 257
 293 624 l 257
 104 624 l 258
 83 624 72 637 75 659 c 258
 79 685 l 258
 83 707 98 720 120 720 c 258
 602 720 l 258
 624 720 635 707 631 685 c 258
 627 659 l 258
  PathStart: -2
268 470 m 257
 205 455 165 416 156 360 c 256
 147 298 180 263 233 250 c 257
 268 470 l 257
  PathStart: -2
338 250 m 257
 409 267 453 317 453 379 c 256
 453 425 424 458 373 470 c 257
 338 250 l 257
  PathStart: -1
EndSplineSet
PickledDataWithLists: "(dp0
Vcom.schriftgestaltung.Glyphs.lastChange
p1
V2015-12-22 12:22:42 +0000
p2
s."
EndChar

StartChar: Pi
Encoding: 928 928 87
GlifName: P_i
Width: 575
VWidth: 0
Flags: HW
LayerCount: 2
Fore
SplineSet
183 720 m 258
 538 720 l 258
 560 720 571 707 567 685 c 258
 464 35 l 258
 461 13 446 0 424 0 c 258
 389 0 l 258
 368 0 356 14 359 35 c 258
 453 624 l 257
 238 624 l 257
 144 35 l 258
 141 13 126 0 104 0 c 258
 69 0 l 258
 48 0 36 14 39 35 c 258
 142 685 l 258
 146 707 161 720 183 720 c 258
EndSplineSet
PickledDataWithLists: "(dp0
Vcom.schriftgestaltung.Glyphs.lastChange
p1
V2015-12-22 12:20:26 +0000
p2
s."
EndChar

StartChar: Psi
Encoding: 936 936 88
GlifName: P_si
Width: 575
VWidth: 0
Flags: HW
LayerCount: 2
Fore
SplineSet
511 710 m 258
 536 710 l 258
 558 710 569 697 566 675 c 258
 527 433 l 258
 508 308 442 243 336 234 c 257
 303 25 l 258
 299 3 284 -10 262 -10 c 258
 227 -10 l 258
 206 -10 194 4 198 25 c 258
 231 234 l 257
 143 242 98 291 98 381 c 256
 98 397 99 414 102 433 c 258
 141 675 l 258
 144 696 160 710 181 710 c 258
 206 710 l 258
 228 710 239 697 236 675 c 258
 197 433 l 258
 196 425 195 417 195 409 c 256
 195 360 219 322 254 318 c 257
 311 675 l 258
 314 696 330 710 351 710 c 258
 366 710 l 258
 388 710 399 697 396 675 c 258
 339 318 l 257
 386 325 423 374 432 433 c 258
 471 675 l 258
 474 696 490 710 511 710 c 258
EndSplineSet
PickledDataWithLists: "(dp0
Vcom.schriftgestaltung.Glyphs.lastChange
p1
V2015-12-22 12:24:48 +0000
p2
s."
EndChar

StartChar: Q
Encoding: 81 81 89
GlifName: Q_
Width: 575
VWidth: 0
Flags: HW
LayerCount: 2
Fore
SplineSet
484 -128 m 258
 491 -154 l 258
 496 -173 486 -193 464 -199 c 257
 429 -212 389 -220 353 -220 c 256
 255 -220 170 -163 196 4 c 258
 205 63 l 257
 311 63 l 257
 302 4 l 258
 286 -97 315 -122 368 -122 c 256
 392 -122 414 -118 441 -109 c 257
 461 -101 479 -109 484 -128 c 258
EndSplineSet
Refer: 74 79 N 1 0 0 1 0 0 2
PickledDataWithLists: "(dp0
Vcom.schriftgestaltung.Glyphs.lastChange
p1
V2016-06-09 18:35:33 +0000
p2
s."
EndChar

StartChar: R
Encoding: 82 82 90
GlifName: R_
Width: 575
VWidth: 0
Flags: HW
LayerCount: 2
Fore
SplineSet
424 341 m 257
 526 44 l 258
 534 20 519 0 492 0 c 258
 450 0 l 258
 433 0 421 8 416 24 c 258
 317 312 l 257
 188 312 l 257
 144 35 l 258
 141 14 125 0 104 0 c 258
 69 0 l 258
 48 0 36 14 39 35 c 258
 142 685 l 258
 146 707 161 720 183 720 c 258
 341 720 l 258
 474 720 554 645 554 541 c 256
 554 455 500 380 424 341 c 257
204 409 m 257
 292 409 l 258
 377 409 447 449 447 519 c 256
 447 577 401 624 326 624 c 258
 238 624 l 257
 204 409 l 257
EndSplineSet
PickledDataWithLists: "(dp0
Vcom.schriftgestaltung.Glyphs.lastChange
p1
V2016-06-09 18:35:33 +0000
p2
s."
EndChar

StartChar: S
Encoding: 83 83 94
GlifName: S_
Width: 575
VWidth: 0
Flags: HW
LayerCount: 2
Fore
SplineSet
539 659 m 258
 526 632 l 258
 517 611 497 604 480 612 c 256
 440 627 406 634 375 634 c 256
 294 634 220 587 220 521 c 256
 220 474 257 437 320 423 c 256
 446 396 517 327 517 231 c 256
 517 89 365 -10 207 -10 c 256
 155 -10 101 1 59 21 c 256
 41 29 37 46 48 67 c 258
 62 91 l 258
 73 111 92 118 110 110 c 256
 140 97 187 89 228 89 c 256
 323 89 409 137 409 212 c 256
 409 265 367 302 291 318 c 256
 176 343 112 408 112 499 c 256
 112 636 240 730 390 730 c 256
 439 730 494 719 530 702 c 256
 548 693 550 681 539 659 c 258
EndSplineSet
PickledDataWithLists: "(dp0
Vcom.schriftgestaltung.Glyphs.lastChange
p1
V2016-06-09 18:35:33 +0000
p2
s."
EndChar

StartChar: T
Encoding: 84 84 100
GlifName: T_
Width: 575
VWidth: 0
Flags: HW
LayerCount: 2
Fore
SplineSet
633 685 m 257
 629 659 l 257
 626 639 608 624 588 624 c 257
 399 624 l 257
 306 35 l 257
 303 15 286 0 265 0 c 257
 230 0 l 257
 210 0 198 15 201 35 c 257
 294 624 l 257
 105 624 l 257
 85 624 74 639 77 659 c 257
 81 685 l 257
 84 705 100 720 121 720 c 257
 603 720 l 257
 623 720 636 706 633 685 c 257
EndSplineSet
PickledDataWithLists: "(dp0
Vcom.schriftgestaltung.Glyphs.lastChange
p1
V2016-06-09 18:35:33 +0000
p2
s."
EndChar

StartChar: Theta
Encoding: 920 920 104
GlifName: T_heta
Width: 575
VWidth: 0
Flags: HW
LayerCount: 2
Fore
SplineSet
261 347 m 258
 266 374 l 258
 268 390 279 399 295 399 c 258
 324 399 l 258
 340 399 347 390 345 374 c 258
 340 347 l 258
 338 331 327 322 311 322 c 258
 282 322 l 258
 266 322 259 331 261 347 c 258
EndSplineSet
Refer: 74 79 N 1 0 0 1 0 0 2
PickledDataWithLists: "(dp0
Vcom.schriftgestaltung.Glyphs.lastChange
p1
V2016-05-30 08:32:14 +0000
p2
s."
EndChar

StartChar: Thorn
Encoding: 222 222 105
GlifName: T_horn
Width: 575
VWidth: 0
Flags: HW
LayerCount: 2
Fore
SplineSet
247 683 m 258
 243 658 l 257
 275 661 301 662 321 662 c 256
 468 662 529 602 529 458 c 256
 529 239 428 121 239 121 c 256
 221 121 192 122 158 125 c 257
 144 34 l 258
 141 13 126 0 105 0 c 258
 70 0 l 258
 48 0 36 14 39 37 c 258
 142 687 l 258
 146 708 161 720 181 720 c 258
 216 720 l 258
 239 720 251 705 247 683 c 258
228 563 m 257
 174 221 l 257
 206 219 233 218 251 218 c 256
 366 218 423 293 423 445 c 256
 423 536 395 565 309 565 c 256
 292 565 264 565 228 563 c 257
EndSplineSet
PickledDataWithLists: "(dp0
Vcom.schriftgestaltung.Glyphs.lastChange
p1
V2016-06-09 18:35:33 +0000
p2
s."
EndChar

StartChar: U
Encoding: 85 85 106
GlifName: U_
Width: 575
VWidth: 0
Flags: HW
AnchorPoint: "ogonek" 476 10 basechar 0
AnchorPoint: "top" 361 720 basechar 0
AnchorPoint: "topright" 628 720 basechar 0
AnchorPoint: "bottom" 247 0 basechar 0
LayerCount: 2
Fore
SplineSet
396 223 m 258
 469 685 l 258
 473 706 488 720 510 720 c 258
 545 720 l 258
 566 720 578 706 574 685 c 258
 501 223 l 258
 477 68 396 -10 255 -10 c 256
 134 -10 57 48 57 161 c 256
 57 180 59 201 62 223 c 258
 135 685 l 258
 139 706 154 720 176 720 c 258
 211 720 l 258
 232 720 244 706 240 685 c 258
 167 223 l 258
 164 202 162 185 162 169 c 256
 162 108 206 86 270 86 c 256
 350 86 380 120 396 223 c 258
EndSplineSet
PickledDataWithLists: "(dp0
Vcom.schriftgestaltung.Glyphs.lastChange
p1
V2016-06-09 18:35:33 +0000
p2
s."
EndChar

StartChar: V
Encoding: 86 86 117
GlifName: V_
Width: 575
VWidth: 0
Flags: HW
LayerCount: 2
Fore
SplineSet
634 680 m 257
 392 87 l 258
 368 27 319 -10 252 -10 c 256
 186 -10 134 27 128 87 c 258
 74 680 l 258
 72 703 88 720 112 720 c 258
 147 720 l 258
 167 720 179 709 180 690 c 257
 234 105 l 258
 235 94 245 86 260 86 c 256
 275 86 288 94 293 105 c 258
 532 691 l 258
 540 710 554 720 574 720 c 258
 610 720 l 258
 634 720 644 702 634 680 c 257
EndSplineSet
PickledDataWithLists: "(dp0
Vcom.schriftgestaltung.Glyphs.lastChange
p1
V2016-06-09 18:35:33 +0000
p2
s."
EndChar

StartChar: X
Encoding: 88 88 123
GlifName: X_
Width: 575
VWidth: 0
Flags: HW
LayerCount: 2
Fore
SplineSet
605 677 m 257
 425 396 l 258
 418 385 407 375 395 367 c 257
 404 360 413 349 416 339 c 258
 511 44 l 257
 518 21 502 0 477 0 c 258
 446 0 l 258
 429 0 416 9 411 24 c 258
 317 301 l 258
 311 319 306 325 300 325 c 256
 293 325 286 319 275 301 c 257
 92 24 l 258
 83 9 67 0 50 0 c 258
 19 0 l 258
 -5 0 -15 21 -2 44 c 257
 188 339 l 258
 195 349 205 360 218 367 c 257
 208 375 200 385 197 396 c 258
 106 677 l 258
 99 698 114 720 140 720 c 258
 171 720 l 258
 188 720 201 712 206 696 c 257
 296 433 l 258
 301 416 306 410 313 410 c 256
 319 410 326 415 338 433 c 258
 511 696 l 257
 520 712 537 720 553 720 c 258
 584 720 l 258
 608 720 620 699 605 677 c 257
EndSplineSet
PickledDataWithLists: "(dp0
Vcom.schriftgestaltung.Glyphs.lastChange
p1
V2016-06-09 18:35:33 +0000
p2
s."
EndChar

StartChar: Xi
Encoding: 926 926 124
GlifName: X_i
Width: 575
VWidth: 0
Flags: HW
LayerCount: 2
Fore
SplineSet
527 624 m 258
 164 624 l 258
 142 624 131 637 134 659 c 258
 138 685 l 258
 142 707 157 720 179 720 c 258
 542 720 l 258
 564 720 575 707 571 685 c 258
 567 659 l 258
 564 637 549 624 527 624 c 258
153 423 m 258
 474 423 l 258
 495 423 507 409 503 388 c 258
 499 361 l 258
 496 340 479 326 458 326 c 258
 137 326 l 258
 116 326 105 340 108 361 c 258
 112 388 l 258
 116 409 132 423 153 423 c 258
58 97 m 258
 465 97 l 258
 486 97 498 83 495 62 c 258
 490 35 l 258
 487 14 471 0 450 0 c 258
 43 0 l 258
 22 0 10 14 13 35 c 258
 18 62 l 258
 21 83 37 97 58 97 c 258
EndSplineSet
PickledDataWithLists: "(dp0
Vcom.schriftgestaltung.Glyphs.lastChange
p1
V2015-12-22 12:18:54 +0000
p2
s."
EndChar

StartChar: Y
Encoding: 89 89 125
GlifName: Y_
Width: 575
VWidth: 0
Flags: HW
LayerCount: 2
Fore
SplineSet
570 720 m 257
 606 720 l 257
 632 720 641 698 627 677 c 257
 435 386 l 257
 415 353 384 329 351 318 c 257
 306 35 l 257
 303 15 286 0 265 0 c 257
 230 0 l 257
 210 0 198 15 201 35 c 257
 246 318 l 257
 216 329 193 353 183 386 c 257
 84 676 l 257
 75 699 93 720 117 720 c 257
 154 720 l 257
 171 720 184 712 189 696 c 257
 282 425 l 257
 288 408 297 400 312 400 c 257
 326 400 338 408 349 424 c 257
 528 696 l 257
 538 712 554 720 570 720 c 257
EndSplineSet
PickledDataWithLists: "(dp0
Vcom.schriftgestaltung.Glyphs.lastChange
p1
V2016-06-09 18:35:33 +0000
p2
s."
EndChar

StartChar: Z
Encoding: 90 90 130
GlifName: Z_
Width: 575
VWidth: 0
Flags: HW
LayerCount: 2
Fore
SplineSet
474 458 m 257
 198 220 l 257
 170 196 150 154 137 97 c 257
 461 97 l 257
 481 97 493 82 490 62 c 257
 486 35 l 257
 483 15 465 0 445 0 c 257
 50 0 l 257
 30 0 18 15 21 35 c 257
 26 65 l 257
 40 154 80 232 139 282 c 257
 416 521 l 257
 441 543 461 578 472 624 c 257
 180 624 l 257
 160 624 148 639 151 659 c 257
 155 685 l 257
 158 706 175 720 195 720 c 257
 559 720 l 257
 580 720 592 706 589 685 c 257
 584 655 l 257
 572 580 533 508 474 458 c 257
EndSplineSet
PickledDataWithLists: "(dp0
Vcom.schriftgestaltung.Glyphs.lastChange
p1
V2016-06-09 18:35:33 +0000
p2
s."
EndChar

StartChar: a
Encoding: 97 97 135
GlifName: a
Width: 575
VWidth: 0
Flags: HW
AnchorPoint: "top" 338 570 basechar 0
LayerCount: 2
Fore
SplineSet
532 479 m 258
 464 39 l 258
 461 15 447 0 427 0 c 258
 390 0 l 258
 367 0 355 15 359 37 c 258
 367 78 l 257
 313 11 260 -10 212 -10 c 256
 115 -10 67 60 67 199 c 256
 67 410 172 530 357 530 c 256
 386 530 441 528 502 520 c 257
 503 520 l 257
 525 516 536 500 532 479 c 258
379 166 m 257
 421 431 l 257
 388 433 361 434 345 434 c 256
 233 434 173 356 173 214 c 256
 173 122 194 86 242 86 c 256
 281 86 331 115 379 166 c 257
EndSplineSet
PickledDataWithLists: "(dp0
Vcom.schriftgestaltung.Glyphs.lastChange
p1
V2016-06-09 18:35:33 +0000
p2
s."
EndChar

StartChar: a.hex
Encoding: 65543 -1 136
GlifName: a.hex
Width: 575
VWidth: 0
Flags: HW
LayerCount: 2
Fore
SplineSet
214 875 m 258
 214 829 l 258
 214 812 205 804 189 804 c 258
 154 804 l 258
 137 804 129 813 129 829 c 258
 129 875 l 258
 129 891 138 900 154 900 c 258
 189 900 l 258
 205 900 214 891 214 875 c 258
502 875 m 258
 502 829 l 258
 502 812 493 804 477 804 c 258
 442 804 l 258
 425 804 417 813 417 829 c 258
 417 875 l 258
 417 891 426 900 442 900 c 258
 477 900 l 258
 493 900 502 891 502 875 c 258
EndSplineSet
Refer: 135 97 N 1 0 0 1 0 0 2
PickledDataWithLists: "(dp0
Vcom.schriftgestaltung.Glyphs.lastChange
p1
V2016-06-09 18:35:34 +0000
p2
s."
EndChar

StartChar: acute
Encoding: 180 180 140
GlifName: acute
Width: 575
VWidth: 0
Flags: HW
AnchorPoint: "top" 353 500 mark 0
LayerCount: 2
Fore
SplineSet
232 544 m 258
 226 562 l 257
 223 577 229 588 245 595 c 258
 471 696 l 258
 486 703 497 699 502 684 c 257
 515 638 l 257
 520 623 513 611 496 606 c 258
 264 531 l 258
 248 526 237 530 232 544 c 258
EndSplineSet
PickledDataWithLists: "(dp0
Vcom.schriftgestaltung.Glyphs.lastChange
p1
V2015-12-22 16:32:39 +0000
p2
s."
EndChar

StartChar: ae
Encoding: 230 230 142
GlifName: ae
Width: 575
VWidth: 0
Flags: HW
LayerCount: 2
Fore
SplineSet
145 450 m 257
 143 478 l 257
 141 498 155 515 176 519 c 257
 215 526 259 530 295 530 c 257
 466 530 520 425 497 280 c 257
 494 257 l 257
 490 237 473 222 453 222 c 257
 329 222 l 257
 308 88 l 257
 330 89 355 92 384 96 c 257
 405 100 420 89 422 69 c 257
 424 43 l 257
 425 23 411 5 389 1 c 257
 332 -9 319 -9 247 -10 c 257
 78 -10 24 52 39 159 c 257
 54 255 127 307 239 317 c 257
 257 433 l 257
 236 431 210 429 183 425 c 257
 162 421 147 432 145 450 c 257
344 319 m 257
 397 319 l 257
 400 358 392 395 359 411 c 257
 344 319 l 257
203 89 m 257
 224 219 l 257
 177 211 150 190 143 150 c 257
 138 118 162 96 203 89 c 257
EndSplineSet
PickledDataWithLists: "(dp0
Vcom.schriftgestaltung.Glyphs.lastChange
p1
V2016-06-09 18:35:33 +0000
p2
s."
EndChar

StartChar: alpha
Encoding: 945 945 144
GlifName: alpha
Width: 575
VWidth: 0
Flags: HW
LayerCount: 2
Fore
SplineSet
520 520 m 258
 547 520 l 258
 573 520 583 505 574 479 c 256
 568 464 545 365 494 260 c 257
 511 155 504 56 504 41 c 256
 505 15 491 0 465 0 c 258
 438 0 l 258
 418 0 408 9 407 30 c 256
 406 39 408 66 408 103 c 257
 348 28 281 -10 209 -10 c 256
 91 -10 29 60 29 186 c 256
 29 370 121 530 295 530 c 256
 367 530 422 492 458 417 c 257
 470 454 476 481 479 490 c 256
 488 511 500 520 520 520 c 258
135 206 m 256
 135 130 167 87 225 87 c 256
 297 87 354 167 410 260 c 257
 384 353 351 433 279 433 c 256
 182 433 135 310 135 206 c 256
  PathStart: -2
EndSplineSet
PickledDataWithLists: "(dp0
Vcom.schriftgestaltung.Glyphs.lastChange
p1
V2015-12-22 12:26:38 +0000
p2
s."
EndChar

StartChar: ampersand
Encoding: 38 38 146
GlifName: ampersand
Width: 575
VWidth: 0
Flags: HW
LayerCount: 2
Fore
SplineSet
463 0 m 258
 431 0 l 258
 412 0 401 9 397 29 c 257
 397 30 l 258
 395 44 391 60 385 77 c 257
 326 23 259 -7 192 -7 c 256
 90 -7 28 54 28 153 c 256
 28 244 80 331 170 392 c 257
 135 438 117 485 117 529 c 256
 117 630 210 717 319 717 c 256
 409 717 473 657 473 574 c 256
 473 515 446 458 398 418 c 257
 382 404 364 405 350 420 c 258
 349 421 l 257
 333 441 l 258
 320 457 321 475 338 489 c 256
 358 506 371 532 371 557 c 256
 371 592 344 618 305 618 c 256
 260 618 223 582 223 539 c 256
 223 510 237 479 267 444 c 256
 322 379 367 320 402 268 c 257
 406 277 410 287 414 297 c 257
 414 298 l 257
 423 318 439 327 458 323 c 258
 490 317 l 258
 512 313 521 296 512 273 c 256
 497 236 479 202 459 168 c 257
 481 121 494 79 500 38 c 257
 500 38 l 257
 501 15 486 0 463 0 c 258
132 163 m 256
 132 115 157 89 204 89 c 256
 249 89 298 118 340 168 c 257
 314 210 278 260 230 321 c 257
 169 280 132 220 132 163 c 256
  PathStart: -2
EndSplineSet
PickledDataWithLists: "(dp0
Vcom.schriftgestaltung.Glyphs.lastChange
p1
V2015-12-22 14:24:01 +0000
p2
s."
EndChar

StartChar: asciicircum
Encoding: 94 94 150
GlifName: asciicircum
Width: 575
VWidth: 0
Flags: HW
LayerCount: 2
Fore
SplineSet
62 507 m 257
 280 690 l 258
 305 710 328 729 362 729 c 256
 396 729 415 708 433 689 c 257
 592 506 l 257
 607 490 604 470 585 455 c 258
 560 435 l 258
 542 421 524 421 510 438 c 258
 356 627 l 257
 353 632 352 632 350 632 c 256
 348 632 344 630 340 626 c 257
 126 437 l 258
 109 421 91 421 77 436 c 258
 57 456 l 258
 42 471 44 490 62 507 c 257
EndSplineSet
PickledDataWithLists: "(dp0
Vcom.schriftgestaltung.Glyphs.lastChange
p1
V2015-12-22 14:26:04 +0000
p2
s."
EndChar

StartChar: asciitilde
Encoding: 126 126 151
GlifName: asciitilde
Width: 575
VWidth: 0
Flags: HW
LayerCount: 2
Fore
SplineSet
497 328 m 257
 526 328 l 257
 545 328 556 313 553 292 c 257
 538 196 478 140 393 140 c 257
 346 140 295 171 249 226 c 257
 216 265 188 284 168 284 c 257
 144 284 127 265 120 225 c 257
 118 207 100 193 78 193 c 257
 50 193 l 257
 31 193 19 208 22 229 c 257
 37 324 96 381 183 381 c 257
 229 381 281 349 327 294 c 257
 359 256 387 236 408 236 c 257
 431 236 448 256 455 296 c 257
 458 315 476 328 497 328 c 257
EndSplineSet
PickledDataWithLists: "(dp0
Vcom.schriftgestaltung.Glyphs.lastChange
p1
V2015-12-22 16:32:54 +0000
p2
s."
EndChar

StartChar: asterisk
Encoding: 42 42 152
GlifName: asterisk
Width: 575
VWidth: 0
Flags: HW
LayerCount: 2
Fore
SplineSet
544 357 m 258
 550 322 l 258
 553 302 542 287 522 280 c 257
 385 238 l 257
 457 109 l 257
 466 91 461 73 443 61 c 258
 412 41 l 258
 392 28 374 31 362 49 c 257
 278 199 l 257
 146 47 l 257
 145 47 l 257
 129 30 111 28 95 40 c 257
 70 61 l 257
 54 73 53 93 69 111 c 258
 183 239 l 257
 63 281 l 258
 42 288 36 306 46 325 c 257
 62 359 l 258
 71 379 88 387 109 380 c 258
 246 332 l 257
 271 486 l 258
 274 507 288 520 310 520 c 258
 345 520 l 258
 367 520 379 507 376 483 c 257
 351 333 l 257
 502 381 l 258
 523 387 540 378 544 357 c 258
EndSplineSet
PickledDataWithLists: "(dp0
Vcom.schriftgestaltung.Glyphs.lastChange
p1
V2015-12-22 20:53:16 +0000
p2
s."
EndChar

StartChar: at
Encoding: 64 64 153
GlifName: at
Width: 575
VWidth: 0
Flags: HW
LayerCount: 2
Fore
SplineSet
15 90 m 257
 75 466 l 258
 102 634 199 720 361 720 c 256
 501 720 573 654 573 528 c 256
 573 503 571 482 568 462 c 258
 512 111 l 258
 509 90 494 77 473 77 c 258
 413 77 l 258
 292 77 250 138 272 278 c 256
 293 413 351 472 464 475 c 257
 466 487 467 498 467 512 c 256
 467 587 429 624 349 624 c 256
 253 624 197 571 180 462 c 258
 120 86 l 257
 117 72 116 57 116 41 c 256
 116 -35 154 -72 235 -72 c 256
 265 -72 292 -67 327 -55 c 256
 348 -47 365 -54 371 -75 c 258
 378 -102 l 258
 383 -122 373 -140 353 -146 c 256
 308 -161 268 -168 223 -168 c 256
 83 -168 10 -102 10 25 c 256
 10 44 12 65 15 90 c 257
EndSplineSet
PickledDataWithLists: "(dp0
Vcom.schriftgestaltung.Glyphs.lastChange
p1
V2016-02-01 22:12:54 +0000
p2
s."
EndChar

StartChar: b
Encoding: 98 98 155
GlifName: b
Width: 575
VWidth: 0
Flags: HW
LayerCount: 2
Fore
SplineSet
38 41 m 258
 145 731 l 258
 148 755 162 770 182 770 c 258
 219 770 l 258
 242 770 253 755 250 733 c 258
 203 452 l 257
 257 509 310 530 358 530 c 256
 451 530 503 454 503 320 c 256
 503 105 402 -10 213 -10 c 256
 184 -10 129 -8 68 0 c 257
 67 0 l 257
 46 4 35 19 38 41 c 258
191 354 m 257
 149 89 l 257
 182 87 209 86 225 86 c 256
 340 86 397 159 397 305 c 256
 397 392 374 434 328 434 c 256
 289 434 239 405 191 354 c 257
EndSplineSet
PickledDataWithLists: "(dp0
Vcom.schriftgestaltung.Glyphs.lastChange
p1
V2016-06-09 18:35:33 +0000
p2
s."
EndChar

StartChar: b.hex
Encoding: 65545 -1 156
GlifName: b.hex
Width: 575
VWidth: 0
Flags: HW
LayerCount: 2
Fore
SplineSet
214 875 m 258
 214 829 l 258
 214 812 205 804 189 804 c 258
 154 804 l 258
 137 804 129 813 129 829 c 258
 129 875 l 258
 129 891 138 900 154 900 c 258
 189 900 l 258
 205 900 214 891 214 875 c 258
502 875 m 258
 502 829 l 258
 502 812 493 804 477 804 c 258
 442 804 l 258
 425 804 417 813 417 829 c 258
 417 875 l 258
 417 891 426 900 442 900 c 258
 477 900 l 258
 493 900 502 891 502 875 c 258
646 875 m 258
 646 829 l 258
 646 812 637 804 621 804 c 258
 586 804 l 258
 569 804 561 813 561 829 c 258
 561 875 l 258
 561 891 570 900 586 900 c 258
 621 900 l 258
 637 900 646 891 646 875 c 258
EndSplineSet
Refer: 155 98 N 1 0 0 1 0 0 2
PickledDataWithLists: "(dp0
Vcom.schriftgestaltung.Glyphs.lastChange
p1
V2016-06-09 18:35:34 +0000
p2
s."
EndChar

StartChar: backslash
Encoding: 92 92 157
GlifName: backslash
Width: 575
VWidth: 0
Flags: HW
LayerCount: 2
Fore
SplineSet
198 686 m 257
 480 -140 l 257
 486 -157 477 -177 457 -186 c 257
 423 -202 l 257
 404 -211 385 -204 379 -186 c 257
 97 640 l 257
 91 657 100 677 120 686 c 257
 154 702 l 257
 173 711 192 704 198 686 c 257
EndSplineSet
PickledDataWithLists: "(dp0
Vcom.schriftgestaltung.Glyphs.lastChange
p1
V2015-12-22 16:32:37 +0000
p2
s."
EndChar

StartChar: bar
Encoding: 124 124 158
GlifName: bar
Width: 575
VWidth: 0
Flags: HW
LayerCount: 2
Fore
SplineSet
351 770 m 257
 386 770 l 257
 406 770 419 756 415 735 c 257
 276 -143 l 257
 273 -163 257 -178 236 -178 c 257
 201 -178 l 257
 181 -178 168 -164 171 -143 c 257
 310 735 l 257
 313 755 331 770 351 770 c 257
EndSplineSet
PickledDataWithLists: "(dp0
Vcom.schriftgestaltung.Glyphs.lastChange
p1
V2015-12-22 16:32:56 +0000
p2
s."
EndChar

StartChar: beta
Encoding: 946 946 159
GlifName: beta
Width: 575
VWidth: 0
Flags: HW
LayerCount: 2
Fore
SplineSet
131 506 m 258
 153 645 234 720 365 720 c 256
 473 720 532 672 532 585 c 256
 532 520 501 476 464 431 c 256
 448 411 431 391 431 375 c 256
 431 359 443 348 460 331 c 256
 484 308 516 278 516 226 c 256
 516 58 318 -58 158 11 c 257
 130 -167 l 258
 126 -188 112 -200 91 -200 c 258
 56 -200 l 258
 33 -200 21 -185 25 -163 c 258
 131 506 l 258
  PathStart: -2
430 562 m 256
 430 603 405 624 353 624 c 256
 288 624 248 583 236 502 c 258
 172 102 l 257
 294 47 415 105 415 219 c 256
 415 247 396 262 374 281 c 257
 351 299 324 320 324 359 c 256
 324 408 361 450 389 484 c 256
 415 516 430 531 430 562 c 256
  PathStart: -2
EndSplineSet
PickledDataWithLists: "(dp0
Vcom.schriftgestaltung.Glyphs.lastChange
p1
V2015-12-22 12:27:37 +0000
p2
s."
EndChar

StartChar: block
Encoding: 9608 9608 160
GlifName: block
Width: 575
VWidth: 0
Flags: HW
LayerCount: 2
Fore
SplineSet
0 -250 m 257
 0 900 l 257
 575 900 l 257
 575 -250 l 257
 0 -250 l 257
EndSplineSet
PickledDataWithLists: "(dp0
Vcom.schriftgestaltung.Glyphs.lastChange
p1
V2016-06-10 08:26:49 +0000
p2
s."
EndChar

StartChar: braceleft
Encoding: 123 123 161
GlifName: braceleft
Width: 575
VWidth: 0
Flags: HW
LayerCount: 2
Fore
SplineSet
393 593 m 258
 365 418 l 258
 357 367 343 325 291 295 c 257
 334 265 333 218 326 172 c 258
 298 -5 l 258
 289 -63 303 -82 354 -82 c 258
 435 -82 l 258
 458 -82 470 -97 466 -119 c 258
 462 -145 l 258
 458 -166 444 -178 423 -178 c 258
 342 -178 l 258
 218 -178 174 -126 193 -1 c 258
 221 176 l 258
 230 230 216 248 165 248 c 258
 85 248 l 258
 62 248 50 263 54 285 c 258
 58 310 l 257
 61 331 75 344 97 344 c 258
 177 344 l 258
 229 344 252 365 260 421 c 258
 288 597 l 258
 308 719 367 770 489 770 c 258
 570 770 l 258
 593 770 605 755 601 733 c 258
 597 707 l 258
 593 686 579 674 558 674 c 258
 477 674 l 258
 425 674 403 653 393 593 c 258
EndSplineSet
PickledDataWithLists: "(dp0
Vcom.schriftgestaltung.Glyphs.lastChange
p1
V2016-04-11 09:42:36 +0000
p2
s."
EndChar

StartChar: braceright
Encoding: 125 125 162
GlifName: braceright
Width: 575
VWidth: 0
Flags: HW
LayerCount: 2
Fore
SplineSet
296 297 m 257
 253 328 253 371 260 421 c 258
 288 597 l 258
 298 654 283 674 232 674 c 258
 151 674 l 258
 128 674 116 688 120 711 c 258
 124 737 l 258
 128 758 143 770 163 770 c 258
 244 770 l 258
 368 770 413 717 393 593 c 258
 365 417 l 258
 357 363 371 344 422 344 c 258
 502 344 l 258
 524 344 536 331 533 307 c 257
 529 281 l 258
 525 260 510 248 490 248 c 258
 410 248 l 258
 358 248 335 228 326 172 c 258
 298 -5 l 258
 279 -127 220 -178 97 -178 c 258
 16 -178 l 258
 -7 -178 -19 -164 -15 -141 c 258
 -11 -115 l 258
 -7 -94 8 -82 28 -82 c 258
 109 -82 l 258
 162 -82 184 -61 193 -1 c 258
 221 176 l 258
 229 222 242 267 296 297 c 257
  PathStart: -2
EndSplineSet
PickledDataWithLists: "(dp0
Vcom.schriftgestaltung.Glyphs.lastChange
p1
V2016-06-03 09:15:51 +0000
p2
s."
EndChar

StartChar: bracketleft
Encoding: 91 91 163
GlifName: bracketleft
Width: 575
VWidth: 0
Flags: HW
LayerCount: 2
Fore
SplineSet
191 -82 m 257
 416 -82 l 257
 436 -82 448 -97 445 -117 c 257
 441 -143 l 257
 438 -164 422 -178 401 -178 c 257
 106 -178 l 257
 86 -178 73 -164 76 -143 c 257
 215 735 l 257
 218 755 236 770 256 770 c 257
 551 770 l 257
 571 770 584 756 580 735 c 257
 576 709 l 257
 573 688 557 674 536 674 c 257
 311 674 l 257
 191 -82 l 257
EndSplineSet
PickledDataWithLists: "(dp0
Vcom.schriftgestaltung.Glyphs.lastChange
p1
V2015-12-22 13:51:23 +0000
p2
s."
EndChar

StartChar: bracketright
Encoding: 93 93 164
GlifName: bracketright
Width: 575
VWidth: 0
Flags: HW
LayerCount: 2
Fore
SplineSet
186 770 m 257
 481 770 l 257
 501 770 514 756 510 735 c 257
 371 -143 l 257
 368 -163 352 -178 331 -178 c 257
 36 -178 l 257
 16 -178 3 -164 6 -143 c 257
 10 -117 l 257
 14 -96 31 -82 51 -82 c 257
 276 -82 l 257
 396 674 l 257
 171 674 l 257
 150 674 138 689 141 709 c 257
 145 735 l 257
 149 756 166 770 186 770 c 257
EndSplineSet
PickledDataWithLists: "(dp0
Vcom.schriftgestaltung.Glyphs.lastChange
p1
V2015-12-22 13:51:43 +0000
p2
s."
EndChar

StartChar: breve
Encoding: 728 728 165
GlifName: breve
Width: 575
VWidth: 0
Flags: HW
AnchorPoint: "top" 328 500 mark 0
LayerCount: 2
Fore
SplineSet
525 696 m 258
 552 691 l 258
 567 688 574 678 566 662 c 256
 532 583 461 539 365 538 c 256
 269 539 211 583 201 662 c 256
 200 678 209 688 226 691 c 258
 255 696 l 258
 270 699 278 692 280 676 c 256
 288 626 320 598 374 598 c 256
 427 598 469 626 492 676 c 256
 499 692 509 699 525 696 c 258
EndSplineSet
PickledDataWithLists: "(dp0
Vcom.schriftgestaltung.Glyphs.lastChange
p1
V2015-12-22 16:32:39 +0000
p2
s."
EndChar

StartChar: brokenbar
Encoding: 166 166 166
GlifName: brokenbar
Width: 575
VWidth: 0
Flags: HW
LayerCount: 2
Fore
SplineSet
237 -178 m 258
 202 -178 l 258
 179 -178 167 -164 171 -141 c 258
 222 180 l 258
 226 201 240 213 261 213 c 258
 296 213 l 258
 319 213 331 199 327 176 c 258
 276 -144 l 258
 273 -166 259 -178 237 -178 c 258
325 379 m 258
 290 379 l 258
 268 379 256 393 259 416 c 258
 310 737 l 258
 314 758 329 770 349 770 c 258
 384 770 l 258
 407 770 419 756 415 733 c 258
 364 413 l 258
 361 392 346 379 325 379 c 258
EndSplineSet
PickledDataWithLists: "(dp0
Vcom.schriftgestaltung.Glyphs.lastChange
p1
V2015-12-22 14:22:08 +0000
p2
s."
EndChar

StartChar: bullet
Encoding: 8226 8226 167
GlifName: bullet
Width: 575
VWidth: 0
Flags: HW
LayerCount: 2
Fore
SplineSet
500 335 m 257
 500 233 418 150 318 150 c 257
 217 150 135 233 135 335 c 257
 135 437 217 520 318 520 c 257
 418 520 500 437 500 335 c 257
  PathStart: -2
EndSplineSet
PickledDataWithLists: "(dp0
Vcom.schriftgestaltung.Glyphs.lastChange
p1
V2015-12-22 16:32:38 +0000
p2
s."
EndChar

StartChar: c
Encoding: 99 99 168
GlifName: c
Width: 575
VWidth: 0
Flags: HW
AnchorPoint: "top" 371 570 basechar 0
AnchorPoint: "bottom" 259 0 basechar 0
LayerCount: 2
Fore
SplineSet
531 452 m 258
 517 428 l 257
 506 409 489 402 470 410 c 256
 431 425 397 432 357 432 c 256
 247 432 176 349 176 221 c 256
 176 130 215 88 299 88 c 256
 338 88 373 95 420 110 c 257
 441 118 458 111 464 89 c 258
 470 65 l 257
 474 44 465 28 446 21 c 256
 394 0 340 -10 287 -10 c 256
 149 -10 70 70 70 212 c 256
 70 398 193 530 369 530 c 256
 422 530 475 519 518 499 c 256
 538 491 543 472 531 452 c 258
EndSplineSet
PickledDataWithLists: "(dp0
Vcom.schriftgestaltung.Glyphs.lastChange
p1
V2016-06-09 18:35:33 +0000
p2
s."
EndChar

StartChar: c.hex
Encoding: 65548 -1 169
GlifName: c.hex
Width: 575
VWidth: 0
Flags: HW
LayerCount: 2
Fore
SplineSet
214 875 m 258
 214 829 l 258
 214 812 205 804 189 804 c 258
 154 804 l 258
 137 804 129 813 129 829 c 258
 129 875 l 258
 129 891 138 900 154 900 c 258
 189 900 l 258
 205 900 214 891 214 875 c 258
358 875 m 258
 358 829 l 258
 358 812 349 804 333 804 c 258
 298 804 l 258
 281 804 273 813 273 829 c 258
 273 875 l 258
 273 891 282 900 298 900 c 258
 333 900 l 258
 349 900 358 891 358 875 c 258
EndSplineSet
Refer: 168 99 N 1 0 0 1 0 0 2
PickledDataWithLists: "(dp0
Vcom.schriftgestaltung.Glyphs.lastChange
p1
V2016-06-09 18:35:34 +0000
p2
s."
EndChar

StartChar: caron
Encoding: 711 711 171
GlifName: caron
Width: 575
VWidth: 0
Flags: HW
AnchorPoint: "top" 328 500 mark 0
LayerCount: 2
Fore
SplineSet
209 665 m 258
 229 688 l 258
 241 701 254 703 265 694 c 258
 356 623 l 258
 363 617 366 614 376 614 c 256
 386 614 389 618 398 623 c 258
 511 694 l 258
 526 703 537 701 544 688 c 258
 558 665 l 258
 566 652 562 639 546 630 c 258
 432 565 l 258
 410 552 387 542 364 542 c 256
 341 542 323 551 304 564 c 258
 210 630 l 258
 198 639 197 652 209 665 c 258
EndSplineSet
PickledDataWithLists: "(dp0
Vcom.schriftgestaltung.Glyphs.lastChange
p1
V2016-05-18 20:16:32 +0000
p2
s."
EndChar

StartChar: cedilla
Encoding: 184 184 175
GlifName: cedilla
Width: 575
VWidth: 0
Flags: HW
LayerCount: 2
Fore
SplineSet
240 -68 m 257
 263 -63 284 -61 302 -61 c 256
 371 -61 403 -91 403 -129 c 256
 403 -199 294 -246 196 -246 c 256
 171 -246 147 -242 120 -235 c 257
 105 -230 101 -218 109 -203 c 258
 115 -192 l 257
 122 -177 134 -172 149 -175 c 256
 169 -179 191 -181 207 -181 c 256
 255 -181 304 -165 304 -140 c 256
 304 -128 291 -119 263 -119 c 256
 255 -119 245 -120 235 -121 c 257
 222 -123 212 -121 204 -111 c 258
 180 -82 l 258
 172 -72 172 -61 180 -48 c 258
 207 -5 l 258
 215 8 225 14 239 13 c 257
 257 13 l 257
 276 12 282 1 271 -17 c 258
 240 -68 l 257
  PathStart: -2
EndSplineSet
PickledDataWithLists: "(dp0
Vcom.schriftgestaltung.Glyphs.lastChange
p1
V2015-12-22 16:32:40 +0000
p2
s."
EndChar

StartChar: cent
Encoding: 162 162 176
GlifName: cent
Width: 575
VWidth: 0
Flags: HW
LayerCount: 2
Fore
SplineSet
279 455 m 257
 310 653 l 257
 314 674 331 688 351 688 c 257
 386 688 l 257
 406 688 419 674 415 653 c 257
 386 471 l 257
 279 455 l 257
318 40 m 257
 288 -153 l 257
 284 -174 267 -188 247 -188 c 257
 212 -188 l 257
 192 -188 179 -174 183 -153 c 257
 216 56 l 257
 318 40 l 257
EndSplineSet
Refer: 168 99 N 1 0 0 1 -1 0 2
PickledDataWithLists: "(dp0
Vcom.schriftgestaltung.Glyphs.lastChange
p1
V2015-12-22 14:01:47 +0000
p2
s."
EndChar

StartChar: chi
Encoding: 967 967 177
GlifName: chi
Width: 575
VWidth: 0
Flags: HW
LayerCount: 2
Fore
SplineSet
367 124 m 258
 391 21 416 -22 449 -22 c 256
 454 -22 458 -22 464 -21 c 256
 486 -18 499 -30 499 -52 c 257
 498 -76 l 258
 497 -98 484 -113 462 -115 c 257
 453 -115 443 -116 434 -116 c 256
 347 -116 298 -55 265 89 c 257
 263 100 l 257
 85 -117 l 258
 71 -134 51 -138 36 -126 c 257
 18 -114 l 257
 3 -102 2 -83 16 -66 c 258
 237 209 l 257
 220 282 l 258
 197 385 172 428 139 428 c 256
 134 428 130 428 123 427 c 257
 101 426 89 437 89 458 c 257
 90 482 l 258
 91 504 104 519 126 521 c 257
 135 521 144 522 153 522 c 256
 240 522 290 461 323 317 c 257
 470 499 l 257
 480 513 494 520 511 520 c 258
 550 520 l 258
 578 520 587 498 567 475 c 258
 348 206 l 257
 367 124 l 258
  PathStart: -2
EndSplineSet
PickledDataWithLists: "(dp0
Vcom.schriftgestaltung.Glyphs.lastChange
p1
V2015-12-22 12:54:05 +0000
p2
s."
EndChar

StartChar: circumflex
Encoding: 710 710 178
GlifName: circumflex
Width: 575
VWidth: 0
Flags: HW
AnchorPoint: "top" 328 500 mark 0
LayerCount: 2
Fore
SplineSet
207 552 m 257
 195 576 l 258
 187 590 192 602 207 611 c 258
 322 677 l 258
 345 691 366 700 389 700 c 256
 412 700 432 689 450 677 c 258
 543 611 l 258
 556 602 556 590 544 576 c 258
 523 553 l 258
 512 540 500 538 488 547 c 258
 397 619 l 258
 390 624 388 628 378 628 c 256
 368 628 364 624 355 619 c 258
 242 547 l 258
 228 538 216 540 207 552 c 257
EndSplineSet
PickledDataWithLists: "(dp0
Vcom.schriftgestaltung.Glyphs.lastChange
p1
V2015-12-22 16:32:40 +0000
p2
s."
EndChar

StartChar: colon
Encoding: 58 58 179
GlifName: colon
Width: 575
VWidth: 0
Flags: HW
LayerCount: 2
Fore
SplineSet
278 520 m 258
 378 520 l 258
 400 520 412 507 409 483 c 257
 394 394 l 257
 391 373 376 360 355 360 c 258
 255 360 l 258
 233 360 221 374 224 397 c 257
 239 486 l 257
 242 508 256 520 278 520 c 258
221 160 m 258
 321 160 l 258
 343 160 355 147 352 123 c 257
 337 34 l 257
 334 13 319 0 298 0 c 258
 198 0 l 258
 176 0 164 14 167 37 c 257
 182 126 l 257
 185 148 199 160 221 160 c 258
EndSplineSet
PickledDataWithLists: "(dp0
Vcom.schriftgestaltung.Glyphs.lastChange
p1
V2015-12-22 20:53:35 +0000
p2
s."
EndChar

StartChar: comma
Encoding: 44 44 180
GlifName: comma
Width: 575
VWidth: 0
Flags: HW
LayerCount: 2
Fore
SplineSet
222 160 m 258
 322 160 l 258
 344 160 355 147 352 125 c 258
 333 8 l 258
 304 -176 222 -247 38 -247 c 256
 16 -247 5 -234 8 -213 c 258
 12 -186 l 258
 16 -164 31 -151 52 -151 c 256
 162 -151 208 -112 227 0 c 257
 197 0 l 258
 176 0 164 14 167 35 c 258
 182 125 l 258
 185 147 200 160 222 160 c 258
EndSplineSet
PickledDataWithLists: "(dp0
Vcom.schriftgestaltung.Glyphs.lastChange
p1
V2015-12-22 20:53:49 +0000
p2
s."
EndChar

StartChar: copyright
Encoding: 169 169 181
GlifName: copyright
Width: 575
VWidth: 0
Flags: HW
LayerCount: 2
Fore
SplineSet
411 468 m 258
 399 459 l 258
 386 448 377 450 364 458 c 256
 353 465 339 469 324 469 c 258
 323 469 l 258
 300 469 274 458 255 440 c 256
 237 423 225 399 221 375 c 256
 217 352 222 328 235 310 c 256
 248 293 270 282 293 281 c 258
 294 281 l 258
 309 281 325 286 338 293 c 256
 353 301 363 302 372 291 c 258
 381 282 l 258
 391 271 390 257 375 247 c 256
 348 229 315 219 285 219 c 258
 282 219 l 258
 242 220 206 237 184 267 c 256
 161 296 151 335 158 375 c 256
 164 415 186 455 218 484 c 256
 250 513 292 531 332 531 c 257
 335 532 l 257
 365 532 394 521 415 503 c 256
 427 493 424 479 411 468 c 258
92 190 m 256
 52 238 35 307 46 375 c 256
 57 444 95 512 151 561 c 256
 208 609 280 637 349 637 c 256
 417 637 482 609 522 561 c 256
 563 512 581 444 570 375 c 256
 559 307 520 238 463 190 c 256
 408 141 334 113 266 113 c 256
 197 113 134 141 92 190 c 256
  PathStart: -2
426 234 m 256
 469 271 499 323 507 375 c 256
 515 427 502 479 471 516 c 256
 440 553 391 575 339 575 c 256
 287 575 232 553 189 516 c 256
 146 479 116 427 108 375 c 256
 100 323 113 271 144 234 c 256
 176 197 224 176 276 176 c 256
 328 176 384 197 426 234 c 256
  PathStart: -2
EndSplineSet
PickledDataWithLists: "(dp0
Vcom.schriftgestaltung.Glyphs.lastChange
p1
V2015-12-22 14:24:21 +0000
p2
s."
EndChar

StartChar: currency
Encoding: 164 164 182
GlifName: currency
Width: 575
VWidth: 0
Flags: HW
LayerCount: 2
Fore
SplineSet
573 444 m 258
 483 367 l 257
 498 334 503 296 497 258 c 256
 491 221 474 183 450 151 c 257
 514 75 l 258
 528 59 524 40 505 26 c 257
 479 5 l 258
 461 -9 442 -8 430 8 c 257
 369 81 l 257
 333 62 293 51 256 51 c 256
 218 51 183 61 153 81 c 257
 67 6 l 258
 49 -9 30 -9 17 6 c 257
 -3 27 l 258
 -17 42 -15 61 2 77 c 257
 92 154 l 257
 78 186 73 224 79 262 c 256
 85 300 101 337 125 370 c 257
 61 446 l 258
 48 461 52 481 70 495 c 258
 96 515 l 258
 114 529 132 529 146 513 c 258
 206 440 l 257
 242 459 282 469 320 469 c 256
 358 469 394 459 422 440 c 257
 510 515 l 258
 526 529 544 529 558 515 c 258
 578 494 l 258
 593 479 591 459 573 444 c 258
175 258 m 256
 165 197 207 148 269 148 c 256
 332 148 390 198 400 262 c 256
 410 323 369 373 307 373 c 256
 244 373 185 322 175 258 c 256
  PathStart: -2
EndSplineSet
PickledDataWithLists: "(dp0
Vcom.schriftgestaltung.Glyphs.lastChange
p1
V2015-12-22 14:02:18 +0000
p2
s."
EndChar

StartChar: d
Encoding: 100 100 183
GlifName: d
Width: 575
VWidth: 0
Flags: HW
AnchorPoint: "bottom" 247 0 basechar 0
AnchorPoint: "top" 439 520 basechar 0
AnchorPoint: "topright" 596 520 basechar 0
AnchorPoint: "center" 288 260 basechar 0
LayerCount: 2
Fore
SplineSet
508 770 m 258
 543 770 l 258
 566 770 578 755 574 733 c 258
 464 39 l 258
 461 15 447 0 427 0 c 258
 390 0 l 258
 367 0 355 15 359 37 c 258
 365 68 l 257
 313 11 260 -10 212 -10 c 256
 119 -10 67 66 67 200 c 256
 67 415 168 530 357 530 c 256
 375 530 404 529 437 527 c 257
 469 737 l 258
 473 758 488 770 508 770 c 258
242 86 m 256
 281 86 331 115 379 166 c 257
 421 431 l 257
 388 433 361 434 345 434 c 256
 230 434 173 361 173 215 c 256
 173 128 196 86 242 86 c 256
  PathStart: -2
EndSplineSet
PickledDataWithLists: "(dp0
Vcom.schriftgestaltung.Glyphs.lastChange
p1
V2016-06-09 18:35:33 +0000
p2
s."
EndChar

StartChar: d.hex
Encoding: 65549 -1 184
GlifName: d.hex
Width: 575
VWidth: 0
Flags: HW
LayerCount: 2
Fore
SplineSet
214 875 m 258
 214 829 l 258
 214 812 205 804 189 804 c 258
 154 804 l 258
 137 804 129 813 129 829 c 258
 129 875 l 258
 129 891 138 900 154 900 c 258
 189 900 l 258
 205 900 214 891 214 875 c 258
358 875 m 258
 358 829 l 258
 358 812 349 804 333 804 c 258
 298 804 l 258
 281 804 273 813 273 829 c 258
 273 875 l 258
 273 891 282 900 298 900 c 258
 333 900 l 258
 349 900 358 891 358 875 c 258
646 875 m 258
 646 829 l 258
 646 812 637 804 621 804 c 258
 586 804 l 258
 569 804 561 813 561 829 c 258
 561 875 l 258
 561 891 570 900 586 900 c 258
 621 900 l 258
 637 900 646 891 646 875 c 258
EndSplineSet
Refer: 183 100 N 1 0 0 1 0 0 2
PickledDataWithLists: "(dp0
Vcom.schriftgestaltung.Glyphs.lastChange
p1
V2016-06-09 18:35:34 +0000
p2
s."
EndChar

StartChar: dagger
Encoding: 8224 8224 185
GlifName: dagger
Width: 575
VWidth: 0
Flags: HW
LayerCount: 2
Fore
SplineSet
579 545 m 257
 579 546 l 257
 576 524 562 512 540 512 c 258
 380 512 l 257
 281 -116 l 258
 277 -137 263 -149 242 -149 c 258
 207 -149 l 258
 184 -149 172 -134 176 -112 c 258
 274 512 l 257
 117 512 l 258
 95 512 83 526 86 548 c 257
 86 549 l 257
 91 575 l 257
 91 574 l 257
 94 596 108 609 130 609 c 258
 290 609 l 257
 318 786 l 258
 322 807 337 819 357 819 c 258
 392 819 l 258
 415 819 427 805 423 782 c 258
 396 609 l 257
 553 609 l 258
 575 609 587 596 584 573 c 257
 584 572 l 257
 579 545 l 257
EndSplineSet
PickledDataWithLists: "(dp0
Vcom.schriftgestaltung.Glyphs.lastChange
p1
V2015-12-22 14:26:24 +0000
p2
s."
EndChar

StartChar: daggerdbl
Encoding: 8225 8225 186
GlifName: daggerdbl
Width: 575
VWidth: 0
Flags: HW
LayerCount: 2
Fore
SplineSet
396 599 m 257
 553 599 l 258
 575 599 587 586 584 563 c 257
 584 562 l 257
 579 535 l 257
 576 514 562 502 540 502 c 258
 380 502 l 257
 324 148 l 257
 481 148 l 258
 504 148 516 134 512 111 c 258
 508 86 l 258
 505 64 491 52 469 52 c 258
 309 52 l 257
 281 -126 l 258
 277 -147 264 -159 242 -159 c 258
 207 -159 l 258
 184 -159 172 -144 176 -122 c 258
 203 52 l 257
 46 52 l 258
 24 52 12 66 15 89 c 258
 19 115 l 257
 23 136 37 148 58 148 c 258
 218 148 l 257
 274 502 l 257
 117 502 l 258
 95 502 83 516 86 538 c 257
 86 539 l 257
 91 565 l 257
 94 586 109 599 130 599 c 258
 290 599 l 257
 318 776 l 258
 322 797 337 809 357 809 c 258
 392 809 l 258
 415 809 427 795 423 772 c 258
 396 599 l 257
EndSplineSet
PickledDataWithLists: "(dp0
Vcom.schriftgestaltung.Glyphs.lastChange
p1
V2015-12-22 14:32:11 +0000
p2
s."
EndChar

StartChar: degree
Encoding: 176 176 189
GlifName: degree
Width: 575
VWidth: 0
Flags: HW
LayerCount: 2
Fore
SplineSet
137 508 m 256
 137 629 240 730 364 730 c 256
 460 730 527 664 527 570 c 256
 527 449 426 346 306 346 c 256
 206 346 137 412 137 508 c 256
  PathStart: -2
243 519 m 256
 243 473 272 443 315 443 c 256
 372 443 421 496 421 558 c 256
 421 603 392 633 349 633 c 256
 291 633 243 581 243 519 c 256
  PathStart: -2
EndSplineSet
PickledDataWithLists: "(dp0
Vcom.schriftgestaltung.Glyphs.lastChange
p1
V2016-05-30 08:37:06 +0000
p2
s."
EndChar

StartChar: delta
Encoding: 948 948 190
GlifName: delta
Width: 575
VWidth: 0
Flags: HW
LayerCount: 2
Fore
SplineSet
154 202 m 256
 154 125 191 82 255 82 c 256
 354 82 417 166 417 298 c 256
 417 326 413 355 405 383 c 257
 370 390 338 393 308 393 c 256
 217 393 154 315 154 202 c 256
  PathStart: -2
536 623 m 258
 352 623 l 257
 459 534 522 414 522 296 c 256
 522 110 411 -15 243 -15 c 256
 120 -15 48 61 48 188 c 256
 48 367 159 491 320 491 c 256
 332 491 342 491 352 490 c 257
 316 539 269 582 213 615 c 257
 198 623 192 637 194 655 c 258
 199 687 l 258
 203 708 218 720 238 720 c 258
 548 720 l 258
 571 720 583 705 579 684 c 257
 575 657 l 258
 572 636 557 623 536 623 c 258
EndSplineSet
PickledDataWithLists: "(dp0
Vcom.schriftgestaltung.Glyphs.lastChange
p1
V2016-05-30 08:32:37 +0000
p2
s."
EndChar

StartChar: dieresis
Encoding: 168 168 191
GlifName: dieresis
Width: 575
VWidth: 0
Flags: HW
AnchorPoint: "top" 328 500 mark 0
LayerCount: 2
Fore
SplineSet
324 675 m 258
 317 629 l 258
 314 612 305 604 288 604 c 258
 253 604 l 258
 237 604 229 613 232 629 c 258
 239 675 l 258
 242 691 252 700 268 700 c 258
 303 700 l 258
 320 700 327 691 324 675 c 258
531 675 m 258
 524 629 l 258
 521 612 511 604 495 604 c 258
 460 604 l 258
 443 604 436 613 439 629 c 258
 446 675 l 258
 449 691 459 700 475 700 c 258
 510 700 l 258
 526 700 534 691 531 675 c 258
EndSplineSet
PickledDataWithLists: "(dp0
Vcom.schriftgestaltung.Glyphs.lastChange
p1
V2015-12-22 16:32:41 +0000
p2
s."
EndChar

StartChar: divide
Encoding: 247 247 192
GlifName: divide
Width: 575
VWidth: 0
Flags: HW
LayerCount: 2
Fore
SplineSet
377 495 m 257
 370 449 l 257
 367 428 350 414 329 414 c 257
 294 414 l 257
 274 414 262 429 265 449 c 257
 272 495 l 257
 275 515 293 530 313 530 c 257
 348 530 l 257
 369 530 380 515 377 495 c 257
310 72 m 257
 303 25 l 257
 299 4 283 -10 262 -10 c 257
 227 -10 l 257
 207 -10 194 4 198 25 c 257
 205 72 l 257
 208 92 226 107 246 107 c 257
 281 107 l 257
 302 107 313 92 310 72 c 257
73 247 m 257
 77 273 l 257
 80 294 98 309 118 309 c 257
 473 309 l 257
 494 309 505 294 502 274 c 257
 498 247 l 257
 495 227 478 212 457 212 c 257
 102 212 l 257
 82 212 70 227 73 247 c 257
EndSplineSet
PickledDataWithLists: "(dp0
Vcom.schriftgestaltung.Glyphs.lastChange
p1
V2015-12-22 14:06:58 +0000
p2
s."
EndChar

StartChar: dkshade
Encoding: 9619 9619 193
GlifName: dkshade
Width: 575
VWidth: 0
Flags: HW
LayerCount: 2
Fore
SplineSet
0 -250 m 257
 0 -194 l 257
 28 -250 l 257
 0 -250 l 257
71 -250 m 257
 0 -108 l 257
 0 -52 l 257
 99 -250 l 257
 71 -250 l 257
142 -250 m 257
 0 34 l 257
 0 90 l 257
 170 -250 l 257
 142 -250 l 257
213 -250 m 257
 0 176 l 257
 0 232 l 257
 241 -250 l 257
 213 -250 l 257
284 -250 m 257
 0 318 l 257
 0 374 l 257
 312 -250 l 257
 284 -250 l 257
355 -250 m 257
 0 460 l 257
 0 516 l 257
 383 -250 l 257
 355 -250 l 257
426 -250 m 257
 0 602 l 257
 0 658 l 257
 454 -250 l 257
 426 -250 l 257
497 -250 m 257
 0 744 l 257
 0 800 l 257
 525 -250 l 257
 497 -250 l 257
575 -250 m 257
 0 900 l 257
 28 900 l 257
 575 -194 l 257
 575 -250 l 257
575 -108 m 257
 71 900 l 257
 99 900 l 257
 575 -52 l 257
 575 -108 l 257
575 34 m 257
 142 900 l 257
 170 900 l 257
 575 90 l 257
 575 34 l 257
575 176 m 257
 213 900 l 257
 241 900 l 257
 575 232 l 257
 575 176 l 257
575 318 m 257
 284 900 l 257
 312 900 l 257
 575 374 l 257
 575 318 l 257
575 460 m 257
 355 900 l 257
 383 900 l 257
 575 516 l 257
 575 460 l 257
575 602 m 257
 426 900 l 257
 454 900 l 257
 575 658 l 257
 575 602 l 257
575 744 m 257
 497 900 l 257
 525 900 l 257
 575 800 l 257
 575 744 l 257
EndSplineSet
PickledDataWithLists: "(dp0
Vcom.schriftgestaltung.Glyphs.lastChange
p1
V2016-06-10 08:26:49 +0000
p2
s."
EndChar

StartChar: dnblock
Encoding: 9604 9604 194
GlifName: dnblock
Width: 575
VWidth: 0
Flags: HW
LayerCount: 2
Fore
SplineSet
0 -250 m 257
 0 325 l 257
 575 325 l 257
 575 -250 l 257
 0 -250 l 257
EndSplineSet
PickledDataWithLists: "(dp0
Vcom.schriftgestaltung.Glyphs.lastChange
p1
V2016-06-10 08:26:49 +0000
p2
s."
EndChar

StartChar: dollar
Encoding: 36 36 195
GlifName: dollar
Width: 575
VWidth: 0
Flags: HW
LayerCount: 2
Fore
SplineSet
517 197 m 256
 517 91 434 15 298 -5 c 257
 273 -167 l 258
 269 -188 255 -200 234 -200 c 258
 199 -200 l 258
 176 -200 164 -186 168 -163 c 258
 192 -10 l 257
 153 -9 93 -6 41 3 c 256
 19 7 10 24 19 47 c 258
 29 73 l 258
 36 92 51 102 72 99 c 258
 73 99 l 257
 131 88 201 87 230 87 c 256
 341 87 411 127 411 187 c 256
 411 231 372 257 290 266 c 256
 140 282 77 327 77 423 c 256
 77 535 157 610 293 626 c 257
 318 787 l 258
 322 808 336 820 357 820 c 258
 392 820 l 258
 415 820 427 806 423 783 c 258
 399 629 l 257
 432 627 473 624 511 618 c 257
 512 618 l 257
 533 612 541 594 532 573 c 258
 521 547 l 258
 514 528 498 519 477 523 c 256
 429 532 366 534 342 534 c 256
 241 534 184 500 184 441 c 256
 184 394 217 373 304 363 c 256
 447 347 517 293 517 197 c 256
  PathStart: -2
EndSplineSet
PickledDataWithLists: "(dp0
Vcom.schriftgestaltung.Glyphs.lastChange
p1
V2015-12-22 14:03:19 +0000
p2
s."
EndChar

StartChar: dotaccent
Encoding: 729 729 196
GlifName: dotaccent
Width: 575
VWidth: 0
Flags: HW
AnchorPoint: "top" 363 500 mark 0
LayerCount: 2
Fore
SplineSet
413 675 m 258
 402 608 l 258
 400 592 390 583 373 583 c 258
 298 583 l 258
 282 583 275 592 277 608 c 258
 288 675 l 258
 290 691 301 700 317 700 c 258
 392 700 l 258
 409 700 415 691 413 675 c 258
EndSplineSet
PickledDataWithLists: "(dp0
Vcom.schriftgestaltung.Glyphs.lastChange
p1
V2015-12-22 16:32:41 +0000
p2
s."
EndChar

StartChar: dotbelowcomb
Encoding: 803 803 197
GlifName: dotbelowcomb
Width: 575
VWidth: 0
Flags: HW
LayerCount: 2
Fore
SplineSet
132 -169 m 258
 146 -81 l 258
 149 -60 165 -46 187 -46 c 258
 292 -46 l 258
 314 -46 324 -59 321 -81 c 258
 307 -169 l 258
 304 -191 288 -204 267 -204 c 258
 162 -204 l 258
 140 -204 129 -190 132 -169 c 258
EndSplineSet
PickledDataWithLists: "(dp0
Vcom.schriftgestaltung.Glyphs.lastChange
p1
V2015-12-22 14:33:09 +0000
p2
s."
EndChar

StartChar: dotlessi
Encoding: 305 305 198
GlifName: dotlessi
Width: 575
VWidth: 0
Flags: HW
AnchorPoint: "ogonek" 499 10 basechar 0
AnchorPoint: "bottom" 259 0 basechar 0
AnchorPoint: "top" 341 570 basechar 0
LayerCount: 2
Fore
SplineSet
465 69 m 257
 470 36 l 257
 471 18 459 5 439 0 c 256
 400 -9 368 -10 348 -10 c 256
 256 -10 208 30 208 108 c 256
 208 125 210 143 214 162 c 258
 256 362 l 257
 259 374 260 384 260 394 c 256
 260 422 248 432 215 433 c 256
 192 433 171 431 151 426 c 257
 128 422 114 431 110 451 c 257
 105 484 l 257
 104 502 116 515 136 520 c 256
 175 529 207 530 227 530 c 256
 319 530 367 490 367 412 c 256
 367 395 365 377 361 358 c 258
 319 158 l 257
 316 146 315 136 315 126 c 256
 315 98 327 88 360 87 c 256
 383 87 404 89 424 94 c 257
 447 98 461 89 465 69 c 257
EndSplineSet
PickledDataWithLists: "(dp0
Vcom.schriftgestaltung.Glyphs.lastChange
p1
V2016-06-09 18:35:33 +0000
p2
s."
EndChar

StartChar: e
Encoding: 101 101 199
GlifName: e
Width: 575
VWidth: 0
Flags: HW
AnchorPoint: "ogonek" 499 10 basechar 0
AnchorPoint: "bottom" 259 0 basechar 0
AnchorPoint: "top" 351 570 basechar 0
LayerCount: 2
Fore
SplineSet
467 91 m 258
 473 67 l 258
 478 46 468 29 448 21 c 256
 397 1 338 -10 285 -10 c 256
 147 -10 63 67 63 198 c 256
 63 367 176 530 335 530 c 256
 441 530 517 453 517 341 c 256
 517 324 515 312 509 272 c 256
 506 251 489 237 468 237 c 258
 170 237 l 257
 169 229 169 221 169 214 c 256
 169 130 217 88 301 88 c 256
 340 88 379 95 425 110 c 257
 447 118 462 111 467 91 c 258
414 334 m 257
 417 392 375 434 321 434 c 256
 269 434 213 393 194 334 c 257
 414 334 l 257
  PathStart: -2
EndSplineSet
PickledDataWithLists: "(dp0
Vcom.schriftgestaltung.Glyphs.lastChange
p1
V2016-06-09 18:35:33 +0000
p2
s."
EndChar

StartChar: e.hex
Encoding: 65550 -1 200
GlifName: e.hex
Width: 575
VWidth: 0
Flags: HW
LayerCount: 2
Fore
SplineSet
214 875 m 258
 214 829 l 258
 214 812 205 804 189 804 c 258
 154 804 l 258
 137 804 129 813 129 829 c 258
 129 875 l 258
 129 891 138 900 154 900 c 258
 189 900 l 258
 205 900 214 891 214 875 c 258
502 875 m 258
 502 829 l 258
 502 812 493 804 477 804 c 258
 442 804 l 258
 425 804 417 813 417 829 c 258
 417 875 l 258
 417 891 426 900 442 900 c 258
 477 900 l 258
 493 900 502 891 502 875 c 258
358 875 m 258
 358 829 l 258
 358 812 349 804 333 804 c 258
 298 804 l 258
 281 804 273 813 273 829 c 258
 273 875 l 258
 273 891 282 900 298 900 c 258
 333 900 l 258
 349 900 358 891 358 875 c 258
EndSplineSet
Refer: 199 101 N 1 0 0 1 0 0 2
PickledDataWithLists: "(dp0
Vcom.schriftgestaltung.Glyphs.lastChange
p1
V2016-06-09 18:35:34 +0000
p2
s."
EndChar

StartChar: eight
Encoding: 56 56 207
GlifName: eight
Width: 575
VWidth: 0
Flags: HW
LayerCount: 2
Fore
SplineSet
555 580 m 256
 555 503 503 429 408 369 c 257
 467 332 518 284 518 202 c 256
 518 77 407 -10 247 -10 c 256
 121 -10 31 57 31 152 c 256
 31 230 92 303 209 368 c 257
 143 410 113 457 113 521 c 256
 113 641 220 730 361 730 c 256
 477 730 555 670 555 580 c 256
  PathStart: -2
349 634 m 256
 277 634 220 591 220 538 c 256
 220 494 256 453 330 414 c 257
 398 457 447 519 447 563 c 256
 447 605 408 634 349 634 c 256
  PathStart: -2
138 167 m 256
 138 118 184 87 259 87 c 256
 349 87 412 130 412 193 c 256
 412 244 374 284 290 325 c 257
 189 272 138 221 138 167 c 256
  PathStart: -2
EndSplineSet
PickledDataWithLists: "(dp0
Vcom.schriftgestaltung.Glyphs.lastChange
p1
V2015-12-22 20:52:45 +0000
p2
s."
EndChar

StartChar: eight.dnom
Encoding: 65551 -1 208
GlifName: eight.dnom
Width: 250
VWidth: 0
Flags: HW
LayerCount: 2
Fore
SplineSet
262 274 m 257
 257 239 232 207 193 181 c 257
 225 159 252 131 244 85 c 257
 234 22 182 -15 100 -15 c 257
 20 -15 -21 21 -11 84 c 257
 -5 123 24 151 72 179 c 257
 44 198 23 226 30 273 c 257
 39 331 87 365 161 365 c 257
 234 365 271 332 262 274 c 257
  PathStart: -2
151 307 m 257
 118 307 101 295 97 273 c 257
 92 243 114 227 144 209 c 257
 172 230 192 251 195 273 c 257
 199 295 186 307 151 307 c 257
  PathStart: -2
56 88 m 257
 51 59 68 44 110 44 c 257
 152 44 173 59 178 87 c 257
 183 121 157 135 122 151 c 257
 83 131 60 114 56 88 c 257
  PathStart: -2
EndSplineSet
PickledDataWithLists: "(dp0
Vcom.schriftgestaltung.Glyphs.Export
p1
I00
sVcom.schriftgestaltung.Glyphs.lastChange
p2
V2015-12-22 13:07:21 +0000
p3
s."
EndChar

StartChar: eight.hex
Encoding: 65552 -1 209
GlifName: eight.hex
Width: 575
VWidth: 0
Flags: HW
LayerCount: 2
Fore
SplineSet
214 875 m 258
 214 829 l 258
 214 812 205 804 189 804 c 258
 154 804 l 258
 137 804 129 813 129 829 c 258
 129 875 l 258
 129 891 138 900 154 900 c 258
 189 900 l 258
 205 900 214 891 214 875 c 258
EndSplineSet
Refer: 207 56 N 1 0 0 1 0 0 2
PickledDataWithLists: "(dp0
Vcom.schriftgestaltung.Glyphs.lastChange
p1
V2016-02-10 13:40:53 +0000
p2
s."
EndChar

StartChar: emdash
Encoding: 8212 8212 213
GlifName: emdash
Width: 575
VWidth: 0
Flags: HW
LayerCount: 2
Fore
SplineSet
-2 249 m 258
 2 275 l 258
 5 296 20 309 41 309 c 258
 546 309 l 258
 568 309 580 295 577 273 c 258
 573 246 l 258
 570 225 555 212 534 212 c 258
 29 212 l 258
 7 212 -6 226 -2 249 c 258
EndSplineSet
PickledDataWithLists: "(dp0
Vcom.schriftgestaltung.Glyphs.lastChange
p1
V2016-05-22 17:00:36 +0000
p2
s."
EndChar

StartChar: emptyset
Encoding: 8709 8709 214
GlifName: emptyset
Width: 575
VWidth: 0
Flags: HW
LayerCount: 2
Fore
SplineSet
600 474 m 257
 509 395 l 257
 524 361 529 319 522 275 c 257
 502 145 381 40 253 40 c 257
 209 40 168 52 137 74 c 257
 51 0 l 257
 35 -15 14 -15 2 0 c 257
 -22 28 l 257
 -33 43 -30 63 -14 77 c 257
 72 151 l 257
 56 186 50 230 57 275 c 257
 78 405 198 510 328 510 c 257
 373 510 414 497 446 474 c 257
 535 551 l 257
 552 566 573 566 584 551 c 257
 607 523 l 257
 621 509 617 489 600 474 c 257
162 229 m 257
 355 396 l 257
 342 402 328 405 311 405 c 257
 240 405 173 347 161 275 c 257
 159 258 159 243 162 229 c 257
418 317 m 257
 228 152 l 257
 240 148 254 146 270 146 c 257
 341 146 407 203 418 275 c 257
 421 290 421 304 418 317 c 257
EndSplineSet
PickledDataWithLists: "(dp0
Vcom.schriftgestaltung.Glyphs.lastChange
p1
V2015-12-22 14:07:55 +0000
p2
s."
EndChar

StartChar: endash
Encoding: 8211 8211 215
GlifName: endash
Width: 575
VWidth: 0
Flags: HW
LayerCount: 2
Fore
SplineSet
148 249 m 258
 152 275 l 258
 155 296 170 309 191 309 c 258
 396 309 l 258
 418 309 430 295 427 273 c 258
 423 246 l 258
 420 225 405 212 384 212 c 258
 179 212 l 258
 157 212 144 226 148 249 c 258
EndSplineSet
PickledDataWithLists: "(dp0
Vcom.schriftgestaltung.Glyphs.lastChange
p1
V2016-05-22 12:19:24 +0000
p2
s."
EndChar

StartChar: epsilon
Encoding: 949 949 217
GlifName: epsilon
Width: 575
VWidth: 0
Flags: HW
LayerCount: 2
Fore
SplineSet
470 64 m 258
 473 37 l 257
 473 14 460 -1 440 -4 c 257
 402 -10 352 -13 300 -13 c 256
 139 -13 54 30 54 116 c 256
 54 184 99 233 182 259 c 257
 129 279 102 313 102 360 c 256
 102 465 212 530 383 530 c 256
 435 530 484 527 519 521 c 257
 541 518 551 500 542 477 c 258
 531 450 l 257
 522 431 507 422 488 425 c 257
 487 425 l 257
 464 430 423 433 371 434 c 256
 269 434 209 411 209 373 c 256
 209 335 267 307 348 307 c 256
 370 307 382 293 379 271 c 258
 375 243 l 257
 371 222 356 210 336 210 c 256
 242 210 160 172 160 130 c 256
 160 101 212 83 312 83 c 256
 365 84 406 87 431 92 c 257
 432 92 l 258
 453 95 467 85 470 64 c 258
EndSplineSet
PickledDataWithLists: "(dp0
Vcom.schriftgestaltung.Glyphs.lastChange
p1
V2016-05-30 08:32:45 +0000
p2
s."
EndChar

StartChar: equal
Encoding: 61 61 218
GlifName: equal
Width: 575
VWidth: 0
Flags: HW
LayerCount: 2
Fore
SplineSet
57 362 m 257
 61 388 l 257
 65 409 82 424 102 424 c 257
 525 424 l 257
 546 424 558 409 554 389 c 257
 550 362 l 257
 547 342 531 327 510 327 c 257
 87 327 l 257
 67 327 54 342 57 362 c 257
21 132 m 257
 25 158 l 257
 28 179 46 194 66 194 c 257
 489 194 l 257
 510 194 521 179 518 159 c 257
 514 132 l 257
 511 112 494 97 473 97 c 257
 50 97 l 257
 30 97 18 112 21 132 c 257
EndSplineSet
PickledDataWithLists: "(dp0
Vcom.schriftgestaltung.Glyphs.lastChange
p1
V2015-12-22 14:08:13 +0000
p2
s."
EndChar

StartChar: equivalence
Encoding: 8801 8801 219
GlifName: equivalence
Width: 575
VWidth: 0
Flags: HW
LayerCount: 2
Fore
SplineSet
448 60 m 257
 63 60 l 257
 43 60 31 75 34 95 c 257
 38 122 l 257
 41 142 59 157 79 157 c 257
 464 157 l 257
 485 157 496 142 493 122 c 257
 489 95 l 257
 486 75 469 60 448 60 c 257
472 212 m 257
 87 212 l 257
 67 212 55 227 58 247 c 257
 62 274 l 257
 65 294 83 309 103 309 c 257
 488 309 l 257
 509 309 520 294 517 274 c 257
 513 247 l 257
 510 227 493 212 472 212 c 257
496 363 m 257
 111 363 l 257
 91 363 79 378 82 398 c 257
 86 425 l 257
 89 445 107 460 127 460 c 257
 512 460 l 257
 533 460 544 445 541 425 c 257
 537 398 l 257
 534 378 517 363 496 363 c 257
EndSplineSet
PickledDataWithLists: "(dp0
Vcom.schriftgestaltung.Glyphs.lastChange
p1
V2015-12-22 14:08:32 +0000
p2
s."
EndChar

StartChar: eta
Encoding: 951 951 220
GlifName: eta
Width: 575
VWidth: 0
Flags: HW
AnchorPoint: "top" 341 520 basechar 0
LayerCount: 2
Fore
SplineSet
39 37 m 258
 110 482 l 258
 113 501 125 514 145 518 c 257
 146 518 l 257
 221 529 286 530 319 530 c 256
 453 530 514 482 514 376 c 256
 514 360 512 340 509 316 c 258
 425 -217 l 258
 421 -238 407 -250 386 -250 c 258
 351 -250 l 258
 328 -250 316 -235 320 -213 c 258
 404 319 l 258
 406 334 408 347 408 358 c 256
 408 413 381 434 307 434 c 256
 285 434 249 433 208 431 c 257
 144 34 l 258
 141 12 127 0 105 0 c 258
 70 0 l 258
 48 0 36 14 39 37 c 258
EndSplineSet
PickledDataWithLists: "(dp0
Vcom.schriftgestaltung.Glyphs.lastChange
p1
V2016-05-30 08:32:52 +0000
p2
s."
EndChar

StartChar: eth
Encoding: 240 240 221
GlifName: eth
Width: 575
VWidth: 0
Flags: HW
LayerCount: 2
Fore
SplineSet
601 636 m 258
 606 611 l 258
 610 591 599 573 578 567 c 258
 534 551 l 257
 544 513 549 470 549 424 c 256
 549 195 456 -10 249 -10 c 256
 133 -10 59 64 59 175 c 256
 59 323 175 449 320 449 c 256
 365 449 405 437 443 412 c 257
 445 452 442 487 435 517 c 257
 336 484 l 257
 315 476 299 484 294 504 c 257
 294 505 l 257
 290 528 l 257
 286 550 296 568 317 574 c 258
 393 600 l 257
 374 617 351 628 324 631 c 257
 325 631 l 257
 304 632 294 645 297 666 c 258
 303 695 l 258
 306 717 323 730 345 729 c 257
 409 722 461 690 497 636 c 257
 559 657 l 258
 580 665 596 657 601 636 c 258
166 188 m 256
 166 124 201 88 262 88 c 256
 346 88 410 168 433 302 c 257
 382 349 336 351 308 351 c 256
 221 351 166 272 166 188 c 256
  PathStart: -2
EndSplineSet
PickledDataWithLists: "(dp0
Vcom.schriftgestaltung.Glyphs.lastChange
p1
V2016-06-09 18:35:33 +0000
p2
s."
EndChar

StartChar: exclam
Encoding: 33 33 222
GlifName: exclam
Width: 575
VWidth: 0
Flags: HW
LayerCount: 2
Fore
SplineSet
333 720 m 257
 388 720 l 257
 409 720 420 705 417 685 c 257
 337 240 l 257
 334 220 315 205 295 205 c 257
 262 205 l 257
 242 205 230 220 233 240 c 257
 292 685 l 257
 295 705 313 720 333 720 c 257
310 72 m 257
 303 25 l 257
 299 4 283 -10 262 -10 c 257
 227 -10 l 257
 207 -10 194 4 198 25 c 257
 205 72 l 257
 208 92 226 107 246 107 c 257
 281 107 l 257
 302 107 313 92 310 72 c 257
EndSplineSet
PickledDataWithLists: "(dp0
Vcom.schriftgestaltung.Glyphs.lastChange
p1
V2016-02-14 11:57:10 +0000
p2
s."
EndChar

StartChar: f
Encoding: 102 102 225
GlifName: f
Width: 575
VWidth: 0
Flags: HW
LayerCount: 2
Fore
SplineSet
227 520 m 257
 233 561 l 258
 260 726 361 783 459 783 c 256
 495 783 533 775 564 762 c 257
 585 756 588 734 579 716 c 258
 564 690 l 258
 553 672 534 664 516 672 c 257
 491 681 471 685 447 685 c 256
 394 685 355 659 339 558 c 258
 334 520 l 257
 485 520 l 258
 506 520 518 504 516 483 c 258
 512 457 l 258
 508 438 493 424 473 424 c 258
 318 424 l 257
 251 9 l 258
 233 -113 199 -160 92 -217 c 256
 73 -227 52 -222 44 -203 c 258
 32 -173 l 257
 23 -154 33 -134 51 -125 c 256
 116 -90 134 -65 146 12 c 258
 212 424 l 257
 128 424 l 258
 108 424 93 439 97 461 c 258
 101 486 l 258
 104 506 120 520 140 520 c 258
 227 520 l 257
EndSplineSet
PickledDataWithLists: "(dp0
Vcom.schriftgestaltung.Glyphs.lastChange
p1
V2016-06-09 18:35:33 +0000
p2
s."
EndChar

StartChar: f.hex
Encoding: 65557 -1 226
GlifName: f.hex
Width: 575
VWidth: 0
Flags: HW
LayerCount: 2
Fore
SplineSet
214 875 m 258
 214 829 l 258
 214 812 205 804 189 804 c 258
 154 804 l 258
 137 804 129 813 129 829 c 258
 129 875 l 258
 129 891 138 900 154 900 c 258
 189 900 l 258
 205 900 214 891 214 875 c 258
502 875 m 258
 502 829 l 258
 502 812 493 804 477 804 c 258
 442 804 l 258
 425 804 417 813 417 829 c 258
 417 875 l 258
 417 891 426 900 442 900 c 258
 477 900 l 258
 493 900 502 891 502 875 c 258
358 875 m 258
 358 829 l 258
 358 812 349 804 333 804 c 258
 298 804 l 258
 281 804 273 813 273 829 c 258
 273 875 l 258
 273 891 282 900 298 900 c 258
 333 900 l 258
 349 900 358 891 358 875 c 258
646 875 m 258
 646 829 l 258
 646 812 637 804 621 804 c 258
 586 804 l 258
 569 804 561 813 561 829 c 258
 561 875 l 258
 561 891 570 900 586 900 c 258
 621 900 l 258
 637 900 646 891 646 875 c 258
EndSplineSet
Refer: 225 102 N 1 0 0 1 0 0 2
PickledDataWithLists: "(dp0
Vcom.schriftgestaltung.Glyphs.lastChange
p1
V2016-06-09 18:35:34 +0000
p2
s."
EndChar

StartChar: five
Encoding: 53 53 227
GlifName: five
Width: 575
VWidth: 0
Flags: HW
LayerCount: 2
Fore
SplineSet
252 451 m 257
 292 451 l 258
 431 451 501 389 501 264 c 256
 501 91 391 -10 205 -10 c 256
 162 -10 121 -5 83 4 c 256
 63 10 56 28 65 49 c 258
 77 77 l 258
 86 96 103 104 122 99 c 256
 152 92 184 88 217 88 c 256
 329 88 394 146 394 246 c 256
 394 320 358 354 279 354 c 258
 214 354 l 257
 166 361 l 258
 144 364 134 379 139 401 c 258
 207 689 l 258
 211 708 226 720 247 720 c 258
 502 720 l 258
 525 720 537 706 533 683 c 258
 529 658 l 258
 526 636 512 624 490 624 c 258
 292 624 l 257
 252 451 l 257
EndSplineSet
PickledDataWithLists: "(dp0
Vcom.schriftgestaltung.Glyphs.lastChange
p1
V2015-12-22 20:52:19 +0000
p2
s."
EndChar

StartChar: five.dnom
Encoding: 65558 -1 228
GlifName: five.dnom
Width: 250
VWidth: 0
Flags: HW
LayerCount: 2
Fore
SplineSet
101 216 m 257
 122 216 l 258
 206 216 247 174 235 101 c 256
 224 27 168 -15 81 -15 c 256
 59 -15 37 -13 19 -8 c 256
 6 -4 1 9 6 21 c 258
 12 35 l 258
 17 45 33 53 45 50 c 256
 59 46 73 44 90 44 c 256
 137 44 162 63 168 101 c 256
 174 139 156 157 112 157 c 258
 80 157 l 258
 70 157 62 162 58 167 c 257
 40 191 l 257
 34 198 32 206 35 215 c 258
 72 340 l 258
 76 352 90 360 101 360 c 258
 238 360 l 258
 252 360 261 350 259 338 c 258
 257 325 l 258
 255 314 244 302 229 302 c 258
 128 302 l 257
 101 216 l 257
EndSplineSet
PickledDataWithLists: "(dp0
Vcom.schriftgestaltung.Glyphs.Export
p1
I00
sVcom.schriftgestaltung.Glyphs.lastChange
p2
V2015-12-22 13:06:15 +0000
p3
s."
EndChar

StartChar: five.hex
Encoding: 65559 -1 229
GlifName: five.hex
Width: 575
VWidth: 0
Flags: HW
LayerCount: 2
Fore
SplineSet
358 875 m 258
 358 829 l 258
 358 812 349 804 333 804 c 258
 298 804 l 258
 281 804 273 813 273 829 c 258
 273 875 l 258
 273 891 282 900 298 900 c 258
 333 900 l 258
 349 900 358 891 358 875 c 258
646 875 m 258
 646 829 l 258
 646 812 637 804 621 804 c 258
 586 804 l 258
 569 804 561 813 561 829 c 258
 561 875 l 258
 561 891 570 900 586 900 c 258
 621 900 l 258
 637 900 646 891 646 875 c 258
EndSplineSet
Refer: 227 53 N 1 0 0 1 0 0 2
PickledDataWithLists: "(dp0
Vcom.schriftgestaltung.Glyphs.lastChange
p1
V2016-02-10 13:20:16 +0000
p2
s."
EndChar

StartChar: florin
Encoding: 402 402 232
GlifName: florin
Width: 575
VWidth: 0
Flags: HW
LayerCount: 2
Fore
SplineSet
182 520 m 257
 197 611 l 258
 218 732 282 780 401 780 c 256
 429 780 474 778 524 769 c 256
 545 765 554 746 545 725 c 258
 534 699 l 258
 527 681 509 672 490 674 c 257
 446 682 409 684 388 684 c 256
 334 684 313 667 302 607 c 258
 287 520 l 257
 439 520 l 258
 460 520 473 504 469 483 c 258
 465 457 l 258
 461 438 446 424 425 424 c 258
 269 424 l 257
 183 -66 l 257
 180 -88 163 -100 144 -100 c 258
 109 -100 l 258
 88 -100 76 -85 78 -63 c 257
 164 424 l 257
 81 424 l 258
 61 424 46 439 50 461 c 258
 55 487 l 258
 59 506 74 520 94 520 c 258
 182 520 l 257
EndSplineSet
PickledDataWithLists: "(dp0
Vcom.schriftgestaltung.Glyphs.lastChange
p1
V2015-12-22 12:14:05 +0000
p2
s."
EndChar

StartChar: four
Encoding: 52 52 233
GlifName: four
Width: 575
VWidth: 0
Flags: HW
LayerCount: 2
Fore
SplineSet
438 241 m 257
 482 241 l 257
 503 241 515 226 511 206 c 257
 507 180 l 257
 504 160 488 145 467 145 c 257
 422 145 l 257
 404 35 l 257
 401 15 385 0 364 0 c 257
 329 0 l 257
 309 0 297 15 300 35 c 257
 318 145 l 257
 79 145 l 257
 59 145 47 159 50 179 c 257
 57 219 l 257
 59 232 63 243 70 254 c 257
 357 691 l 257
 369 711 385 720 408 720 c 257
 444 720 l 257
 469 720 481 699 465 676 c 257
 178 241 l 257
 333 241 l 257
 358 402 l 257
 362 422 379 437 399 437 c 257
 434 437 l 257
 454 437 467 422 463 402 c 257
 438 241 l 257
EndSplineSet
PickledDataWithLists: "(dp0
Vcom.schriftgestaltung.Glyphs.lastChange
p1
V2015-12-22 20:52:10 +0000
p2
s."
EndChar

StartChar: four.dnom
Encoding: 65561 -1 234
GlifName: four.dnom
Width: 250
VWidth: 0
Flags: HW
LayerCount: 2
Fore
SplineSet
208 121 m 257
 223 121 l 258
 237 121 245 109 243 98 c 258
 241 85 l 258
 239 73 227 63 213 63 c 258
 197 63 l 257
 189 13 l 257
 188 2 176 -10 162 -10 c 258
 144 -10 l 258
 129 -10 122 2 123 13 c 257
 131 63 l 257
 19 63 l 258
 6 63 -3 73 -1 85 c 258
 2 105 l 258
 3 112 5 118 9 124 c 258
 153 343 l 258
 160 353 172 360 185 360 c 258
 203 360 l 258
 220 360 228 344 218 331 c 257
 81 121 l 257
 141 121 l 257
 152 196 l 258
 154 208 168 219 181 219 c 258
 198 219 l 258
 212 219 221 208 219 196 c 258
 208 121 l 257
EndSplineSet
PickledDataWithLists: "(dp0
Vcom.schriftgestaltung.Glyphs.Export
p1
I00
sVcom.schriftgestaltung.Glyphs.lastChange
p2
V2015-12-22 13:05:53 +0000
p3
s."
EndChar

StartChar: four.hex
Encoding: 65562 -1 235
GlifName: four.hex
Width: 575
VWidth: 0
Flags: HW
LayerCount: 2
Fore
SplineSet
358 875 m 258
 358 829 l 258
 358 812 349 804 333 804 c 258
 298 804 l 258
 281 804 273 813 273 829 c 258
 273 875 l 258
 273 891 282 900 298 900 c 258
 333 900 l 258
 349 900 358 891 358 875 c 258
EndSplineSet
Refer: 233 52 N 1 0 0 1 0 0 2
PickledDataWithLists: "(dp0
Vcom.schriftgestaltung.Glyphs.lastChange
p1
V2016-02-10 13:19:53 +0000
p2
s."
EndChar

StartChar: g
Encoding: 103 103 238
GlifName: g
Width: 575
VWidth: 0
Flags: HW
AnchorPoint: "top" 351 570 basechar 0
AnchorPoint: "bottom" 259 0 basechar 0
LayerCount: 2
Fore
SplineSet
349 -27 m 258
 366 68 l 257
 313 11 260 -10 212 -10 c 256
 119 -10 67 66 67 200 c 256
 67 415 168 530 357 530 c 256
 386 530 441 528 502 520 c 257
 503 520 l 257
 524 516 535 501 532 479 c 258
 453 -30 l 258
 428 -184 358 -250 221 -250 c 256
 172 -250 121 -242 67 -236 c 256
 45 -233 37 -220 42 -195 c 258
 47 -169 l 258
 51 -149 68 -137 90 -140 c 256
 142 -148 186 -155 222 -155 c 256
 300 -155 334 -121 349 -27 c 258
379 166 m 257
 421 431 l 257
 388 433 361 434 345 434 c 256
 230 434 173 361 173 215 c 256
 173 128 196 86 242 86 c 256
 281 86 331 115 379 166 c 257
EndSplineSet
PickledDataWithLists: "(dp0
Vcom.schriftgestaltung.Glyphs.lastChange
p1
V2016-06-09 18:35:33 +0000
p2
s."
EndChar

StartChar: gamma
Encoding: 947 947 239
GlifName: gamma
Width: 575
VWidth: 0
Flags: HW
LayerCount: 2
Fore
SplineSet
91 481 m 257
 88 504 104 520 127 520 c 258
 163 520 l 258
 183 520 194 510 197 490 c 257
 234 83 l 257
 256 83 l 258
 273 83 285 91 291 107 c 258
 449 492 l 257
 455 510 470 520 489 520 c 258
 525 520 l 258
 550 520 561 503 551 478 c 258
 391 86 l 258
 366 24 313 -10 245 -10 c 258
 243 -10 l 257
 248 -72 247 -146 240 -216 c 257
 240 -217 l 257
 236 -238 221 -250 201 -250 c 258
 173 -250 l 258
 151 -250 139 -237 142 -215 c 257
 145 -167 143 -92 136 -12 c 258
 91 481 l 257
  PathStart: -2
EndSplineSet
PickledDataWithLists: "(dp0
Vcom.schriftgestaltung.Glyphs.lastChange
p1
V2016-05-30 08:32:29 +0000
p2
s."
EndChar

StartChar: germandbls
Encoding: 223 223 241
GlifName: germandbls
Width: 575
VWidth: 0
Flags: HW
AnchorPoint: "top" 341 520 basechar 0
AnchorPoint: "bottom" 259 0 basechar 0
LayerCount: 2
Fore
SplineSet
236 502 m 258
 161 34 l 258
 158 12 144 0 122 0 c 258
 87 0 l 258
 65 0 53 14 56 37 c 258
 131 506 l 258
 153 645 234 720 365 720 c 256
 473 720 532 672 532 585 c 256
 532 520 501 476 464 431 c 256
 448 411 431 391 431 375 c 256
 431 359 443 348 460 331 c 256
 484 308 516 278 516 226 c 256
 516 98 411 9 252 1 c 256
 227 0 215 14 219 38 c 258
 223 63 l 258
 226 83 239 95 261 98 c 257
 261 98 l 257
 357 104 415 150 415 219 c 256
 415 247 396 262 374 281 c 257
 351 299 324 320 324 359 c 256
 324 408 361 450 389 484 c 256
 415 516 430 531 430 562 c 256
 430 603 405 624 353 624 c 256
 288 624 248 583 236 502 c 258
EndSplineSet
PickledDataWithLists: "(dp0
Vcom.schriftgestaltung.Glyphs.lastChange
p1
V2016-06-09 18:35:34 +0000
p2
s."
EndChar

StartChar: grave
Encoding: 96 96 242
GlifName: grave
Width: 575
VWidth: 0
Flags: HW
AnchorPoint: "top" 328 500 mark 0
LayerCount: 2
Fore
SplineSet
470 595 m 258
 484 588 486 577 478 562 c 257
 467 544 l 257
 456 530 445 526 432 531 c 258
 221 606 l 258
 206 611 203 623 212 638 c 258
 242 684 l 258
 250 699 263 703 277 696 c 258
 470 595 l 258
  PathStart: -2
EndSplineSet
PickledDataWithLists: "(dp0
Vcom.schriftgestaltung.Glyphs.lastChange
p1
V2015-12-22 16:32:42 +0000
p2
s."
EndChar

StartChar: greater
Encoding: 62 62 243
GlifName: greater
Width: 575
VWidth: 0
Flags: HW
LayerCount: 2
Fore
SplineSet
189 570 m 258
 475 326 l 258
 500 305 513 277 508 250 c 256
 504 223 483 195 451 174 c 258
 89 -70 l 258
 69 -83 50 -81 40 -64 c 258
 24 -41 l 258
 14 -24 19 -5 38 8 c 258
 398 250 l 257
 115 492 l 258
 100 505 100 524 117 541 c 258
 139 564 l 257
 155 581 174 583 189 570 c 258
EndSplineSet
PickledDataWithLists: "(dp0
Vcom.schriftgestaltung.Glyphs.lastChange
p1
V2016-06-09 12:12:14 +0000
p2
s."
EndChar

StartChar: greaterequal
Encoding: 8805 8805 244
GlifName: greaterequal
Width: 575
VWidth: 0
Flags: HW
LayerCount: 2
Fore
SplineSet
181 664 m 258
 498 492 l 258
 539 469 559 440 554 409 c 256
 549 378 520 349 474 329 c 258
 102 156 l 258
 85 148 70 151 62 164 c 257
 47 196 l 257
 40 216 48 234 68 243 c 258
 430 411 l 257
 123 577 l 257
 105 589 102 607 115 626 c 258
 133 651 l 257
 133 650 l 257
 144 668 163 674 181 664 c 258
10 64 m 257
 10 63 l 257
 13 84 28 97 49 97 c 258
 472 97 l 258
 494 97 506 84 503 61 c 257
 503 60 l 257
 498 33 l 257
 498 34 l 257
 495 12 481 0 459 0 c 258
 36 0 l 258
 14 0 2 14 5 36 c 257
 5 37 l 257
 10 64 l 257
EndSplineSet
PickledDataWithLists: "(dp0
Vcom.schriftgestaltung.Glyphs.lastChange
p1
V2015-12-22 14:10:07 +0000
p2
s."
EndChar

StartChar: guillemotleft
Encoding: 171 171 245
GlifName: guillemotleft
Width: 575
VWidth: 0
Flags: HW
LayerCount: 2
Fore
SplineSet
128 260 m 257
 279 80 l 258
 292 65 289 45 271 31 c 258
 243 9 l 257
 225 -4 208 -4 195 11 c 257
 47 188 l 258
 31 207 15 229 20 260 c 256
 24 285 38 306 70 333 c 258
 273 509 l 258
 292 525 310 525 324 511 c 258
 343 490 l 258
 357 476 354 456 337 440 c 257
 128 260 l 257
364 260 m 257
 515 80 l 257
 530 65 526 45 507 31 c 257
 479 9 l 257
 461 -4 443 -4 432 11 c 258
 283 188 l 258
 267 207 251 229 256 260 c 256
 260 285 274 306 306 333 c 258
 510 509 l 257
 527 525 546 525 560 511 c 258
 579 491 l 258
 594 476 591 456 573 440 c 258
 364 260 l 257
EndSplineSet
PickledDataWithLists: "(dp0
Vcom.schriftgestaltung.Glyphs.lastChange
p1
V2015-12-22 13:55:11 +0000
p2
s."
EndChar

StartChar: guilsinglleft
Encoding: 8249 8249 247
GlifName: guilsinglleft
Width: 575
VWidth: 0
Flags: HW
LayerCount: 2
Fore
SplineSet
246 260 m 257
 397 80 l 257
 410 66 407 44 388 31 c 257
 362 9 l 257
 345 -3 325 -3 313 11 c 257
 165 188 l 257
 146 209 137 230 137 250 c 256
 137 279 155 306 188 333 c 257
 392 509 l 257
 408 524 429 524 441 511 c 257
 461 491 l 257
 475 477 472 455 455 440 c 257
 246 260 l 257
EndSplineSet
PickledDataWithLists: "(dp0
Vcom.schriftgestaltung.Glyphs.lastChange
p1
V2015-12-22 13:57:17 +0000
p2
s."
EndChar

StartChar: h
Encoding: 104 104 249
GlifName: h
Width: 575
VWidth: 0
Flags: HW
AnchorPoint: "center" 288 250 basechar 0
AnchorPoint: "top" 408 620 basechar 0
LayerCount: 2
Fore
SplineSet
259 733 m 258
 213 452 l 257
 267 510 316 530 372 530 c 256
 464 530 507 476 507 369 c 256
 507 343 504 315 500 286 c 258
 460 34 l 258
 457 12 443 0 421 0 c 258
 386 0 l 258
 364 0 352 14 355 37 c 258
 395 290 l 258
 399 316 401 337 401 354 c 256
 401 412 388 434 343 434 c 256
 295 434 251 408 199 354 c 257
 148 34 l 258
 145 13 130 0 109 0 c 258
 74 0 l 258
 52 0 40 14 43 37 c 258
 153 732 l 258
 158 755 172 770 191 770 c 258
 228 770 l 258
 251 770 263 755 259 733 c 258
EndSplineSet
PickledDataWithLists: "(dp0
Vcom.schriftgestaltung.Glyphs.lastChange
p1
V2016-06-09 18:35:33 +0000
p2
s."
EndChar

StartChar: heart
Encoding: 9829 9829 251
GlifName: heart
Width: 575
VWidth: 0
Flags: HW
LayerCount: 2
Fore
SplineSet
175 530 m 256
 226 530 268 499 288 460 c 257
 308 499 351 530 400 530 c 256
 481 530 540 457 540 373 c 256
 540 251 445 120 288 -20 c 257
 126 124 36 255 36 373 c 256
 36 462 96 530 175 530 c 256
EndSplineSet
PickledDataWithLists: "(dp0
Vcom.schriftgestaltung.Glyphs.lastChange
p1
V2016-06-10 08:28:00 +0000
p2
s."
Comment: "+AAoA    heart+AAoA  "
EndChar

StartChar: hungarumlaut
Encoding: 733 733 252
GlifName: hungarumlaut
Width: 575
VWidth: 0
Flags: HW
AnchorPoint: "top" 331 500 mark 0
LayerCount: 2
Fore
SplineSet
359 691 m 258
 386 659 l 258
 395 648 393 635 379 624 c 258
 262 532 l 258
 248 521 236 522 227 533 c 258
 210 553 l 258
 201 564 203 576 216 588 c 258
 324 690 l 258
 337 702 349 703 359 691 c 258
588 691 m 258
 614 659 l 258
 624 648 621 635 607 624 c 258
 491 532 l 258
 477 521 465 522 456 533 c 258
 439 553 l 258
 430 564 431 576 444 588 c 258
 553 690 l 258
 566 702 578 703 588 691 c 258
EndSplineSet
PickledDataWithLists: "(dp0
Vcom.schriftgestaltung.Glyphs.lastChange
p1
V2015-12-22 16:32:42 +0000
p2
s."
EndChar

StartChar: hyphen
Encoding: 45 45 253
GlifName: hyphen
Width: 575
VWidth: 0
Flags: HW
LayerCount: 2
Fore
SplineSet
38 237 m 257
 42 263 l 257
 46 284 63 299 83 299 c 257
 506 299 l 257
 526 299 539 284 536 264 c 257
 531 237 l 257
 528 217 511 202 491 202 c 257
 68 202 l 257
 48 202 35 217 38 237 c 257
EndSplineSet
PickledDataWithLists: "(dp0
Vcom.schriftgestaltung.Glyphs.lastChange
p1
V2015-12-22 16:32:53 +0000
p2
s."
EndChar

StartChar: i
Encoding: 105 105 254
GlifName: i
Width: 575
VWidth: 0
Flags: HW
LayerCount: 2
Fore
SplineSet
377 644 m 258
 312 644 l 258
 290 644 278 658 281 681 c 257
 292 746 l 258
 295 767 310 780 331 780 c 258
 396 780 l 258
 419 780 431 766 427 743 c 258
 416 678 l 258
 413 656 399 644 377 644 c 258
EndSplineSet
Refer: 198 305 N 1 0 0 1 0 0 2
PickledDataWithLists: "(dp0
Vcom.schriftgestaltung.Glyphs.lastChange
p1
V2016-06-09 18:35:33 +0000
p2
s."
EndChar

StartChar: ij
Encoding: 307 307 259
GlifName: ij
Width: 575
VWidth: 0
Flags: HW
LayerCount: 2
Fore
SplineSet
319 654 m 257
 284 654 l 257
 264 654 251 669 255 689 c 257
 262 735 l 257
 265 755 282 770 302 770 c 257
 337 770 l 257
 358 770 370 755 367 735 c 257
 360 689 l 257
 356 668 340 654 319 654 c 257
512 770 m 257
 547 770 l 257
 567 770 580 756 577 735 c 257
 570 689 l 257
 566 669 550 654 529 654 c 257
 494 654 l 257
 474 654 461 669 465 689 c 257
 472 735 l 257
 475 755 492 770 512 770 c 257
158 520 m 257
 513 520 l 257
 531 520 540 504 537 485 c 257
 466 34 l 257
 436 -157 328 -248 140 -248 c 257
 112 -248 70 -246 22 -237 c 257
 3 -233 -7 -215 2 -194 c 257
 13 -169 l 257
 21 -149 40 -138 59 -142 c 257
 100 -150 133 -151 155 -151 c 257
 282 -151 341 -91 361 34 c 257
 423 424 l 257
 318 424 l 257
 256 35 l 257
 253 15 236 0 215 0 c 257
 180 0 l 257
 160 0 148 15 151 35 c 257
 213 424 l 257
 143 424 l 257
 123 424 110 439 113 459 c 257
 117 485 l 257
 121 506 138 520 158 520 c 257
EndSplineSet
PickledDataWithLists: "(dp0
Vcom.schriftgestaltung.Glyphs.lastChange
p1
V2016-06-09 18:35:33 +0000
p2
s."
EndChar

StartChar: infinity
Encoding: 8734 8734 261
GlifName: infinity
Width: 575
VWidth: 0
Flags: HW
LayerCount: 2
Fore
SplineSet
180 413 m 256
 228 413 266 386 294 334 c 257
 340 392 383 418 434 418 c 256
 504 418 546 369 546 289 c 256
 546 176 474 80 388 80 c 256
 341 80 302 110 272 167 c 257
 233 111 190 85 136 85 c 256
 71 85 30 133 30 210 c 256
 30 323 96 413 180 413 c 256
  PathStart: -2
121 213 m 256
 121 184 129 172 147 172 c 256
 177 172 210 202 244 263 c 257
 227 301 199 325 172 325 c 256
 142 325 121 278 121 213 c 256
  PathStart: -2
392 167 m 256
 429 167 455 215 455 284 c 256
 455 317 444 331 421 331 c 256
 389 331 359 304 320 241 c 257
 343 189 365 167 392 167 c 256
  PathStart: -2
EndSplineSet
PickledDataWithLists: "(dp0
Vcom.schriftgestaltung.Glyphs.lastChange
p1
V2015-12-22 14:13:58 +0000
p2
s."
EndChar

StartChar: integral
Encoding: 8747 8747 262
GlifName: integral
Width: 575
VWidth: 0
Flags: HW
LayerCount: 2
Fore
SplineSet
-6 -106 m 258
 7 -80 l 258
 16 -61 36 -52 54 -57 c 257
 53 -57 l 257
 76 -62 99 -64 116 -64 c 256
 168 -63 187 -44 195 9 c 258
 275 511 l 258
 293 627 361 680 476 680 c 256
 496 680 527 679 564 670 c 257
 585 666 592 646 581 625 c 257
 582 626 l 257
 570 600 l 257
 569 599 l 257
 559 581 540 572 522 577 c 257
 499 582 476 584 460 584 c 256
 407 583 388 564 380 511 c 258
 300 9 l 258
 282 -107 215 -160 100 -160 c 256
 80 -160 48 -159 11 -150 c 257
 -9 -146 -16 -126 -6 -106 c 258
EndSplineSet
PickledDataWithLists: "(dp0
Vcom.schriftgestaltung.Glyphs.lastChange
p1
V2015-12-22 14:14:22 +0000
p2
s."
EndChar

StartChar: iota
Encoding: 953 953 264
GlifName: iota
Width: 575
VWidth: 0
Flags: HW
LayerCount: 2
Fore
SplineSet
415 69 m 257
 420 36 l 257
 421 18 409 5 389 0 c 256
 350 -9 318 -10 298 -10 c 256
 178 -10 131 45 149 162 c 258
 201 487 l 257
 203 508 218 521 240 521 c 258
 275 521 l 258
 297 521 309 508 306 484 c 258
 254 158 l 258
 246 104 258 88 310 87 c 256
 333 87 354 89 374 94 c 257
 397 98 411 89 415 69 c 257
EndSplineSet
PickledDataWithLists: "(dp0
Vcom.schriftgestaltung.Glyphs.lastChange
p1
V2015-12-22 12:32:48 +0000
p2
s."
EndChar

StartChar: j
Encoding: 106 106 265
GlifName: j
Width: 575
VWidth: 0
Flags: HW
LayerCount: 2
Fore
SplineSet
461 780 m 258
 526 780 l 258
 549 780 561 766 557 743 c 258
 546 678 l 258
 543 656 529 644 507 644 c 258
 442 644 l 258
 420 644 408 658 411 681 c 257
 422 746 l 258
 425 767 440 780 461 780 c 258
244 522 m 256
 288 529 320 532 348 532 c 256
 460 532 514 481 514 375 c 256
 514 354 512 333 508 308 c 258
 479 128 l 258
 450 -55 343 -160 182 -160 c 256
 129 -160 78 -150 33 -129 c 257
 14 -121 9 -103 20 -82 c 257
 34 -58 l 258
 45 -39 62 -32 81 -40 c 257
 122 -55 155 -62 194 -62 c 256
 295 -62 353 1 373 132 c 258
 402 312 l 258
 405 330 407 347 407 361 c 256
 407 415 387 435 333 435 c 256
 310 435 283 431 250 425 c 256
 226 421 211 433 212 455 c 257
 211 483 l 257
 211 504 223 518 244 522 c 256
  PathStart: -2
EndSplineSet
PickledDataWithLists: "(dp0
Vcom.schriftgestaltung.Glyphs.lastChange
p1
V2016-06-09 18:35:33 +0000
p2
s."
EndChar

StartChar: k
Encoding: 107 107 267
GlifName: k
Width: 575
VWidth: 0
Flags: HW
AnchorPoint: "top" 343 570 basechar 0
AnchorPoint: "bottom" 261 0 basechar 0
LayerCount: 2
Fore
SplineSet
367 530 m 256
 450 530 500 487 489 415 c 256
 478 349 421 276 338 227 c 257
 476 47 l 257
 476 48 l 257
 495 25 482 0 450 0 c 258
 392 0 l 258
 377 0 366 5 356 16 c 257
 355 17 l 257
 212 207 l 257
 213 206 l 257
 198 223 203 243 225 257 c 256
 313 309 370 368 375 404 c 257
 379 423 365 433 332 433 c 256
 296 433 248 419 207 399 c 257
 149 34 l 258
 146 13 131 0 110 0 c 258
 75 0 l 258
 53 0 41 14 44 37 c 258
 155 737 l 258
 159 758 174 770 194 770 c 258
 229 770 l 258
 252 770 264 755 260 733 c 258
 219 477 l 257
 264 511 313 530 367 530 c 256
  PathStart: -2
EndSplineSet
PickledDataWithLists: "(dp0
Vcom.schriftgestaltung.Glyphs.lastChange
p1
V2016-06-09 18:35:33 +0000
p2
s."
EndChar

StartChar: kappa
Encoding: 954 954 268
GlifName: kappa
Width: 575
VWidth: 0
Flags: HW
LayerCount: 2
Fore
SplineSet
305 250 m 258
 476 48 l 258
 494 26 480 0 448 0 c 258
 390 0 l 258
 374 0 364 5 354 16 c 258
 186 217 l 258
 182 221 178 225 175 229 c 257
 144 35 l 257
 141 14 125 0 104 0 c 258
 69 0 l 258
 47 0 36 14 39 35 c 258
 111 486 l 258
 114 507 130 521 151 521 c 258
 186 521 l 258
 208 521 219 507 216 486 c 258
 188 312 l 257
 193 316 198 320 203 324 c 258
 412 504 l 258
 424 515 437 520 452 520 c 258
 510 520 l 258
 542 520 549 494 523 472 c 258
 312 290 l 258
 305 284 297 277 282 270 c 257
 295 263 300 256 305 250 c 258
EndSplineSet
PickledDataWithLists: "(dp0
Vcom.schriftgestaltung.Glyphs.lastChange
p1
V2015-12-22 12:33:21 +0000
p2
s."
EndChar

StartChar: l
Encoding: 108 108 269
GlifName: l
Width: 575
VWidth: 0
Flags: HW
AnchorPoint: "bottom" 259 0 basechar 0
AnchorPoint: "top" 341 720 basechar 0
AnchorPoint: "topright" 621 520 basechar 0
AnchorPoint: "center" 300 260 basechar 0
LayerCount: 2
Fore
SplineSet
465 69 m 257
 470 36 l 257
 471 18 459 5 439 0 c 256
 400 -9 368 -10 348 -10 c 256
 245 -10 195 31 195 117 c 256
 195 131 197 145 199 162 c 258
 270 612 l 258
 272 623 273 631 273 639 c 256
 273 671 258 682 215 683 c 256
 192 683 170 681 150 676 c 257
 128 672 114 681 109 701 c 257
 105 727 l 257
 101 748 113 765 135 770 c 256
 175 779 207 780 227 780 c 256
 330 780 379 740 379 655 c 256
 379 638 378 623 375 608 c 258
 304 158 l 257
 302 149 302 141 302 132 c 256
 302 99 316 88 360 87 c 256
 383 87 404 89 424 94 c 257
 424 94 l 257
 447 98 461 89 465 69 c 257
EndSplineSet
PickledDataWithLists: "(dp0
Vcom.schriftgestaltung.Glyphs.lastChange
p1
V2016-06-09 18:35:33 +0000
p2
s."
EndChar

StartChar: lacute
Encoding: 314 314 270
GlifName: lacute
Width: 575
VWidth: 0
Flags: HW
AnchorPoint: "bottom" 259 0 basechar 0
AnchorPoint: "top" 341 720 basechar 0
AnchorPoint: "topright" 621 520 basechar 0
AnchorPoint: "center" 300 260 basechar 0
LayerCount: 2
Fore
SplineSet
465 69 m 257
 470 36 l 257
 471 18 459 5 439 0 c 256
 400 -9 368 -10 348 -10 c 256
 245 -10 195 31 195 117 c 256
 195 131 196 145 199 162 c 258
 268 568 l 258
 270 579 271 587 271 595 c 256
 271 627 256 639 213 639 c 256
 190 639 168 637 148 632 c 257
 126 628 112 637 107 657 c 257
 103 683 l 257
 99 704 111 721 133 726 c 256
 173 735 205 736 225 736 c 256
 328 736 377 696 377 611 c 256
 377 594 376 579 373 564 c 258
 304 158 l 257
 302 149 302 141 302 132 c 256
 302 99 316 88 360 87 c 256
 383 87 404 89 424 94 c 257
 424 94 l 257
 447 98 461 89 465 69 c 257
EndSplineSet
Refer: 140 180 N 1 0 0 1 -22 220 2
PickledDataWithLists: "(dp0
Vcom.schriftgestaltung.Glyphs.lastChange
p1
V2016-06-09 18:35:33 +0000
p2
s."
EndChar

StartChar: lambda
Encoding: 955 955 271
GlifName: lambda
Width: 575
VWidth: 0
Flags: HW
LayerCount: 2
Fore
SplineSet
148 672 m 258
 152 693 168 707 189 707 c 256
 282 707 340 646 374 514 c 258
 498 43 l 258
 504 18 487 0 462 0 c 258
 425 0 l 258
 407 0 394 9 391 25 c 258
 304 375 l 257
 110 25 l 258
 101 9 86 0 68 0 c 258
 31 0 l 258
 6 0 -5 18 9 43 c 258
 268 492 l 257
 244 577 216 613 174 613 c 256
 153 613 141 627 144 648 c 258
 148 672 l 258
  PathStart: -2
EndSplineSet
PickledDataWithLists: "(dp0
Vcom.schriftgestaltung.Glyphs.lastChange
p1
V2016-05-30 08:32:58 +0000
p2
s."
EndChar

StartChar: lcaron
Encoding: 318 318 272
GlifName: lcaron
Width: 575
VWidth: 0
Flags: HW
LayerCount: 2
Fore
SplineSet
465 69 m 257
 470 36 l 257
 471 18 459 5 439 0 c 256
 400 -9 368 -10 348 -10 c 256
 245 -10 195 31 195 117 c 256
 195 131 196 145 199 162 c 258
 268 568 l 258
 270 579 271 587 271 595 c 256
 271 627 256 639 213 639 c 256
 190 639 168 637 148 632 c 257
 126 628 112 637 107 657 c 257
 103 683 l 257
 99 704 111 721 133 726 c 256
 173 735 205 736 225 736 c 256
 328 736 377 696 377 611 c 256
 377 594 376 579 373 564 c 258
 304 158 l 257
 302 149 302 141 302 132 c 256
 302 99 316 88 360 87 c 256
 383 87 404 89 424 94 c 257
 424 94 l 257
 447 98 461 89 465 69 c 257
EndSplineSet
Refer: 171 711 N 1 0 0 1 -10 199 2
PickledDataWithLists: "(dp0
Vcom.schriftgestaltung.Glyphs.lastChange
p1
V2016-06-09 18:35:33 +0000
p2
s."
EndChar

StartChar: lfblock
Encoding: 9612 9612 276
GlifName: lfblock
Width: 575
VWidth: 0
Flags: HW
LayerCount: 2
Fore
SplineSet
0 -250 m 257
 0 900 l 257
 287 900 l 257
 287 -250 l 257
 0 -250 l 257
EndSplineSet
PickledDataWithLists: "(dp0
Vcom.schriftgestaltung.Glyphs.lastChange
p1
V2016-06-10 08:26:49 +0000
p2
s."
EndChar

StartChar: logicalnot
Encoding: 172 172 277
GlifName: logicalnot
Width: 575
VWidth: 0
Flags: HW
LayerCount: 2
Fore
SplineSet
136 424 m 258
 491 424 l 258
 514 424 526 409 522 387 c 258
 484 149 l 258
 481 127 467 115 445 115 c 258
 410 115 l 258
 388 115 376 129 379 152 c 258
 407 327 l 257
 124 327 l 258
 101 327 89 342 93 363 c 257
 97 391 l 257
 101 412 116 424 136 424 c 258
EndSplineSet
PickledDataWithLists: "(dp0
Vcom.schriftgestaltung.Glyphs.lastChange
p1
V2015-12-22 14:15:53 +0000
p2
s."
EndChar

StartChar: lslash
Encoding: 322 322 278
GlifName: lslash
Width: 575
VWidth: 0
Flags: HW
LayerCount: 2
Fore
SplineSet
141 332 m 258
 409 512 l 258
 421 520 436 517 442 507 c 258
 457 484 l 258
 465 471 461 455 447 446 c 258
 180 267 l 258
 168 259 154 262 147 271 c 258
 130 294 l 258
 121 306 128 323 141 332 c 258
EndSplineSet
Refer: 269 108 N 1 0 0 1 0 0 2
PickledDataWithLists: "(dp0
Vcom.schriftgestaltung.Glyphs.lastChange
p1
V2016-06-09 18:35:33 +0000
p2
s."
EndChar

StartChar: ltshade
Encoding: 9617 9617 279
GlifName: ltshade
Width: 575
VWidth: 0
Flags: HW
LayerCount: 2
Fore
SplineSet
0 -250 m 257
 0 -194 l 257
 28 -250 l 257
 0 -250 l 257
287 -250 m 257
 0 324 l 257
 0 380 l 257
 315 -250 l 257
 287 -250 l 257
575 -250 m 257
 0 900 l 257
 28 900 l 257
 575 -194 l 257
 575 -250 l 257
575 324 m 257
 287 900 l 257
 315 900 l 257
 575 380 l 257
 575 324 l 257
EndSplineSet
PickledDataWithLists: "(dp0
Vcom.schriftgestaltung.Glyphs.lastChange
p1
V2016-06-10 08:26:49 +0000
p2
s."
EndChar

StartChar: m
Encoding: 109 109 280
GlifName: m
Width: 575
VWidth: 0
Flags: HW
AnchorPoint: "top" 341 570 basechar 0
AnchorPoint: "bottom" 250 0 basechar 0
LayerCount: 2
Fore
SplineSet
182 483 m 258
 175 450 l 257
 231 508 272 527 301 527 c 256
 335 527 355 503 355 439 c 257
 420 505 464 527 496 527 c 256
 550 527 567 470 550 356 c 258
 498 34 l 257
 495 12 481 0 459 0 c 258
 424 0 l 258
 402 0 390 14 393 37 c 258
 446 369 l 258
 452 406 450 418 447 418 c 256
 435 418 409 402 355 361 c 257
 333 219 l 258
 330 197 316 185 294 185 c 258
 259 185 l 258
 237 185 225 199 228 222 c 258
 251 369 l 258
 257 406 255 418 252 418 c 256
 241 418 217 404 162 363 c 257
 110 34 l 258
 107 13 92 0 71 0 c 258
 36 0 l 258
 14 0 2 14 5 37 c 258
 76 481 l 258
 79 504 94 520 114 520 c 258
 151 520 l 258
 173 520 185 506 182 483 c 258
EndSplineSet
PickledDataWithLists: "(dp0
Vcom.schriftgestaltung.Glyphs.lastChange
p1
V2016-06-09 18:35:33 +0000
p2
s."
EndChar

StartChar: macron
Encoding: 175 175 281
GlifName: macron
Width: 575
VWidth: 0
Flags: HW
AnchorPoint: "top" 328 500 mark 0
LayerCount: 2
Fore
SplineSet
237 649 m 258
 241 675 l 258
 244 691 254 700 270 700 c 258
 508 700 l 258
 524 700 532 691 529 675 c 258
 525 648 l 258
 523 632 512 624 496 624 c 258
 258 624 l 258
 242 624 235 632 237 649 c 258
EndSplineSet
PickledDataWithLists: "(dp0
Vcom.schriftgestaltung.Glyphs.lastChange
p1
V2015-12-22 16:32:42 +0000
p2
s."
EndChar

StartChar: multiply
Encoding: 215 215 283
GlifName: multiply
Width: 575
VWidth: 0
Flags: HW
LayerCount: 2
Fore
SplineSet
503 518 m 258
 527 500 l 257
 544 486 544 467 528 450 c 258
 353 261 l 257
 484 49 l 258
 494 32 489 13 470 1 c 258
 441 -18 l 257
 441 -19 l 257
 420 -30 403 -27 393 -9 c 257
 277 180 l 257
 101 -11 l 258
 86 -27 67 -30 52 -18 c 258
 29 1 l 257
 11 14 10 33 27 51 c 258
 226 264 l 257
 111 452 l 258
 101 469 106 487 126 500 c 258
 155 519 l 257
 175 530 193 527 203 509 c 257
 302 346 l 257
 454 511 l 258
 469 527 488 530 503 518 c 258
EndSplineSet
PickledDataWithLists: "(dp0
Vcom.schriftgestaltung.Glyphs.lastChange
p1
V2015-12-22 14:16:31 +0000
p2
s."
EndChar

StartChar: n
Encoding: 110 110 284
GlifName: n
Width: 575
VWidth: 0
Flags: HW
AnchorPoint: "top" 329 570 basechar 0
AnchorPoint: "bottom" 247 0 basechar 0
LayerCount: 2
Fore
SplineSet
220 483 m 258
 213 447 l 257
 267 510 316 530 362 530 c 257
 455 530 532 484 500 286 c 257
 460 34 l 257
 457 14 442 0 421 0 c 257
 386 0 l 257
 365 0 353 16 355 37 c 257
 395 290 l 257
 416 416 386 434 332 434 c 257
 294 434 251 408 199 354 c 257
 148 34 l 257
 145 14 129 0 109 0 c 257
 74 0 l 257
 53 0 41 16 43 37 c 257
 114 481 l 257
 116 500 131 520 152 520 c 257
 189 520 l 257
 210 520 223 504 220 483 c 258
EndSplineSet
PickledDataWithLists: "(dp0
Vcom.schriftgestaltung.Glyphs.lastChange
p1
V2016-06-09 18:35:33 +0000
p2
s."
EndChar

StartChar: nine.dnom
Encoding: 65570 -1 288
GlifName: nine.dnom
Width: 250
VWidth: 0
Flags: HW
LayerCount: 2
Fore
SplineSet
11 18 m 258
 16 32 l 258
 21 44 35 52 48 50 c 257
 60 47 70 46 82 46 c 256
 121 46 155 67 176 152 c 257
 153 146 129 143 108 143 c 256
 42 143 6 186 16 250 c 256
 28 325 77 367 154 367 c 256
 236 367 271 308 254 202 c 256
 228 38 154 -13 72 -13 c 256
 57 -13 41 -12 25 -9 c 257
 13 -6 6 6 11 18 c 258
188 215 m 257
 197 284 181 308 144 308 c 256
 106 308 90 294 83 250 c 256
 78 220 92 202 117 202 c 256
 139 202 161 206 188 215 c 257
  PathStart: -2
EndSplineSet
PickledDataWithLists: "(dp0
Vcom.schriftgestaltung.Glyphs.Export
p1
I00
sVcom.schriftgestaltung.Glyphs.lastChange
p2
V2015-12-22 13:07:35 +0000
p3
s."
EndChar

StartChar: nine.hex
Encoding: 65571 -1 289
GlifName: nine.hex
Width: 575
VWidth: 0
Flags: HW
LayerCount: 2
Fore
SplineSet
214 875 m 258
 214 829 l 258
 214 812 205 804 189 804 c 258
 154 804 l 258
 137 804 129 813 129 829 c 258
 129 875 l 258
 129 891 138 900 154 900 c 258
 189 900 l 258
 205 900 214 891 214 875 c 258
646 875 m 258
 646 829 l 258
 646 812 637 804 621 804 c 258
 586 804 l 258
 569 804 561 813 561 829 c 258
 561 875 l 258
 561 891 570 900 586 900 c 258
 621 900 l 258
 637 900 646 891 646 875 c 258
EndSplineSet
Refer: 287 57 N 1 0 0 1 0 0 2
PickledDataWithLists: "(dp0
Vcom.schriftgestaltung.Glyphs.lastChange
p1
V2016-02-10 13:40:56 +0000
p2
s."
EndChar

StartChar: notequal
Encoding: 8800 8800 291
GlifName: notequal
Width: 575
VWidth: 0
Flags: HW
LayerCount: 2
Fore
SplineSet
443 414 m 257
 523 414 l 258
 546 414 558 400 554 378 c 258
 550 351 l 258
 547 329 533 317 511 317 c 258
 379 317 l 257
 292 184 l 257
 487 184 l 258
 510 184 522 170 518 148 c 257
 514 120 l 257
 510 99 496 87 475 87 c 258
 228 87 l 257
 126 -68 l 257
 116 -82 103 -90 86 -90 c 258
 44 -90 l 258
 17 -90 7 -70 22 -46 c 258
 108 87 l 257
 52 87 l 258
 29 87 17 102 21 124 c 258
 25 150 l 257
 29 171 43 184 64 184 c 258
 173 184 l 257
 260 317 l 257
 88 317 l 258
 66 317 54 331 57 354 c 258
 61 380 l 257
 65 401 79 414 100 414 c 258
 324 414 l 257
 425 568 l 258
 434 582 449 590 466 590 c 258
 507 590 l 258
 535 590 545 570 529 545 c 258
 443 414 l 257
EndSplineSet
PickledDataWithLists: "(dp0
Vcom.schriftgestaltung.Glyphs.lastChange
p1
V2015-12-22 14:16:56 +0000
p2
s."
EndChar

StartChar: numbersign
Encoding: 35 35 294
GlifName: numbersign
Width: 575
VWidth: 0
Flags: HW
LayerCount: 2
Fore
SplineSet
448 290 m 257
 504 290 l 257
 524 290 536 275 533 255 c 257
 529 228 l 257
 526 208 508 193 488 193 c 257
 432 193 l 257
 407 35 l 257
 404 15 387 0 367 0 c 257
 332 0 l 257
 311 0 299 15 302 35 c 257
 327 193 l 257
 227 193 l 257
 202 35 l 257
 199 15 182 0 162 0 c 257
 127 0 l 257
 107 0 94 15 97 35 c 257
 122 193 l 257
 65 193 l 257
 45 193 33 208 36 228 c 257
 40 254 l 257
 43 275 61 290 81 290 c 257
 138 290 l 257
 159 424 l 257
 102 424 l 257
 82 424 69 439 73 459 c 257
 77 485 l 257
 80 506 97 521 117 521 c 257
 174 521 l 257
 200 685 l 257
 203 705 221 720 241 720 c 257
 276 720 l 257
 296 720 309 706 305 685 c 257
 279 521 l 257
 379 521 l 257
 405 685 l 257
 408 705 425 720 446 720 c 257
 481 720 l 257
 501 720 514 706 510 685 c 257
 484 521 l 257
 540 521 l 257
 560 521 573 506 570 486 c 257
 566 459 l 257
 562 439 545 424 525 424 c 257
 469 424 l 257
 448 290 l 257
264 424 m 257
 243 290 l 257
 343 290 l 257
 364 424 l 257
 264 424 l 257
EndSplineSet
PickledDataWithLists: "(dp0
Vcom.schriftgestaltung.Glyphs.lastChange
p1
V2015-12-23 09:14:39 +0000
p2
s."
EndChar

StartChar: o
Encoding: 111 111 295
GlifName: o
Width: 575
VWidth: 0
Flags: HW
AnchorPoint: "bottom" 247 0 basechar 0
AnchorPoint: "ogonek" 476 10 basechar 0
AnchorPoint: "top" 329 570 basechar 0
AnchorPoint: "topright" 596 520 basechar 0
AnchorPoint: "center" 288 260 basechar 0
LayerCount: 2
Fore
SplineSet
62 199 m 256
 62 386 182 532 332 532 c 256
 442 532 513 456 513 325 c 256
 513 163 416 -12 250 -12 c 256
 137 -12 62 67 62 199 c 256
  PathStart: -2
168 210 m 256
 168 129 205 85 259 85 c 256
 352 85 407 212 407 310 c 256
 407 392 371 435 317 435 c 256
 223 435 168 308 168 210 c 256
  PathStart: -2
EndSplineSet
PickledDataWithLists: "(dp0
Vcom.schriftgestaltung.Glyphs.lastChange
p1
V2016-06-09 18:35:33 +0000
p2
s."
EndChar

StartChar: oe
Encoding: 339 339 299
GlifName: oe
Width: 575
VWidth: 0
Flags: HW
LayerCount: 2
Fore
SplineSet
466 68 m 258
 468 42 l 257
 471 21 458 5 436 1 c 256
 388 -7 362 -10 350 -10 c 256
 308 -10 282 10 267 51 c 257
 240 8 208 -12 169 -12 c 256
 101 -12 65 46 65 151 c 256
 65 308 124 532 257 532 c 256
 293 532 318 513 332 476 c 257
 357 512 387 530 424 530 c 256
 494 530 531 475 531 373 c 256
 531 338 528 304 520 255 c 256
 516 234 501 222 481 222 c 258
 345 222 l 257
 333 136 340 87 362 87 c 256
 367 87 396 91 427 96 c 256
 450 100 465 90 466 68 c 258
169 143 m 256
 169 106 175 85 183 85 c 256
 213 85 256 256 256 378 c 256
 256 415 250 435 242 435 c 256
 212 435 169 264 169 143 c 256
  PathStart: -2
361 319 m 257
 424 319 l 257
 431 390 425 434 412 434 c 256
 398 434 379 393 361 319 c 257
EndSplineSet
PickledDataWithLists: "(dp0
Vcom.schriftgestaltung.Glyphs.lastChange
p1
V2016-06-09 18:35:34 +0000
p2
s."
EndChar

StartChar: ogonek
Encoding: 731 731 300
GlifName: ogonek
Width: 575
VWidth: 0
Flags: HW
LayerCount: 2
Fore
SplineSet
251 28 m 256
 264 36 273 37 283 34 c 256
 291 30 293 21 286 6 c 256
 279 -14 271 -37 268 -53 c 256
 260 -105 267 -131 281 -152 c 256
 289 -165 289 -176 276 -188 c 258
 251 -211 l 258
 239 -223 226 -224 216 -212 c 256
 187 -177 171 -131 178 -83 c 256
 183 -53 191 -13 251 28 c 256
  PathStart: -2
EndSplineSet
PickledDataWithLists: "(dp0
Vcom.schriftgestaltung.Glyphs.lastChange
p1
V2015-12-22 16:32:43 +0000
p2
s."
EndChar

StartChar: omega
Encoding: 969 969 304
GlifName: omega
Width: 575
VWidth: 0
Flags: HW
LayerCount: 2
Fore
SplineSet
447 468 m 257
 464 498 l 257
 474 518 491 526 510 519 c 257
 511 519 l 257
 553 502 573 463 573 401 c 256
 573 378 571 358 568 338 c 258
 542 178 l 258
 521 46 465 -10 354 -10 c 256
 303 -10 270 7 254 43 c 257
 227 7 190 -10 139 -10 c 256
 46 -10 2 31 2 120 c 256
 2 137 4 157 7 182 c 257
 33 342 l 258
 49 441 84 497 145 519 c 256
 165 526 181 516 186 496 c 258
 193 465 l 257
 196 448 191 437 172 423 c 257
 156 410 145 383 138 338 c 258
 112 179 l 257
 110 163 108 150 108 139 c 256
 108 102 120 87 151 87 c 256
 191 87 212 113 222 182 c 258
 244 316 l 258
 247 337 262 350 283 350 c 258
 318 350 l 258
 340 350 352 336 349 313 c 258
 327 179 l 258
 317 111 328 87 366 87 c 256
 406 87 427 113 437 182 c 258
 463 341 l 258
 470 388 468 412 456 424 c 257
 442 440 439 451 447 467 c 257
 447 468 l 257
EndSplineSet
PickledDataWithLists: "(dp0
Vcom.schriftgestaltung.Glyphs.lastChange
p1
V2015-12-22 12:55:46 +0000
p2
s."
EndChar

StartChar: one
Encoding: 49 49 306
GlifName: one
Width: 575
VWidth: 0
Flags: HW
LayerCount: 2
Fore
SplineSet
346 97 m 257
 439 97 l 257
 460 97 472 82 469 62 c 257
 464 35 l 257
 461 15 445 0 424 0 c 257
 69 0 l 257
 49 0 36 15 39 35 c 257
 44 62 l 257
 47 82 64 97 84 97 c 257
 241 97 l 257
 308 520 l 257
 151 520 l 257
 131 520 119 535 122 555 c 257
 126 582 l 257
 129 602 147 617 167 617 c 257
 263 617 314 636 349 694 c 257
 358 711 374 720 391 720 c 257
 410 720 l 257
 430 720 442 705 439 685 c 257
 346 97 l 257
EndSplineSet
PickledDataWithLists: "(dp0
Vcom.schriftgestaltung.Glyphs.lastChange
p1
V2015-12-22 20:51:40 +0000
p2
s."
EndChar

StartChar: one.dnom
Encoding: 65573 -1 307
GlifName: one.dnom
Width: 250
VWidth: 0
Flags: HW
LayerCount: 2
Fore
SplineSet
161 49 m 257
 201 49 l 257
 216 49 223 37 222 26 c 257
 219 13 l 257
 218 2 206 -10 192 -10 c 257
 14 -10 l 257
 -1 -10 -8 2 -7 13 c 257
 -4 26 l 257
 -3 37 9 49 23 49 c 257
 95 49 l 257
 127 250 l 257
 55 250 l 257
 41 250 33 262 35 273 c 257
 37 286 l 257
 38 297 50 309 64 309 c 257
 111 309 132 316 149 344 c 257
 154 353 165 360 176 360 c 257
 186 360 l 257
 200 360 209 350 207 338 c 257
 161 49 l 257
EndSplineSet
PickledDataWithLists: "(dp0
Vcom.schriftgestaltung.Glyphs.Export
p1
I00
sVcom.schriftgestaltung.Glyphs.lastChange
p2
V2015-12-22 13:04:47 +0000
p3
s."
EndChar

StartChar: one.hex
Encoding: 65574 -1 308
GlifName: one.hex
Width: 575
VWidth: 0
Flags: HW
LayerCount: 2
Fore
SplineSet
646 875 m 258
 646 829 l 258
 646 812 637 804 621 804 c 258
 586 804 l 258
 569 804 561 813 561 829 c 258
 561 875 l 258
 561 891 570 900 586 900 c 258
 621 900 l 258
 637 900 646 891 646 875 c 258
EndSplineSet
Refer: 306 49 N 1 0 0 1 0 0 2
PickledDataWithLists: "(dp0
Vcom.schriftgestaltung.Glyphs.lastChange
p1
V2016-02-10 13:18:28 +0000
p2
s."
EndChar

StartChar: onedotenleader
Encoding: 8228 8228 310
GlifName: onedotenleader
Width: 575
VWidth: 0
Flags: HW
LayerCount: 2
Fore
SplineSet
164 35 m 257
 178 122 l 257
 181 143 199 157 219 157 c 257
 324 157 l 257
 345 157 356 143 353 122 c 257
 339 35 l 257
 336 15 320 0 299 0 c 257
 194 0 l 257
 174 0 161 15 164 35 c 257
EndSplineSet
PickledDataWithLists: "(dp0
Vcom.schriftgestaltung.Glyphs.lastChange
p1
V2015-12-23 09:15:15 +0000
p2
s."
EndChar

StartChar: ordfeminine
Encoding: 170 170 314
GlifName: ordfeminine
Width: 575
VWidth: 0
Flags: HW
LayerCount: 2
Fore
SplineSet
358 730 m 256
 377 730 415 729 456 723 c 256
 476 720 488 705 485 684 c 258
 439 392 l 258
 436 371 423 357 405 357 c 258
 380 357 l 258
 359 357 346 372 349 392 c 257
 349 393 l 257
 348 386 l 257
 321 362 292 350 261 350 c 256
 191 350 155 401 155 499 c 256
 155 645 229 730 358 730 c 256
  PathStart: -2
281 434 m 256
 304 434 335 452 364 482 c 257
 389 645 l 257
 372 645 359 646 350 646 c 256
 281 646 245 599 245 509 c 256
 245 453 256 434 281 434 c 256
  PathStart: -2
EndSplineSet
PickledDataWithLists: "(dp0
Vcom.schriftgestaltung.Glyphs.lastChange
p1
V2016-06-09 18:35:34 +0000
p2
s."
EndChar

StartChar: ordmasculine
Encoding: 186 186 315
GlifName: ordmasculine
Width: 575
VWidth: 0
Flags: HW
LayerCount: 2
Fore
SplineSet
193 499 m 256
 193 630 273 731 378 731 c 256
 458 731 504 676 504 583 c 256
 504 451 427 349 324 349 c 256
 242 349 193 406 193 499 c 256
  PathStart: -2
284 507 m 256
 284 458 300 433 330 433 c 256
 376 433 414 497 414 573 c 256
 414 623 398 647 368 647 c 256
 322 647 284 583 284 507 c 256
  PathStart: -2
EndSplineSet
PickledDataWithLists: "(dp0
Vcom.schriftgestaltung.Glyphs.lastChange
p1
V2016-06-09 18:35:34 +0000
p2
s."
EndChar

StartChar: oslash
Encoding: 248 248 316
GlifName: oslash
Width: 575
VWidth: 0
Flags: HW
LayerCount: 2
Fore
SplineSet
393 579 m 258
 401 594 411 599 426 593 c 258
 458 580 l 258
 474 574 480 562 472 547 c 258
 182 -52 l 258
 175 -67 165 -72 150 -66 c 258
 117 -53 l 258
 102 -47 96 -35 103 -20 c 258
 393 579 l 258
  PathStart: -2
EndSplineSet
Refer: 295 111 N 1 0 0 1 0 0 2
PickledDataWithLists: "(dp0
Vcom.schriftgestaltung.Glyphs.lastChange
p1
V2016-06-09 18:35:33 +0000
p2
s."
EndChar

StartChar: p
Encoding: 112 112 318
GlifName: p
Width: 575
VWidth: 0
Flags: HW
AnchorPoint: "top" 329 570 basechar 0
AnchorPoint: "bottom" 247 0 basechar 0
LayerCount: 2
Fore
SplineSet
67 -250 m 258
 32 -250 l 258
 9 -250 -3 -235 1 -213 c 258
 110 482 l 258
 115 506 128 520 147 520 c 258
 184 520 l 258
 207 520 219 505 215 483 c 258
 213 472 l 257
 261 509 314 530 362 530 c 256
 455 530 507 454 507 321 c 256
 507 105 406 -10 217 -10 c 256
 199 -10 170 -9 137 -7 c 257
 106 -216 l 258
 103 -237 88 -250 67 -250 c 258
195 354 m 257
 153 89 l 257
 186 87 213 86 229 86 c 256
 344 86 401 159 401 306 c 256
 401 392 377 434 332 434 c 256
 293 434 243 405 195 354 c 257
EndSplineSet
PickledDataWithLists: "(dp0
Vcom.schriftgestaltung.Glyphs.lastChange
p1
V2016-06-09 18:35:34 +0000
p2
s."
EndChar

StartChar: paragraph
Encoding: 182 182 319
GlifName: paragraph
Width: 575
VWidth: 0
Flags: HW
LayerCount: 2
Fore
SplineSet
323 720 m 258
 383 720 l 258
 405 720 416 707 412 685 c 258
 294 -65 l 258
 290 -87 275 -100 253 -100 c 258
 218 -100 l 258
 197 -100 185 -86 189 -65 c 258
 250 322 l 257
 142 325 86 378 86 474 c 256
 86 489 87 504 90 521 c 256
 111 650 192 720 323 720 c 258
533 720 m 258
 568 720 l 258
 590 720 601 707 597 685 c 258
 479 -65 l 258
 475 -87 460 -100 438 -100 c 258
 403 -100 l 258
 382 -100 370 -86 374 -65 c 258
 492 685 l 258
 496 706 512 720 533 720 c 258
EndSplineSet
PickledDataWithLists: "(dp0
Vcom.schriftgestaltung.Glyphs.lastChange
p1
V2016-05-30 08:36:51 +0000
p2
s."
EndChar

StartChar: parenleft
Encoding: 40 40 320
GlifName: parenleft
Width: 575
VWidth: 0
Flags: HW
LayerCount: 2
Fore
SplineSet
546 723 m 258
 542 697 l 258
 538 676 525 664 503 664 c 256
 330 664 208 394 208 184 c 256
 208 20 278 -92 380 -92 c 256
 403 -92 415 -106 411 -129 c 258
 407 -155 l 258
 403 -176 389 -188 368 -188 c 256
 211 -188 102 -37 102 178 c 256
 102 445 279 760 515 760 c 256
 538 760 550 746 546 723 c 258
EndSplineSet
PickledDataWithLists: "(dp0
Vcom.schriftgestaltung.Glyphs.lastChange
p1
V2016-05-19 19:23:15 +0000
p2
s."
EndChar

StartChar: parenright
Encoding: 41 41 321
GlifName: parenright
Width: 575
VWidth: 0
Flags: HW
LayerCount: 2
Fore
SplineSet
39 -151 m 258
 43 -125 l 258
 47 -104 60 -92 82 -92 c 256
 255 -92 377 178 377 388 c 256
 377 552 307 664 205 664 c 256
 182 664 170 678 174 701 c 258
 178 727 l 258
 182 748 196 760 217 760 c 256
 374 760 483 609 483 394 c 256
 483 127 306 -188 70 -188 c 256
 47 -188 35 -174 39 -151 c 258
EndSplineSet
PickledDataWithLists: "(dp0
Vcom.schriftgestaltung.Glyphs.lastChange
p1
V2016-05-19 19:22:51 +0000
p2
s."
EndChar

StartChar: partialdiff
Encoding: 8706 8706 322
GlifName: partialdiff
Width: 575
VWidth: 0
Flags: HW
LayerCount: 2
Fore
SplineSet
378 777 m 258
 398 787 416 782 424 763 c 256
 480 632 510 498 510 376 c 256
 510 139 410 -11 247 -11 c 256
 129 -11 66 57 66 183 c 256
 66 386 185 529 358 530 c 257
 367 531 379 530 393 529 c 257
 379 596 357 661 331 713 c 256
 321 732 328 751 348 762 c 257
 378 777 l 258
  PathStart: -2
173 199 m 256
 173 126 199 90 253 87 c 256
 347 80 406 196 406 388 c 256
 406 402 406 416 405 429 c 257
 384 432 363 434 346 434 c 256
 246 433 173 333 173 199 c 256
  PathStart: -2
EndSplineSet
PickledDataWithLists: "(dp0
Vcom.schriftgestaltung.Glyphs.lastChange
p1
V2015-12-22 14:17:42 +0000
p2
s."
EndChar

StartChar: percent
Encoding: 37 37 323
GlifName: percent
Width: 575
VWidth: 0
Flags: HW
LayerCount: 2
Fore
SplineSet
145 620 m 257
 245 620 l 257
 265 620 278 606 274 585 c 257
 260 495 l 257
 257 475 240 460 220 460 c 257
 120 460 l 257
 100 460 87 475 90 495 c 257
 104 585 l 257
 108 606 124 620 145 620 c 257
39 69 m 257
 19 90 l 257
 6 103 8 124 26 139 c 257
 503 551 l 257
 519 565 539 566 552 553 c 257
 573 531 l 257
 586 517 582 496 566 482 c 257
 88 69 l 257
 72 55 52 55 39 69 c 257
372 160 m 257
 472 160 l 257
 492 160 505 146 502 125 c 257
 487 35 l 257
 484 15 467 0 447 0 c 257
 347 0 l 257
 327 0 314 15 317 35 c 257
 332 125 l 257
 335 146 351 160 372 160 c 257
EndSplineSet
PickledDataWithLists: "(dp0
Vcom.schriftgestaltung.Glyphs.lastChange
p1
V2015-12-22 14:18:08 +0000
p2
s."
EndChar

StartChar: period
Encoding: 46 46 324
GlifName: period
Width: 575
VWidth: 0
Flags: HW
LayerCount: 2
Fore
SplineSet
221 160 m 257
 321 160 l 257
 341 160 354 146 351 125 c 257
 336 35 l 257
 333 15 317 0 296 0 c 257
 196 0 l 257
 176 0 163 15 166 35 c 257
 181 125 l 257
 184 146 201 160 221 160 c 257
EndSplineSet
PickledDataWithLists: "(dp0
Vcom.schriftgestaltung.Glyphs.lastChange
p1
V2015-12-23 09:15:27 +0000
p2
s."
EndChar

StartChar: periodcentered
Encoding: 183 183 325
GlifName: periodcentered
Width: 575
VWidth: 0
Flags: HW
LayerCount: 2
Fore
SplineSet
345 284 m 257
 338 237 l 257
 335 217 319 202 297 202 c 257
 262 202 l 257
 242 202 230 217 233 237 c 257
 240 283 l 257
 244 304 261 319 281 319 c 257
 316 319 l 257
 337 319 349 304 345 284 c 257
EndSplineSet
PickledDataWithLists: "(dp0
Vcom.schriftgestaltung.Glyphs.lastChange
p1
V2015-12-22 20:53:09 +0000
p2
s."
EndChar

StartChar: perthousand
Encoding: 8240 8240 326
GlifName: perthousand
Width: 575
VWidth: 0
Flags: HW
LayerCount: 2
Fore
SplineSet
5 69 m 257
 -15 90 l 257
 -28 103 -26 124 -8 139 c 257
 469 551 l 257
 485 565 505 566 518 553 c 257
 539 531 l 257
 552 517 548 496 532 482 c 257
 54 69 l 257
 38 55 18 55 5 69 c 257
146 620 m 257
 246 620 l 257
 266 620 279 606 275 585 c 257
 261 495 l 257
 258 475 241 460 221 460 c 257
 121 460 l 257
 101 460 88 475 91 495 c 257
 105 585 l 257
 109 606 125 620 146 620 c 257
238 160 m 257
 313 160 l 257
 333 160 346 146 343 125 c 257
 328 35 l 257
 325 15 308 0 288 0 c 257
 213 0 l 257
 193 0 180 15 183 35 c 257
 198 125 l 257
 201 146 217 160 238 160 c 257
443 160 m 257
 518 160 l 257
 538 160 551 146 548 125 c 257
 533 35 l 257
 530 15 513 0 493 0 c 257
 418 0 l 257
 398 0 385 15 388 35 c 257
 403 125 l 257
 406 146 422 160 443 160 c 257
EndSplineSet
PickledDataWithLists: "(dp0
Vcom.schriftgestaltung.Glyphs.lastChange
p1
V2015-12-22 14:18:32 +0000
p2
s."
EndChar

StartChar: phi
Encoding: 966 966 327
GlifName: phi
Width: 575
VWidth: 0
Flags: HW
LayerCount: 2
Fore
SplineSet
249 342 m 258
 270 473 326 530 436 530 c 256
 526 530 568 489 568 402 c 256
 568 378 566 358 563 338 c 258
 544 218 l 258
 520 67 447 2 299 0 c 257
 285 -87 l 257
 282 -109 268 -121 246 -121 c 258
 211 -121 l 258
 189 -121 177 -108 180 -84 c 257
 193 0 l 257
 69 3 13 51 13 156 c 256
 13 177 15 199 19 222 c 258
 48 407 l 258
 52 428 66 440 87 440 c 258
 122 440 l 258
 145 440 157 426 153 403 c 258
 124 219 l 258
 122 204 120 190 120 178 c 256
 120 123 146 99 210 97 c 257
 249 342 l 258
  PathStart: -2
439 222 m 258
 458 341 l 258
 460 357 462 372 462 383 c 256
 462 419 451 433 424 433 c 256
 383 433 363 407 353 341 c 258
 315 97 l 257
 390 100 426 136 439 222 c 258
EndSplineSet
PickledDataWithLists: "(dp0
Vcom.schriftgestaltung.Glyphs.lastChange
p1
V2015-12-22 12:48:44 +0000
p2
s."
EndChar

StartChar: pi
Encoding: 960 960 328
GlifName: pi
Width: 575
VWidth: 0
Flags: HW
LayerCount: 2
Fore
SplineSet
156 424 m 257
 123 424 l 258
 100 424 88 438 92 461 c 258
 96 486 l 258
 99 507 113 520 135 520 c 258
 520 520 l 258
 543 520 554 507 551 483 c 258
 547 457 l 257
 543 436 530 424 508 423 c 257
 471 423 l 257
 440 228 l 258
 427 143 418 90 433 36 c 257
 438 15 424 0 400 0 c 258
 365 0 l 258
 346 0 334 10 328 30 c 257
 313 90 322 147 335 232 c 258
 365 423 l 257
 261 423 l 257
 199 34 l 258
 196 12 182 0 160 0 c 258
 125 0 l 258
 103 0 91 14 94 37 c 258
 156 424 l 257
EndSplineSet
PickledDataWithLists: "(dp0
Vcom.schriftgestaltung.Glyphs.lastChange
p1
V2015-12-22 16:32:58 +0000
p2
s."
EndChar

StartChar: plus
Encoding: 43 43 329
GlifName: plus
Width: 575
VWidth: 0
Flags: HW
LayerCount: 2
Fore
SplineSet
348 309 m 257
 507 309 l 258
 529 309 540 296 536 274 c 258
 532 247 l 258
 528 225 513 212 491 212 c 258
 332 212 l 257
 304 35 l 258
 301 13 286 0 264 0 c 258
 229 0 l 258
 208 0 196 14 199 35 c 258
 227 212 l 257
 68 212 l 258
 47 212 36 226 39 247 c 258
 43 273 l 258
 47 295 62 309 84 309 c 258
 243 309 l 257
 271 485 l 258
 274 506 290 520 311 520 c 258
 346 520 l 258
 368 520 379 507 376 485 c 258
 348 309 l 257
EndSplineSet
PickledDataWithLists: "(dp0
Vcom.schriftgestaltung.Glyphs.lastChange
p1
V2015-12-22 14:19:00 +0000
p2
s."
EndChar

StartChar: plusminus
Encoding: 177 177 330
GlifName: plusminus
Width: 575
VWidth: 0
Flags: HW
LayerCount: 2
Fore
SplineSet
374 472 m 257
 533 472 l 257
 554 472 565 457 562 437 c 257
 558 410 l 257
 555 390 538 375 517 375 c 257
 358 375 l 257
 332 212 l 257
 329 191 313 177 292 177 c 257
 257 177 l 257
 237 177 224 192 227 212 c 257
 253 375 l 257
 94 375 l 257
 74 375 62 390 65 410 c 257
 69 436 l 257
 72 457 90 472 110 472 c 257
 269 472 l 257
 294 635 l 257
 298 655 315 670 335 670 c 257
 370 670 l 257
 391 670 403 655 399 635 c 257
 374 472 l 257
5 35 m 257
 10 62 l 257
 13 82 30 97 50 97 c 257
 473 97 l 257
 494 97 506 82 503 62 c 257
 498 35 l 257
 495 15 479 0 458 0 c 257
 35 0 l 257
 15 0 2 15 5 35 c 257
EndSplineSet
PickledDataWithLists: "(dp0
Vcom.schriftgestaltung.Glyphs.lastChange
p1
V2015-12-22 14:19:26 +0000
p2
s."
EndChar

StartChar: product
Encoding: 8719 8719 331
GlifName: product
Width: 575
VWidth: 0
Flags: HW
LayerCount: 2
Fore
SplineSet
148 719 m 258
 571 719 l 258
 594 719 606 704 602 683 c 257
 598 655 l 257
 594 634 579 622 559 622 c 258
 523 622 l 257
 416 -49 l 258
 413 -71 399 -83 377 -83 c 258
 342 -83 l 258
 320 -83 308 -69 311 -46 c 258
 417 622 l 257
 273 622 l 257
 166 -49 l 258
 163 -71 149 -83 127 -83 c 258
 92 -83 l 258
 70 -83 58 -69 61 -46 c 258
 167 622 l 257
 136 622 l 258
 113 622 101 637 105 659 c 258
 109 685 l 258
 113 706 127 719 148 719 c 258
EndSplineSet
PickledDataWithLists: "(dp0
Vcom.schriftgestaltung.Glyphs.lastChange
p1
V2015-12-22 14:19:57 +0000
p2
s."
EndChar

StartChar: psi
Encoding: 968 968 332
GlifName: psi
Width: 575
VWidth: 0
Flags: HW
LayerCount: 2
Fore
SplineSet
514 520 m 258
 549 520 l 258
 572 520 583 507 580 483 c 257
 538 218 l 258
 514 67 441 2 293 0 c 257
 279 -87 l 257
 276 -109 262 -121 240 -121 c 258
 205 -121 l 258
 183 -121 171 -108 174 -84 c 257
 187 0 l 257
 63 3 7 51 7 156 c 256
 7 177 9 199 13 222 c 258
 55 486 l 257
 58 507 72 520 94 520 c 258
 129 520 l 258
 152 520 163 507 160 483 c 257
 118 219 l 258
 116 204 114 190 114 178 c 256
 114 123 140 99 203 97 c 257
 265 486 l 257
 268 507 282 520 304 520 c 258
 339 520 l 258
 362 520 373 507 370 483 c 257
 309 97 l 257
 384 100 420 136 433 222 c 258
 475 486 l 257
 478 507 492 520 514 520 c 258
EndSplineSet
PickledDataWithLists: "(dp0
Vcom.schriftgestaltung.Glyphs.lastChange
p1
V2015-12-22 12:55:00 +0000
p2
s."
EndChar

StartChar: question
Encoding: 63 63 334
GlifName: question
Width: 575
VWidth: 0
Flags: HW
LayerCount: 2
Fore
SplineSet
161 710 m 256
 399 708 550 631 550 510 c 256
 550 396 427 317 256 317 c 257
 264 317 l 257
 250 228 l 258
 246 207 231 195 211 195 c 258
 176 195 l 258
 153 195 141 210 145 232 c 258
 168 377 l 258
 171 398 186 411 207 411 c 258
 268 411 l 258
 373 411 444 449 444 503 c 256
 444 571 333 615 150 616 c 256
 128 616 115 631 119 653 c 257
 122 676 l 257
 122 677 l 257
 126 698 141 710 161 710 c 256
  PathStart: -2
157 107 m 258
 192 107 l 258
 215 107 227 92 223 71 c 257
 216 23 l 257
 212 2 198 -10 177 -10 c 258
 142 -10 l 258
 119 -10 107 4 111 26 c 257
 118 74 l 257
 122 95 137 107 157 107 c 258
EndSplineSet
PickledDataWithLists: "(dp0
Vcom.schriftgestaltung.Glyphs.lastChange
p1
V2015-12-23 09:17:54 +0000
p2
s."
EndChar

StartChar: quotedbl
Encoding: 34 34 336
GlifName: quotedbl
Width: 575
VWidth: 0
Flags: HW
LayerCount: 2
Fore
SplineSet
225 770 m 258
 280 770 l 258
 303 770 315 755 310 733 c 258
 253 445 l 257
 248 424 233 413 213 413 c 258
 186 413 l 258
 164 413 151 426 154 448 c 258
 186 736 l 257
 186 737 l 257
 190 758 204 770 225 770 c 258
454 770 m 258
 509 770 l 258
 532 770 544 755 539 733 c 258
 481 445 l 258
 477 425 463 413 442 413 c 258
 414 413 l 258
 392 413 380 426 383 448 c 258
 415 736 l 258
 418 758 432 770 454 770 c 258
EndSplineSet
PickledDataWithLists: "(dp0
Vcom.schriftgestaltung.Glyphs.lastChange
p1
V2015-12-23 09:18:16 +0000
p2
s."
EndChar

StartChar: quotereversed
Encoding: 8219 8219 341
GlifName: quotereversed
Width: 575
VWidth: 0
Flags: HW
LayerCount: 2
Fore
SplineSet
423 667 m 257
 418 646 404 634 384 634 c 258
 367 634 l 257
 354 557 359 523 383 523 c 256
 402 523 414 512 414 496 c 257
 410 459 l 257
 405 439 391 427 370 427 c 256
 299 427 262 475 262 566 c 256
 262 592 264 617 269 643 c 257
 282 735 l 257
 282 736 l 257
 287 758 301 769 321 769 c 258
 401 769 l 258
 425 769 437 755 432 732 c 257
 423 667 l 257
  PathStart: -2
EndSplineSet
PickledDataWithLists: "(dp0
Vcom.schriftgestaltung.Glyphs.lastChange
p1
V2015-12-22 14:00:15 +0000
p2
s."
EndChar

StartChar: quotesinglbase
Encoding: 8218 8218 343
GlifName: quotesinglbase
Width: 575
VWidth: 0
Flags: HW
LayerCount: 2
Fore
SplineSet
228 135 m 258
 308 135 l 258
 330 135 341 122 338 100 c 258
 323 8 l 258
 301 -132 242 -207 154 -207 c 256
 132 -207 121 -194 124 -173 c 258
 129 -146 l 258
 132 -124 147 -111 168 -111 c 256
 193 -111 209 -78 222 0 c 257
 207 0 l 258
 186 0 174 14 177 35 c 258
 188 100 l 258
 191 122 206 135 228 135 c 258
EndSplineSet
PickledDataWithLists: "(dp0
Vcom.schriftgestaltung.Glyphs.lastChange
p1
V2015-12-22 14:00:50 +0000
p2
s."
EndChar

StartChar: quotesingle
Encoding: 39 39 344
GlifName: quotesingle
Width: 575
VWidth: 0
Flags: HW
LayerCount: 2
Fore
SplineSet
341 770 m 258
 396 770 l 258
 418 770 429 757 425 735 c 257
 366 446 l 258
 362 425 347 413 326 413 c 258
 298 413 l 258
 277 413 265 425 268 447 c 258
 301 734 l 258
 304 756 319 770 341 770 c 258
EndSplineSet
PickledDataWithLists: "(dp0
Vcom.schriftgestaltung.Glyphs.lastChange
p1
V2015-12-22 13:46:53 +0000
p2
s."
EndChar

StartChar: r
Encoding: 114 114 345
GlifName: r
Width: 575
VWidth: 0
Flags: HWO
AnchorPoint: "bottom" 247 0 basechar 0
AnchorPoint: "top" 329 570 basechar 0
LayerCount: 2
Back
SplineSet
220 483 m 262
 213 447 l 261
 267 510 316 530 362 530 c 261
 455 530 532 484 500 286 c 261
 460 34 l 261
 457 14 442 0 421 0 c 261
 386 0 l 261
 365 0 353 16 355 37 c 261
 395 290 l 261
 416 416 386 434 332 434 c 261
 294 434 251 408 199 354 c 261
 148 34 l 261
 145 14 129 0 109 0 c 261
 74 0 l 261
 53 0 41 16 43 37 c 261
 114 481 l 261
 116 500 131 520 152 520 c 261
 189 520 l 261
 210 520 223 504 220 483 c 262
EndSplineSet
Fore
SplineSet
220 483 m 258
 213 447 l 257
 267 510 316 530 362 530 c 257
 470 530 513 465 507 349 c 256
 505.966890979 329.026558918 499 317 475 317 c 258
 432 317 l 258
 408 317 401.687539198 329.002508662 402 349 c 256
 403 413 386 434 332 434 c 257
 294 434 251 408 199 354 c 257
 148 34 l 257
 145 14 129 0 109 0 c 257
 74 0 l 257
 53 0 41 16 43 37 c 257
 114 481 l 257
 116 500 131 520 152 520 c 257
 189 520 l 257
 210 520 223 504 220 483 c 258
EndSplineSet
PickledDataWithLists: "(dp0
Vcom.schriftgestaltung.Glyphs.lastChange
p1
V2016-06-09 18:35:34 +0000
p2
s."
EndChar

StartChar: radical
Encoding: 8730 8730 347
GlifName: radical
Width: 575
VWidth: 0
Flags: HW
LayerCount: 2
Fore
SplineSet
453 721 m 258
 583 721 l 258
 606 721 618 707 614 685 c 257
 610 658 l 258
 607 636 593 624 571 624 c 258
 484 624 l 257
 275 30 l 258
 269 11 254 0 235 0 c 258
 215 0 l 258
 197 0 185 9 179 26 c 258
 105 273 l 257
 60 273 l 258
 37 273 25 287 29 309 c 257
 33 337 l 258
 37 358 51 370 72 370 c 258
 145 370 l 258
 163 370 175 361 181 344 c 258
 237 151 l 257
 414 691 l 258
 420 710 434 721 453 721 c 258
EndSplineSet
PickledDataWithLists: "(dp0
Vcom.schriftgestaltung.Glyphs.lastChange
p1
V2015-12-22 14:20:21 +0000
p2
s."
EndChar

StartChar: registered
Encoding: 174 174 349
GlifName: registered
Width: 575
VWidth: 0
Flags: HW
LayerCount: 2
Fore
SplineSet
349 637 m 256
 417 637 482 609 522 561 c 256
 563 512 581 444 570 375 c 256
 559 307 520 238 463 190 c 256
 408 141 334 113 266 113 c 256
 197 113 134 141 92 190 c 256
 52 238 35 307 46 375 c 256
 57 444 95 512 151 561 c 256
 208 609 280 637 349 637 c 256
  PathStart: -2
276 176 m 256
 328 176 384 197 426 234 c 256
 469 271 499 323 507 375 c 256
 515 427 502 479 471 516 c 256
 440 553 391 575 339 575 c 256
 287 575 232 553 189 516 c 256
 146 479 116 427 108 375 c 256
 100 323 113 271 144 234 c 256
 176 197 224 176 276 176 c 256
  PathStart: -2
246 500 m 257
 347 500 l 257
 360 500 372 500 384 498 c 256
 396 496 407 492 416 485 c 256
 426 478 433 469 437 458 c 256
 441 447 443 435 441 422 c 256
 439 410 433 397 426 386 c 256
 418 376 408 366 396 359 c 256
 386 353 375 349 363 347 c 257
 403 281 l 258
 413 264 404 250 383 250 c 258
 362 250 l 258
 349 250 341 255 334 265 c 258
 287 344 l 257
 258 344 l 257
 247 275 l 258
 244 259 235 250 218 250 c 258
 206 250 l 258
 190 250 182 259 185 275 c 258
 217 475 l 258
 219 492 230 500 246 500 c 257
268 407 m 257
 342 407 l 258
 354 407 377 407 378 422 c 256
 380 435 358 438 347 438 c 258
 273 438 l 257
 268 407 l 257
EndSplineSet
PickledDataWithLists: "(dp0
Vcom.schriftgestaltung.Glyphs.lastChange
p1
V2015-12-22 14:24:37 +0000
p2
s."
EndChar

StartChar: rho
Encoding: 961 961 350
GlifName: rho
Width: 575
VWidth: 0
Flags: HW
LayerCount: 2
Fore
SplineSet
0 -213 m 258
 73 252 l 258
 106 455 176 532 330 532 c 256
 456 532 508 473 508 334 c 256
 508 109 409 -9 218 -9 c 256
 200 -9 172 -8 138 -5 c 257
 105 -217 l 258
 101 -238 86 -250 66 -250 c 258
 31 -250 l 258
 8 -250 -4 -235 0 -213 c 258
178 248 m 258
 154 91 l 257
 185 89 212 88 230 88 c 256
 346 88 402 163 402 317 c 256
 402 404 379 435 318 435 c 256
 236 435 200 388 178 248 c 258
EndSplineSet
PickledDataWithLists: "(dp0
Vcom.schriftgestaltung.Glyphs.lastChange
p1
V2015-12-22 12:46:09 +0000
p2
s."
EndChar

StartChar: ring
Encoding: 730 730 351
GlifName: ring
Width: 575
VWidth: 0
Flags: HW
AnchorPoint: "top" 328 500 mark 0
LayerCount: 2
Fore
SplineSet
369 508 m 256
 302 508 266 545 275 604 c 256
 284 663 332 700 399 700 c 256
 466 700 502 663 493 604 c 256
 484 545 436 508 369 508 c 256
  PathStart: -2
379 569 m 256
 399 569 413 583 416 604 c 256
 420 626 410 639 390 639 c 256
 370 639 355 626 351 604 c 256
 348 583 359 569 379 569 c 256
  PathStart: -2
EndSplineSet
PickledDataWithLists: "(dp0
Vcom.schriftgestaltung.Glyphs.lastChange
p1
V2015-12-22 16:32:43 +0000
p2
s."
EndChar

StartChar: rtblock
Encoding: 9616 9616 352
GlifName: rtblock
Width: 575
VWidth: 0
Flags: HW
LayerCount: 2
Fore
SplineSet
287 -250 m 257
 287 900 l 257
 575 900 l 257
 575 -250 l 257
 287 -250 l 257
EndSplineSet
PickledDataWithLists: "(dp0
Vcom.schriftgestaltung.Glyphs.lastChange
p1
V2016-06-10 08:26:49 +0000
p2
s."
EndChar

StartChar: s
Encoding: 115 115 353
GlifName: s
Width: 575
VWidth: 0
Flags: HW
AnchorPoint: "top" 341 570 basechar 0
AnchorPoint: "bottom" 259 0 basechar 0
LayerCount: 2
Fore
SplineSet
480 475 m 257
 469 449 l 257
 460 430 444 421 425 425 c 256
 381 432 353 435 328 434 c 256
 264 432 219 407 219 376 c 256
 219 347 250 325 302 319 c 256
 407 306 465 256 465 175 c 256
 465 67 361 -10 218 -10 c 256
 186 -10 138 -8 83 1 c 256
 60 5 51 22 60 45 c 258
 70 71 l 258
 77 90 92 100 113 97 c 258
 114 97 l 257
 163 88 207 87 230 87 c 256
 305 87 358 119 358 163 c 256
 358 197 331 217 278 222 c 256
 176 232 113 285 113 362 c 256
 113 459 210 530 340 530 c 256
 366 530 411 528 458 519 c 256
 480 515 489 498 480 475 c 257
EndSplineSet
PickledDataWithLists: "(dp0
Vcom.schriftgestaltung.Glyphs.lastChange
p1
V2016-06-09 18:35:34 +0000
p2
s."
EndChar

StartChar: section
Encoding: 167 167 358
GlifName: section
Width: 575
VWidth: 0
Flags: HW
LayerCount: 2
Fore
SplineSet
489 321 m 256
 481 271 448 233 394 211 c 257
 439 176 458 130 450 76 c 256
 434 -24 347 -80 213 -80 c 256
 187 -80 127 -78 80 -69 c 256
 60 -65 52 -46 60 -27 c 258
 70 -1 l 258
 78 20 97 29 117 26 c 257
 157 18 209 17 229 17 c 256
 300 18 339 40 344 73 c 256
 351 112 323 142 259 162 c 256
 138 201 94 245 106 320 c 256
 113 370 146 407 200 430 c 257
 155 465 136 511 144 564 c 256
 160 664 244 720 372 720 c 256
 398 720 443 718 490 709 c 256
 509 705 519 687 510 666 c 258
 499 640 l 258
 491 622 473 611 453 615 c 256
 412 622 376 624 357 624 c 256
 291 622 255 601 250 568 c 256
 244 530 274 497 336 479 c 257
 456 439 501 396 489 321 c 256
  PathStart: -2
294 382 m 257
 288 385 281 387 274 389 c 257
 238 377 217 358 213 335 c 256
 207 301 229 279 301 258 c 257
 316 252 l 257
 356 265 378 284 381 306 c 256
 388 339 365 361 294 382 c 257
  PathStart: -2
EndSplineSet
PickledDataWithLists: "(dp0
Vcom.schriftgestaltung.Glyphs.lastChange
p1
V2015-12-22 14:24:59 +0000
p2
s."
EndChar

StartChar: semicolon
Encoding: 59 59 359
GlifName: semicolon
Width: 575
VWidth: 0
Flags: HW
LayerCount: 2
Fore
SplineSet
279 520 m 257
 379 520 l 257
 399 520 412 506 409 485 c 257
 394 395 l 257
 391 375 374 360 354 360 c 257
 254 360 l 257
 234 360 221 375 224 395 c 257
 239 485 l 257
 242 506 258 520 279 520 c 257
222 160 m 257
 322 160 l 257
 342 160 355 146 352 125 c 257
 333 8 l 257
 304 -175 221 -247 38 -247 c 257
 18 -247 5 -233 8 -213 c 257
 12 -186 l 257
 16 -166 32 -151 52 -151 c 257
 161 -151 208 -111 227 0 c 257
 197 0 l 257
 177 0 164 15 167 35 c 257
 182 125 l 257
 185 146 201 160 222 160 c 257
EndSplineSet
PickledDataWithLists: "(dp0
Vcom.schriftgestaltung.Glyphs.lastChange
p1
V2015-12-23 09:18:29 +0000
p2
s."
EndChar

StartChar: seven
Encoding: 55 55 360
GlifName: seven
Width: 575
VWidth: 0
Flags: HW
LayerCount: 2
Fore
SplineSet
183 720 m 257
 564 720 l 257
 584 720 596 706 592 686 c 257
 585 636 l 257
 576 581 555 534 512 470 c 257
 385 285 l 257
 325 197 289 113 276 34 c 257
 273 14 256 0 235 0 c 257
 201 0 l 257
 180 0 168 14 171 34 c 257
 184 116 229 216 300 326 c 257
 419 506 l 257
 455 560 471 592 478 624 c 257
 238 624 l 257
 222 528 l 257
 219 507 203 493 182 493 c 257
 147 493 l 257
 127 493 114 508 117 528 c 257
 142 685 l 257
 146 706 163 720 183 720 c 257
EndSplineSet
PickledDataWithLists: "(dp0
Vcom.schriftgestaltung.Glyphs.lastChange
p1
V2015-12-22 20:52:37 +0000
p2
s."
EndChar

StartChar: seven.dnom
Encoding: 65576 -1 361
GlifName: seven.dnom
Width: 250
VWidth: 0
Flags: HW
LayerCount: 2
Fore
SplineSet
72 360 m 257
 263 360 l 257
 277 360 286 350 284 338 c 257
 280 313 l 257
 276 285 265 261 242 228 c 257
 178 135 l 257
 150 93 131 51 125 12 c 257
 123 0 111 -10 97 -10 c 257
 80 -10 l 257
 66 -10 57 0 59 12 c 257
 66 54 88 104 125 160 c 257
 184 250 l 257
 199 273 207 288 211 302 c 257
 105 302 l 257
 98 259 l 257
 97 247 84 237 71 237 c 257
 53 237 l 257
 39 237 31 247 32 259 c 257
 45 338 l 257
 47 350 59 360 72 360 c 257
EndSplineSet
PickledDataWithLists: "(dp0
Vcom.schriftgestaltung.Glyphs.Export
p1
I00
sVcom.schriftgestaltung.Glyphs.lastChange
p2
V2015-12-22 13:07:01 +0000
p3
s."
EndChar

StartChar: seven.hex
Encoding: 65577 -1 362
GlifName: seven.hex
Width: 575
VWidth: 0
Flags: HW
LayerCount: 2
Fore
SplineSet
358 875 m 258
 358 829 l 258
 358 812 349 804 333 804 c 258
 298 804 l 258
 281 804 273 813 273 829 c 258
 273 875 l 258
 273 891 282 900 298 900 c 258
 333 900 l 258
 349 900 358 891 358 875 c 258
502 875 m 258
 502 829 l 258
 502 812 493 804 477 804 c 258
 442 804 l 258
 425 804 417 813 417 829 c 258
 417 875 l 258
 417 891 426 900 442 900 c 258
 477 900 l 258
 493 900 502 891 502 875 c 258
646 875 m 258
 646 829 l 258
 646 812 637 804 621 804 c 258
 586 804 l 258
 569 804 561 813 561 829 c 258
 561 875 l 258
 561 891 570 900 586 900 c 258
 621 900 l 258
 637 900 646 891 646 875 c 258
EndSplineSet
Refer: 360 55 N 1 0 0 1 0 0 2
PickledDataWithLists: "(dp0
Vcom.schriftgestaltung.Glyphs.lastChange
p1
V2016-02-10 13:21:27 +0000
p2
s."
EndChar

StartChar: shade
Encoding: 9618 9618 365
GlifName: shade
Width: 575
VWidth: 0
Flags: HW
LayerCount: 2
Fore
SplineSet
0 -250 m 257
 0 -194 l 257
 28 -250 l 257
 0 -250 l 257
143 -250 m 257
 0 36 l 257
 0 92 l 257
 171 -250 l 257
 143 -250 l 257
286 -250 m 257
 0 322 l 257
 0 378 l 257
 314 -250 l 257
 286 -250 l 257
429 -250 m 257
 0 608 l 257
 0 664 l 257
 457 -250 l 257
 429 -250 l 257
575 -250 m 257
 0 900 l 257
 28 900 l 257
 575 -194 l 257
 575 -250 l 257
575 36 m 257
 143 900 l 257
 171 900 l 257
 575 92 l 257
 575 36 l 257
575 322 m 257
 286 900 l 257
 314 900 l 257
 575 378 l 257
 575 322 l 257
575 608 m 257
 429 900 l 257
 457 900 l 257
 575 664 l 257
 575 608 l 257
EndSplineSet
PickledDataWithLists: "(dp0
Vcom.schriftgestaltung.Glyphs.lastChange
p1
V2016-06-10 08:26:49 +0000
p2
s."
EndChar

StartChar: sigma
Encoding: 963 963 366
GlifName: sigma
Width: 575
VWidth: 0
Flags: HW
LayerCount: 2
Fore
SplineSet
532 423 m 258
 499 423 l 257
 515 380 523 337 523 297 c 256
 523 111 411 -15 243 -15 c 256
 122 -15 50 64 50 197 c 256
 50 396 167 520 355 520 c 258
 545 520 l 258
 567 520 579 506 576 484 c 257
 576 483 l 257
 571 456 l 257
 571 457 l 257
 568 436 553 423 532 423 c 258
390 423 m 257
 342 423 l 258
 224 423 156 346 156 210 c 256
 156 128 192 82 255 82 c 256
 354 82 417 166 417 297 c 256
 417 339 408 382 390 423 c 257
EndSplineSet
PickledDataWithLists: "(dp0
Vcom.schriftgestaltung.Glyphs.lastChange
p1
V2015-12-22 12:47:01 +0000
p2
s."
EndChar

StartChar: six
Encoding: 54 54 367
GlifName: six
Width: 575
VWidth: 0
Flags: HW
LayerCount: 2
Fore
SplineSet
511 678 m 257
 500 650 l 258
 492 631 476 621 456 625 c 256
 432 630 411 632 393 632 c 256
 294 632 221 560 182 427 c 257
 237 442 277 449 313 449 c 256
 429 449 504 375 504 261 c 256
 504 110 389 -10 242 -10 c 256
 112 -10 45 74 45 233 c 256
 45 473 172 730 403 730 c 256
 427 730 456 727 489 722 c 257
 510 718 518 700 512 679 c 257
 511 678 l 257
152 247 m 256
 152 142 188 88 257 88 c 256
 335 88 397 161 397 250 c 256
 397 315 362 351 297 351 c 256
 270 351 222 349 159 320 c 257
 155 290 152 270 152 247 c 256
  PathStart: -2
EndSplineSet
PickledDataWithLists: "(dp0
Vcom.schriftgestaltung.Glyphs.lastChange
p1
V2015-12-22 20:52:27 +0000
p2
s."
EndChar

StartChar: six.dnom
Encoding: 65579 -1 368
GlifName: six.dnom
Width: 250
VWidth: 0
Flags: HW
LayerCount: 2
Fore
SplineSet
244 334 m 257
 239 319 l 257
 234 310 220 300 207 303 c 257
 194 305 184 306 173 306 c 256
 132 306 99 286 77 200 c 257
 100 206 124 210 146 210 c 256
 211 210 248 167 238 103 c 256
 226 29 177 -15 101 -15 c 256
 18 -15 -16 45 0 150 c 256
 26 315 101 365 182 365 c 256
 197 365 213 364 228 361 c 257
 243 359 247 345 244 334 c 257
65 137 m 257
 56 68 73 44 110 44 c 256
 148 44 164 58 171 103 c 256
 175 133 162 151 136 151 c 256
 115 151 93 146 65 137 c 257
  PathStart: -2
EndSplineSet
PickledDataWithLists: "(dp0
Vcom.schriftgestaltung.Glyphs.Export
p1
I00
sVcom.schriftgestaltung.Glyphs.lastChange
p2
V2015-12-22 13:06:37 +0000
p3
s."
EndChar

StartChar: six.hex
Encoding: 65580 -1 369
GlifName: six.hex
Width: 575
VWidth: 0
Flags: HW
LayerCount: 2
Fore
SplineSet
358 875 m 258
 358 829 l 258
 358 812 349 804 333 804 c 258
 298 804 l 258
 281 804 273 813 273 829 c 258
 273 875 l 258
 273 891 282 900 298 900 c 258
 333 900 l 258
 349 900 358 891 358 875 c 258
502 875 m 258
 502 829 l 258
 502 812 493 804 477 804 c 258
 442 804 l 258
 425 804 417 813 417 829 c 258
 417 875 l 258
 417 891 426 900 442 900 c 258
 477 900 l 258
 493 900 502 891 502 875 c 258
EndSplineSet
Refer: 367 54 N 1 0 0 1 0 0 2
PickledDataWithLists: "(dp0
Vcom.schriftgestaltung.Glyphs.lastChange
p1
V2016-02-10 13:21:08 +0000
p2
s."
EndChar

StartChar: slash
Encoding: 47 47 371
GlifName: slash
Width: 575
VWidth: 0
Flags: HW
LayerCount: 2
Back
SplineSet
377 686 m 257
 383 704 402 711 421 702 c 257
 455 686 l 257
 475 677 484 657 478 640 c 257
 196 -186 l 257
 190 -204 171 -211 152 -202 c 257
 118 -186 l 257
 98 -177 89 -157 95 -140 c 257
 377 686 l 257
EndSplineSet
Fore
SplineSet
402 686 m 257
 408 704 427 711 446 702 c 257
 480 686 l 257
 500 677 509 657 503 640 c 257
 171 -186 l 257
 165 -204 146 -211 127 -202 c 257
 93 -186 l 257
 73 -177 64 -157 70 -140 c 257
 402 686 l 257
EndSplineSet
PickledDataWithLists: "(dp0
Vcom.schriftgestaltung.Glyphs.lastChange
p1
V2016-06-09 18:35:33 +0000
p2
s."
EndChar

StartChar: sterling
Encoding: 163 163 373
GlifName: sterling
Width: 575
VWidth: 0
Flags: HW
LayerCount: 2
Fore
SplineSet
522 518 m 258
 487 518 l 258
 465 518 452 532 452 554 c 256
 452 606 429 634 388 634 c 256
 345 634 313 600 305 546 c 258
 283 409 l 257
 447 409 l 258
 470 409 482 394 478 373 c 257
 474 345 l 257
 470 324 455 312 435 312 c 258
 268 312 l 257
 234 97 l 257
 438 97 l 258
 460 97 472 84 469 61 c 258
 469 60 l 257
 464 33 l 257
 464 34 l 257
 461 12 447 0 425 0 c 258
 70 0 l 258
 48 0 36 14 39 36 c 258
 39 37 l 257
 44 64 l 257
 44 63 l 257
 47 84 62 97 83 97 c 258
 128 97 l 257
 162 312 l 257
 120 312 l 258
 97 312 85 327 89 349 c 258
 93 375 l 258
 97 396 111 409 132 409 c 258
 177 409 l 257
 200 550 l 258
 219 666 289 730 400 730 c 256
 506 730 559 671 559 554 c 256
 559 532 544 518 522 518 c 258
EndSplineSet
PickledDataWithLists: "(dp0
Vcom.schriftgestaltung.Glyphs.lastChange
p1
V2015-12-22 14:04:47 +0000
p2
s."
EndChar

StartChar: summation
Encoding: 8721 8721 374
GlifName: summation
Width: 575
VWidth: 0
Flags: HW
LayerCount: 2
Fore
SplineSet
602 684 m 258
 598 657 l 258
 595 637 577 622 557 622 c 258
 254 622 l 257
 456 384 l 258
 468 370 465 350 448 335 c 258
 171 97 l 257
 474 97 l 258
 494 97 507 82 504 62 c 258
 499 35 l 258
 496 15 479 0 459 0 c 258
 36 0 l 258
 16 0 3 15 7 36 c 258
 9 53 l 258
 12 68 16 80 26 90 c 257
 27 90 l 257
 339 359 l 257
 112 629 l 257
 111 629 l 257
 105 639 104 651 106 666 c 258
 109 683 l 258
 112 704 130 719 150 719 c 258
 573 719 l 258
 593 719 605 704 602 684 c 258
EndSplineSet
PickledDataWithLists: "(dp0
Vcom.schriftgestaltung.Glyphs.lastChange
p1
V2015-12-22 12:21:09 +0000
p2
s."
EndChar

StartChar: t
Encoding: 116 116 375
GlifName: t
Width: 575
VWidth: 0
Flags: HW
AnchorPoint: "bottom" 259 0 basechar 0
AnchorPoint: "top" 341 520 basechar 0
AnchorPoint: "topright" 621 520 basechar 0
AnchorPoint: "center" 300 260 basechar 0
LayerCount: 2
Fore
SplineSet
466 68 m 258
 468 42 l 257
 471 21 458 5 437 1 c 256
 381 -9 337 -10 310 -10 c 256
 204 -10 156 28 156 115 c 256
 156 130 157 146 160 164 c 258
 202 424 l 257
 138 424 l 258
 115 424 103 439 107 461 c 258
 111 486 l 257
 114 507 128 520 150 520 c 258
 216 520 l 257
 236 647 l 258
 240 668 255 680 275 680 c 258
 311 680 l 258
 334 680 346 665 342 643 c 258
 323 520 l 257
 475 520 l 258
 497 520 509 507 506 483 c 257
 502 457 l 258
 498 436 483 424 463 424 c 258
 308 424 l 257
 265 161 l 258
 263 150 263 140 263 132 c 256
 263 97 279 87 322 87 c 256
 345 87 384 89 427 96 c 256
 450 100 465 90 466 68 c 258
EndSplineSet
PickledDataWithLists: "(dp0
Vcom.schriftgestaltung.Glyphs.lastChange
p1
V2016-06-09 18:35:34 +0000
p2
s."
EndChar

StartChar: tau
Encoding: 964 964 376
GlifName: tau
Width: 575
VWidth: 0
Flags: HW
LayerCount: 2
Fore
SplineSet
490 44 m 257
 489 45 l 257
 495 24 482 6 458 0 c 256
 418 -9 386 -10 366 -10 c 256
 247 -10 201 44 219 160 c 258
 261 424 l 257
 121 424 l 258
 99 424 88 437 92 459 c 258
 96 485 l 258
 99 507 114 520 136 520 c 258
 521 520 l 258
 543 520 554 507 551 485 c 258
 547 459 l 258
 543 437 529 424 507 423 c 257
 366 423 l 257
 324 160 l 258
 315 105 329 88 382 87 c 256
 405 87 426 89 446 94 c 257
 467 98 481 90 485 71 c 257
 486 70 l 257
 490 44 l 257
EndSplineSet
PickledDataWithLists: "(dp0
Vcom.schriftgestaltung.Glyphs.lastChange
p1
V2016-05-30 08:33:06 +0000
p2
s."
EndChar

StartChar: tbar
Encoding: 359 359 377
GlifName: tbar
Width: 575
VWidth: 0
Flags: HW
LayerCount: 2
Fore
SplineSet
457 82 m 257
 464 56 l 258
 469 35 459 17 437 11 c 257
 398 -3 359 -10 325 -10 c 256
 220 -10 164 49 164 155 c 256
 164 171 166 190 170 224 c 257
 104 224 l 258
 83 224 72 238 75 259 c 258
 79 285 l 258
 82 307 98 320 120 320 c 258
 186 320 l 257
 202 424 l 257
 136 424 l 258
 115 424 103 438 107 459 c 258
 111 485 l 258
 114 507 129 520 151 520 c 258
 217 520 l 257
 237 645 l 258
 240 666 257 680 278 680 c 258
 313 680 l 258
 334 680 345 666 342 645 c 258
 322 520 l 257
 476 520 l 258
 498 520 509 507 506 485 c 258
 502 459 l 258
 498 438 482 424 461 424 c 258
 307 424 l 257
 291 320 l 257
 445 320 l 258
 467 320 477 307 474 285 c 258
 470 259 l 258
 467 238 450 224 429 224 c 258
 275 224 l 257
 270 191 269 175 269 164 c 256
 269 110 292 88 341 88 c 256
 366 88 388 92 414 101 c 256
 435 109 451 102 457 82 c 257
EndSplineSet
PickledDataWithLists: "(dp0
Vcom.schriftgestaltung.Glyphs.lastChange
p1
V2016-06-09 18:35:34 +0000
p2
s."
EndChar

StartChar: therefore
Encoding: 8756 8756 379
GlifName: therefore
Width: 575
VWidth: 0
Flags: HW
LayerCount: 2
Fore
SplineSet
34 96 m 258
 48 183 l 258
 51 204 67 218 88 218 c 258
 193 218 l 258
 215 218 226 205 223 183 c 258
 209 96 l 258
 206 74 190 61 168 61 c 258
 63 61 l 258
 41 61 31 74 34 96 c 258
314 96 m 258
 328 183 l 258
 331 204 347 218 368 218 c 258
 473 218 l 258
 495 218 506 205 503 183 c 258
 489 96 l 258
 486 74 470 61 448 61 c 258
 343 61 l 258
 321 61 311 74 314 96 c 258
222 398 m 258
 236 485 l 258
 239 507 254 520 276 520 c 258
 381 520 l 258
 403 520 414 507 411 485 c 258
 397 398 l 258
 393 376 378 363 356 363 c 258
 251 363 l 258
 230 363 219 377 222 398 c 258
EndSplineSet
PickledDataWithLists: "(dp0
Vcom.schriftgestaltung.Glyphs.lastChange
p1
V2015-12-22 14:20:54 +0000
p2
s."
EndChar

StartChar: theta
Encoding: 952 952 380
GlifName: theta
Width: 575
VWidth: 0
Flags: HW
LayerCount: 2
Fore
SplineSet
89 362 m 256
 128 604 219 730 359 730 c 256
 470 730 526 652 526 500 c 256
 526 458 522 410 514 358 c 256
 476 116 385 -10 245 -10 c 256
 134 -10 77 70 77 222 c 256
 77 264 81 311 89 362 c 256
  PathStart: -2
203 409 m 257
 415 409 l 257
 419 440 421 468 421 495 c 256
 421 588 396 634 347 634 c 256
 283 634 233 558 203 409 c 257
400 311 m 257
 188 311 l 257
 184 280 182 252 182 227 c 256
 182 133 208 87 257 87 c 256
 321 87 371 164 400 311 c 257
EndSplineSet
PickledDataWithLists: "(dp0
Vcom.schriftgestaltung.Glyphs.lastChange
p1
V2015-12-22 16:32:52 +0000
p2
s."
EndChar

StartChar: thorn
Encoding: 254 254 381
GlifName: thorn
Width: 575
VWidth: 0
Flags: HW
AnchorPoint: "top" 340 500 basechar 0
AnchorPoint: "bottom" 260 0 basechar 0
LayerCount: 2
Fore
SplineSet
247 684 m 258
 223 528 l 257
 254 531 281 532 300 532 c 256
 447 532 508 472 508 329 c 256
 508 109 407 -8 218 -8 c 256
 200 -8 172 -7 138 -5 c 257
 113 -166 l 258
 109 -187 95 -200 75 -200 c 258
 40 -200 l 258
 16 -200 4 -186 8 -164 c 258
 142 686 l 257
 146 707 161 720 180 720 c 258
 215 720 l 258
 239 720 251 707 247 684 c 258
208 433 m 257
 154 91 l 257
 185 89 212 88 230 88 c 256
 345 88 402 163 402 315 c 256
 402 406 374 435 288 435 c 256
 271 435 243 435 208 433 c 257
EndSplineSet
PickledDataWithLists: "(dp0
Vcom.schriftgestaltung.Glyphs.lastChange
p1
V2016-06-09 18:35:34 +0000
p2
s."
EndChar

StartChar: three
Encoding: 51 51 382
GlifName: three
Width: 575
VWidth: 0
Flags: HW
LayerCount: 2
Fore
SplineSet
174 646 m 258
 171 674 l 258
 168 695 180 711 201 716 c 256
 239 725 280 730 321 730 c 256
 457 730 537 669 537 563 c 256
 537 485 493 423 405 374 c 257
 460 339 491 282 491 212 c 256
 491 80 373 -10 202 -10 c 256
 159 -10 118 -5 80 4 c 256
 60 10 53 28 62 49 c 258
 74 77 l 258
 83 96 100 104 119 99 c 256
 149 92 181 88 214 88 c 256
 324 88 386 134 386 214 c 256
 386 282 339 324 262 324 c 258
 211 324 l 258
 188 324 176 339 180 360 c 257
 184 387 l 258
 187 408 202 421 223 421 c 258
 274 421 l 258
 367 421 430 473 430 549 c 256
 430 607 394 632 309 632 c 256
 278 632 247 628 215 621 c 256
 193 616 177 625 174 646 c 258
EndSplineSet
PickledDataWithLists: "(dp0
Vcom.schriftgestaltung.Glyphs.lastChange
p1
V2015-12-22 20:51:58 +0000
p2
s."
EndChar

StartChar: three.dnom
Encoding: 65582 -1 383
GlifName: three.dnom
Width: 250
VWidth: 0
Flags: HW
LayerCount: 2
Fore
SplineSet
60 316 m 258
 59 330 l 257
 58 340 64 354 80 358 c 256
 99 363 121 365 142 365 c 256
 204 365 266 338 254 263 c 256
 248 222 230 193 196 175 c 257
 225 158 238 129 232 92 c 256
 219 13 144 -15 80 -15 c 256
 58 -15 36 -13 17 -8 c 256
 3 -4 1 10 5 21 c 257
 11 35 l 258
 16 45 31 53 43 50 c 256
 58 46 72 44 89 44 c 256
 133 44 159 56 165 92 c 256
 170 126 147 147 109 147 c 258
 84 147 l 258
 70 147 60 158 62 170 c 258
 64 183 l 258
 66 195 79 206 93 206 c 258
 118 206 l 258
 155 206 182 228 187 263 c 256
 192 294 173 306 133 306 c 256
 118 306 103 304 87 301 c 257
 88 301 l 257
 76 298 62 304 60 316 c 258
EndSplineSet
PickledDataWithLists: "(dp0
Vcom.schriftgestaltung.Glyphs.Export
p1
I00
sVcom.schriftgestaltung.Glyphs.lastChange
p2
V2015-12-22 13:05:35 +0000
p3
s."
EndChar

StartChar: three.hex
Encoding: 65583 -1 384
GlifName: three.hex
Width: 575
VWidth: 0
Flags: HW
LayerCount: 2
Fore
SplineSet
502 875 m 258
 502 829 l 258
 502 812 494 804 477 804 c 258
 442 804 l 258
 426 804 417 813 417 829 c 258
 417 875 l 258
 417 891 426 900 442 900 c 258
 477 900 l 258
 494 900 502 891 502 875 c 258
646 875 m 258
 646 829 l 258
 646 812 637 804 621 804 c 258
 586 804 l 258
 569 804 561 813 561 829 c 258
 561 875 l 258
 561 891 570 900 586 900 c 258
 621 900 l 258
 637 900 646 891 646 875 c 258
EndSplineSet
Refer: 382 51 N 1 0 0 1 0 0 2
PickledDataWithLists: "(dp0
Vcom.schriftgestaltung.Glyphs.lastChange
p1
V2016-02-10 13:19:26 +0000
p2
s."
EndChar

StartChar: tilde
Encoding: 732 732 388
GlifName: tilde
Width: 575
VWidth: 0
Flags: HW
AnchorPoint: "top" 328 500 mark 0
LayerCount: 2
Fore
SplineSet
204 585 m 258
 192 594 l 258
 180 603 180 615 192 629 c 256
 233 673 276 698 315 698 c 256
 339 698 370 685 402 661 c 256
 423 646 442 638 459 638 c 256
 478 638 498 647 516 664 c 257
 527 676 540 678 552 670 c 258
 563 661 l 258
 576 651 576 639 563 626 c 256
 521 581 478 557 440 557 c 256
 417 557 386 570 353 593 c 256
 332 608 309 616 291 616 c 256
 275 616 258 607 240 591 c 256
 228 579 215 577 204 585 c 258
EndSplineSet
PickledDataWithLists: "(dp0
Vcom.schriftgestaltung.Glyphs.lastChange
p1
V2015-12-22 16:32:44 +0000
p2
s."
EndChar

StartChar: trademark
Encoding: 8482 8482 389
GlifName: trademark
Width: 575
VWidth: 0
Flags: HW
LayerCount: 2
Fore
SplineSet
452 545 m 257
 531 694 l 257
 536 704 546 713 559 718 c 256
 565 721 573 722 585 722 c 256
 601 722 609 710 607 696 c 258
 557 381 l 257
 555 367 543 355 528 355 c 258
 507 355 l 258
 493 355 483 365 485 377 c 256
 491 418 503 486 513 549 c 257
 495 518 l 258
 481 494 458 478 435 478 c 256
 410 478 390 494 384 518 c 258
 377 544 l 257
 369 490 360 426 353 377 c 256
 351 366 338 355 323 355 c 258
 302 355 l 258
 288 355 278 367 280 381 c 258
 330 696 l 258
 332 710 346 722 361 722 c 256
 374 722 380 721 388 718 c 257
 398 712 404 703 406 693 c 257
 438 545 l 257
 440 539 441 538 444 538 c 256
 447 538 448 539 452 545 c 257
121 719 m 258
 284 719 l 258
 298 719 308 709 306 694 c 258
 303 677 l 258
 301 663 287 651 273 651 c 258
 228 651 l 257
 185 381 l 258
 183 367 171 355 155 355 c 258
 134 355 l 258
 118 355 110 367 112 381 c 258
 155 651 l 257
 110 651 l 258
 95 651 87 663 89 677 c 258
 92 694 l 258
 94 707 106 719 121 719 c 258
EndSplineSet
PickledDataWithLists: "(dp0
Vcom.schriftgestaltung.Glyphs.lastChange
p1
V2015-12-22 14:25:18 +0000
p2
s."
EndChar

StartChar: two
Encoding: 50 50 390
GlifName: two
Width: 575
VWidth: 0
Flags: HW
LayerCount: 2
Fore
SplineSet
156 97 m 257
 463 97 l 257
 483 97 496 82 493 62 c 257
 488 34 l 257
 485 14 468 -1 448 -1 c 257
 68 -1 l 257
 48 -1 35 14 38 34 c 257
 42 58 l 257
 64 198 185 274 264 327 c 257
 355 391 444 452 444 541 c 256
 444 606 399 632 324 632 c 257
 284 632 246 624 198 608 c 257
 177 602 161 611 157 630 c 257
 152 655 l 257
 147 674 159 693 178 700 c 257
 230 719 287 730 339 730 c 257
 452 730 551 680 551 556 c 256
 551 415 431 330 316 250 c 257
 242 199 177 154 156 97 c 257
EndSplineSet
PickledDataWithLists: "(dp0
Vcom.schriftgestaltung.Glyphs.lastChange
p1
V2015-12-22 20:51:50 +0000
p2
s."
EndChar

StartChar: two.dnom
Encoding: 65585 -1 391
GlifName: two.dnom
Width: 250
VWidth: 0
Flags: HW
LayerCount: 2
Fore
SplineSet
68 49 m 257
 213 49 l 258
 228 49 235 37 234 26 c 258
 231 12 l 258
 230 1 218 -11 204 -11 c 258
 14 -11 l 258
 0 -11 -10 0 -8 12 c 258
 -6 24 l 258
 6 97 69 136 109 163 c 256
 155 195 188 219 194 257 c 256
 200 292 180 306 142 306 c 256
 122 306 105 302 81 295 c 257
 68 291 55 297 52 308 c 258
 49 321 l 257
 46 332 55 345 68 350 c 257
 94 360 124 365 151 365 c 256
 216 365 273 333 261 257 c 256
 251 192 193 152 142 116 c 256
 108 93 80 73 68 49 c 257
EndSplineSet
PickledDataWithLists: "(dp0
Vcom.schriftgestaltung.Glyphs.Export
p1
I00
sVcom.schriftgestaltung.Glyphs.lastChange
p2
V2015-12-22 13:05:14 +0000
p3
s."
EndChar

StartChar: two.hex
Encoding: 65586 -1 392
GlifName: two.hex
Width: 575
VWidth: 0
Flags: HW
LayerCount: 2
Fore
SplineSet
502 875 m 258
 502 829 l 258
 502 812 494 804 477 804 c 258
 442 804 l 258
 426 804 417 813 417 829 c 258
 417 875 l 258
 417 891 426 900 442 900 c 258
 477 900 l 258
 494 900 502 891 502 875 c 258
EndSplineSet
Refer: 390 50 N 1 0 0 1 0 0 2
PickledDataWithLists: "(dp0
Vcom.schriftgestaltung.Glyphs.lastChange
p1
V2016-05-30 08:38:37 +0000
p2
s."
EndChar

StartChar: u
Encoding: 117 117 395
GlifName: u
Width: 575
VWidth: 0
Flags: HW
AnchorPoint: "ogonek" 472 10 basechar 0
AnchorPoint: "top" 329 570 basechar 0
AnchorPoint: "topright" 592 520 basechar 0
AnchorPoint: "bottom" 247 0 basechar 0
LayerCount: 2
Fore
SplineSet
354 37 m 258
 356 48 l 257
 309 11 260 -10 212 -10 c 256
 89 -10 47 69 74 234 c 258
 114 486 l 258
 117 508 131 520 153 520 c 258
 188 520 l 258
 210 520 222 506 219 483 c 258
 179 230 l 258
 161 122 175 86 242 86 c 256
 281 86 326 114 375 166 c 257
 426 486 l 258
 429 507 444 520 465 520 c 258
 500 520 l 258
 522 520 534 506 531 483 c 258
 460 39 l 258
 457 16 442 0 422 0 c 258
 385 0 l 258
 363 0 351 14 354 37 c 258
EndSplineSet
PickledDataWithLists: "(dp0
Vcom.schriftgestaltung.Glyphs.lastChange
p1
V2016-06-09 18:35:34 +0000
p2
s."
EndChar

StartChar: underscore
Encoding: 95 95 403
GlifName: underscore
Width: 575
VWidth: 0
Flags: HW
LayerCount: 2
Fore
SplineSet
-10 -62 m 257
 -6 -35 l 257
 -3 -15 15 0 35 0 c 257
 458 0 l 257
 478 0 490 -15 487 -35 c 257
 483 -62 l 257
 480 -82 463 -97 442 -97 c 257
 19 -97 l 257
 -1 -97 -13 -82 -10 -62 c 257
EndSplineSet
PickledDataWithLists: "(dp0
Vcom.schriftgestaltung.Glyphs.lastChange
p1
V2015-12-23 09:18:36 +0000
p2
s."
EndChar

StartChar: mu
Encoding: 181 181 405
GlifName: uni00B_5
Width: 575
VWidth: 0
Flags: HW
LayerCount: 2
Fore
SplineSet
470 520 m 258
 505 520 l 258
 528 520 539 507 536 483 c 257
 465 39 l 258
 462 18 450 6 430 3 c 256
 354 -9 290 -10 257 -10 c 256
 206 -10 168 -2 141 15 c 257
 107 -205 l 258
 103 -226 88 -238 68 -238 c 258
 33 -238 l 258
 10 -238 -2 -223 2 -201 c 258
 111 486 l 257
 114 507 128 520 150 520 c 258
 185 520 l 258
 207 520 219 507 216 483 c 258
 171 201 l 258
 157 115 181 87 269 87 c 256
 291 87 326 88 368 90 c 257
 431 486 l 258
 434 507 449 520 470 520 c 258
EndSplineSet
PickledDataWithLists: "(dp0
Vcom.schriftgestaltung.Glyphs.lastChange
p1
V2015-12-22 16:32:55 +0000
p2
s."
EndChar

StartChar: uni0237
Encoding: 567 567 408
GlifName: uni0237
Width: 575
VWidth: 0
Flags: HW
LayerCount: 2
Fore
SplineSet
244 522 m 256
 288 529 320 532 348 532 c 256
 460 532 514 481 514 375 c 256
 514 354 512 333 508 308 c 258
 479 128 l 258
 450 -55 343 -160 182 -160 c 256
 129 -160 78 -150 33 -129 c 257
 14 -121 9 -103 20 -82 c 257
 34 -58 l 258
 45 -39 62 -32 81 -40 c 257
 122 -55 155 -62 194 -62 c 256
 295 -62 353 1 373 132 c 258
 402 312 l 258
 405 330 407 347 407 361 c 256
 407 415 387 435 333 435 c 256
 310 435 283 431 250 425 c 256
 226 421 211 433 212 455 c 257
 211 483 l 257
 211 504 223 518 244 522 c 256
  PathStart: -2
EndSplineSet
PickledDataWithLists: "(dp0
Vcom.schriftgestaltung.Glyphs.lastChange
p1
V2016-06-09 18:35:33 +0000
p2
s."
EndChar

StartChar: uni0394
Encoding: 916 916 409
GlifName: uni0394
Width: 575
VWidth: 0
Flags: HW
LayerCount: 2
Fore
SplineSet
449 634 m 258
 533 41 l 257
 536 18 520 0 496 0 c 258
 -2 0 l 258
 -27 0 -37 18 -28 41 c 257
 244 634 l 258
 272 694 317 732 362 732 c 256
 407 732 441 694 449 634 c 258
344 612 m 257
 103 95 l 257
 420 95 l 257
 344 612 l 257
EndSplineSet
PickledDataWithLists: "(dp0
Vcom.schriftgestaltung.Glyphs.lastChange
p1
V2015-12-22 12:15:12 +0000
p2
s."
EndChar

StartChar: uni03A9
Encoding: 937 937 410
GlifName: uni03A_9
Width: 575
VWidth: 0
Flags: HW
LayerCount: 2
Fore
SplineSet
373 96 m 257
 462 96 l 258
 483 96 495 82 491 61 c 258
 487 35 l 258
 484 13 469 0 447 0 c 258
 298 0 l 258
 276 0 265 13 268 35 c 258
 288 157 l 258
 291 175 301 187 321 195 c 256
 366 214 396 267 410 353 c 258
 428 467 l 258
 432 489 433 509 433 527 c 256
 433 599 404 634 347 634 c 256
 276 634 232 579 214 467 c 258
 196 353 l 258
 182 267 196 214 235 195 c 256
 251 187 259 175 256 157 c 258
 236 35 l 258
 233 13 218 0 196 0 c 258
 47 0 l 258
 25 0 14 13 17 35 c 258
 21 61 l 258
 25 82 41 96 62 96 c 258
 151 96 l 257
 155 124 l 257
 95 165 73 243 91 353 c 258
 109 467 l 258
 135 635 226 730 362 730 c 256
 477 730 539 662 539 538 c 256
 539 516 537 492 533 467 c 258
 515 353 l 258
 497 243 451 165 377 124 c 257
 373 96 l 257
EndSplineSet
PickledDataWithLists: "(dp0
Vcom.schriftgestaltung.Glyphs.lastChange
p1
V2015-12-22 12:25:35 +0000
p2
s."
EndChar

StartChar: uni03BC
Encoding: 956 956 411
GlifName: uni03B_C_
Width: 575
VWidth: 0
Flags: HW
LayerCount: 2
Fore
SplineSet
471 520 m 258
 506 520 l 258
 527 520 539 506 536 485 c 258
 465 39 l 258
 462 20 449 6 427 2 c 257
 352 -9 287 -10 254 -10 c 256
 200 -10 166 -1 142 20 c 257
 105 -215 l 258
 101 -237 86 -250 64 -250 c 258
 29 -250 l 258
 8 -250 -4 -236 0 -215 c 258
 111 485 l 258
 114 507 129 520 151 520 c 258
 186 520 l 258
 207 520 219 506 216 485 c 258
 171 202 l 258
 157 115 182 86 269 86 c 256
 291 86 327 87 368 89 c 257
 431 485 l 258
 434 507 449 520 471 520 c 258
EndSplineSet
PickledDataWithLists: "(dp0
Vcom.schriftgestaltung.Glyphs.lastChange
p1
V2015-12-22 12:42:40 +0000
p2
s."
EndChar

StartChar: afii10018
Encoding: 1041 1041 420
GlifName: uni0411
Width: 600
VWidth: 0
Flags: HW
LayerCount: 2
Fore
SplineSet
209 440 m 257
 274 440 l 258
 430 440 524 370 524 246 c 256
 524 96 379 0 204 0 c 258
 69 0 l 258
 47 0 36 14 39 35 c 258
 142 685 l 258
 146 706 161 720 183 720 c 258
 503 720 l 258
 524 720 536 706 532 685 c 258
 528 658 l 258
 525 637 509 623 487 623 c 258
 237 623 l 257
 209 440 l 257
154 96 m 257
 219 96 l 258
 331 96 418 147 418 234 c 256
 418 306 360 344 258 344 c 258
 193 344 l 257
 154 96 l 257
EndSplineSet
PickledDataWithLists: "(dp0
Vcom.schriftgestaltung.Glyphs.lastChange
p1
V2016-06-09 18:35:34 +0000
p2
s."
EndChar

StartChar: afii10020
Encoding: 1043 1043 422
GlifName: uni0413
Width: 600
VWidth: 0
Flags: HW
AnchorPoint: "top" 373 720 basechar 0
AnchorPoint: "bottomright" 539 0 basechar 0
LayerCount: 2
Fore
SplineSet
627 658 m 258
 624 637 608 623 586 623 c 258
 237 623 l 257
 144 35 l 258
 141 13 126 0 104 0 c 258
 69 0 l 258
 47 0 36 14 39 35 c 258
 142 685 l 258
 146 706 161 720 183 720 c 258
 602 720 l 258
 623 720 635 706 631 685 c 258
 627 658 l 258
  PathStart: -2
EndSplineSet
PickledDataWithLists: "(dp0
Vcom.schriftgestaltung.Glyphs.lastChange
p1
V2016-06-09 18:35:34 +0000
p2
s."
EndChar

StartChar: afii10021
Encoding: 1044 1044 423
GlifName: uni0414
Width: 575
VWidth: 0
Flags: HW
LayerCount: 2
Fore
SplineSet
536 685 m 258
 428 3 l 257
 459 3 l 258
 480 3 492 -11 489 -32 c 258
 465 -185 l 258
 461 -206 445 -220 424 -220 c 258
 389 -220 l 258
 368 -220 356 -206 360 -185 c 258
 374 -95 l 257
 89 -95 l 257
 75 -185 l 258
 71 -206 55 -220 34 -220 c 258
 -1 -220 l 258
 -22 -220 -34 -206 -30 -185 c 258
 -6 -32 l 258
 -3 -11 13 3 34 3 c 258
 45 3 l 257
 107 121 134 292 150 390 c 258
 196 685 l 258
 200 706 216 720 237 720 c 258
 507 720 l 258
 528 720 540 706 536 685 c 258
291 622 m 257
 255 390 l 258
 226 211 195 86 136 3 c 257
 323 3 l 257
 421 622 l 257
 291 622 l 257
EndSplineSet
PickledDataWithLists: "(dp0
Vcom.schriftgestaltung.Glyphs.lastChange
p1
V2016-06-09 18:35:34 +0000
p2
s."
EndChar

StartChar: afii10024
Encoding: 1046 1046 425
GlifName: uni0416
Width: 575
VWidth: 0
Flags: HW
AnchorPoint: "top" 361 720 basechar 0
AnchorPoint: "bottomright" 514 0 basechar 0
LayerCount: 2
Fore
SplineSet
616 677 m 258
 456 396 l 258
 450 385 439 375 426 367 c 257
 437 359 444 349 447 339 c 258
 513 44 l 258
 519 19 504 0 478 0 c 258
 447 0 l 258
 429 0 416 9 413 24 c 258
 347 301 l 273
 347 301 347 303 347 303 c 257
 304 35 l 257
 301 13 286 0 264 0 c 258
 229 0 l 258
 208 0 196 14 199 35 c 258
 242 303 l 257
 242 303 240 301 240 301 c 257
 88 24 l 258
 79 9 64 0 46 0 c 258
 15 0 l 258
 -11 0 -20 19 -6 44 c 258
 154 339 l 258
 159 349 170 359 183 367 c 257
 172 375 165 385 163 396 c 258
 91 677 l 258
 85 701 100 720 126 720 c 258
 157 720 l 258
 175 720 187 712 191 696 c 258
 261 433 l 257
 261 433 262 431 262 431 c 257
 302 685 l 258
 306 706 322 720 343 720 c 258
 378 720 l 258
 400 720 411 707 407 685 c 258
 367 431 l 257
 367 431 368 433 368 433 c 257
 522 696 l 258
 532 712 546 720 564 720 c 258
 595 720 l 258
 621 720 630 701 616 677 c 258
EndSplineSet
PickledDataWithLists: "(dp0
Vcom.schriftgestaltung.Glyphs.lastChange
p1
V2016-05-23 13:11:20 +0000
p2
s."
EndChar

StartChar: afii10026
Encoding: 1048 1048 427
GlifName: uni0418
Width: 575
VWidth: 0
Flags: HW
AnchorPoint: "top" 361 720 basechar 0
AnchorPoint: "bottomright" 514 0 basechar 0
LayerCount: 2
Fore
SplineSet
127 689 m 258
 130 709 149 725 169 725 c 258
 203 725 l 258
 223 725 235 710 232 689 c 258
 155 201 l 257
 462 683 l 258
 480 711 505 725 537 725 c 258
 553 725 l 258
 576 725 588 712 584 690 c 258
 481 36 l 258
 477 16 459 0 439 0 c 258
 405 0 l 258
 385 0 372 15 376 36 c 258
 451 515 l 257
 145 41 l 258
 127 13 102 0 71 0 c 258
 55 0 l 258
 32 0 20 13 23 35 c 258
 127 689 l 258
  PathStart: -2
EndSplineSet
PickledDataWithLists: "(dp0
Vcom.schriftgestaltung.Glyphs.lastChange
p1
V2016-05-23 13:11:39 +0000
p2
s."
EndChar

StartChar: afii10029
Encoding: 1051 1051 430
GlifName: uni041B_
Width: 575
VWidth: 0
Flags: HW
LayerCount: 2
Fore
SplineSet
587 685 m 258
 484 35 l 258
 481 14 465 0 444 0 c 258
 409 0 l 258
 388 0 376 14 379 35 c 258
 472 622 l 257
 273 622 l 257
 256 510 l 258
 201 164 130 11 5 -16 c 256
 -18 -21 -31 -7 -27 17 c 258
 -21 56 l 258
 -19 72 -10 82 10 92 c 256
 65 118 111 261 151 510 c 258
 178 685 l 258
 182 706 198 720 219 720 c 258
 558 720 l 258
 579 720 591 706 587 685 c 258
EndSplineSet
PickledDataWithLists: "(dp0
Vcom.schriftgestaltung.Glyphs.lastChange
p1
V2016-05-23 11:38:55 +0000
p2
s."
EndChar

StartChar: afii10033
Encoding: 1055 1055 434
GlifName: uni041F_
Width: 575
VWidth: 0
Flags: HW
AnchorPoint: "bottomright" 514 0 basechar 0
LayerCount: 2
Fore
SplineSet
175 720 m 258
 545 720 l 258
 566 720 577 706 574 685 c 258
 471 35 l 258
 468 14 452 0 431 0 c 258
 396 0 l 258
 374 0 363 14 366 35 c 258
 459 622 l 257
 229 622 l 257
 136 35 l 258
 133 14 117 0 96 0 c 258
 61 0 l 258
 39 0 28 14 31 35 c 258
 134 685 l 258
 137 706 153 720 175 720 c 258
EndSplineSet
PickledDataWithLists: "(dp0
Vcom.schriftgestaltung.Glyphs.lastChange
p1
V2016-05-23 13:13:45 +0000
p2
s."
EndChar

StartChar: afii10037
Encoding: 1059 1059 438
GlifName: uni0423
Width: 575
VWidth: 0
Flags: HW
AnchorPoint: "top" 361 720 basechar 0
LayerCount: 2
Fore
SplineSet
524 720 m 258
 560 720 l 258
 583 720 593 703 584 680 c 258
 382 188 l 258
 312 16 229 0 98 0 c 258
 46 0 l 258
 24 0 13 14 16 35 c 258
 21 63 l 258
 24 84 40 98 61 98 c 258
 113 98 l 258
 219 98 239 108 276 190 c 257
 277 190 l 257
 208 190 166 225 160 288 c 258
 124 680 l 258
 122 704 137 720 162 720 c 258
 198 720 l 258
 217 720 229 710 230 691 c 257
 266 305 l 257
 267 290 275 283 292 283 c 258
 315 283 l 257
 482 692 l 258
 490 710 505 720 524 720 c 258
EndSplineSet
PickledDataWithLists: "(dp0
Vcom.schriftgestaltung.Glyphs.lastChange
p1
V2016-05-23 13:14:21 +0000
p2
s."
EndChar

StartChar: afii10038
Encoding: 1060 1060 439
GlifName: uni0424
Width: 575
VWidth: 0
Flags: HW
LayerCount: 2
Fore
SplineSet
552 430 m 256
 552 408 550 385 546 360 c 256
 521 205 440 111 313 91 c 257
 303 25 l 257
 299 3 284 -10 262 -10 c 258
 227 -10 l 258
 206 -10 194 4 198 25 c 258
 208 92 l 257
 108 110 55 181 55 292 c 256
 55 313 57 336 61 360 c 256
 85 511 167 606 293 628 c 257
 304 695 l 258
 307 716 323 730 344 730 c 258
 379 730 l 258
 402 730 412 717 409 695 c 257
 398 629 l 257
 500 612 552 543 552 430 c 256
  PathStart: -2
382 527 m 257
 329 193 l 257
 389 213 426 268 441 360 c 256
 444 379 445 397 445 413 c 256
 445 474 425 511 382 527 c 257
277 527 m 257
 218 507 180 452 166 360 c 256
 163 340 161 322 161 306 c 256
 161 246 182 209 224 193 c 257
 277 527 l 257
  PathStart: -2
EndSplineSet
PickledDataWithLists: "(dp0
Vcom.schriftgestaltung.Glyphs.lastChange
p1
V2016-05-30 10:12:00 +0000
p2
s."
EndChar

StartChar: afii10040
Encoding: 1062 1062 441
GlifName: uni0426
Width: 575
VWidth: 0
Flags: HW
LayerCount: 2
Fore
SplineSet
535 685 m 258
 442 98 l 257
 489 98 l 258
 511 98 522 84 519 63 c 258
 499 -65 l 258
 495 -86 479 -100 458 -100 c 258
 423 -100 l 258
 402 -100 390 -86 394 -65 c 258
 404 0 l 257
 62 0 l 258
 40 0 29 14 32 35 c 258
 135 685 l 258
 139 706 154 720 176 720 c 258
 211 720 l 258
 232 720 244 706 240 685 c 258
 147 98 l 257
 337 98 l 257
 430 685 l 258
 434 706 449 720 471 720 c 258
 506 720 l 258
 527 720 539 706 535 685 c 258
EndSplineSet
PickledDataWithLists: "(dp0
Vcom.schriftgestaltung.Glyphs.lastChange
p1
V2016-05-23 12:25:17 +0000
p2
s."
EndChar

StartChar: afii10041
Encoding: 1063 1063 442
GlifName: uni0427
Width: 575
VWidth: 0
Flags: HW
LayerCount: 2
Fore
SplineSet
501 720 m 258
 536 720 l 258
 559 720 571 705 567 683 c 258
 464 33 l 258
 460 12 445 0 425 0 c 258
 390 0 l 258
 367 0 355 15 359 37 c 258
 392 244 l 257
 351 241 316 240 295 240 c 256
 161 240 100 287 100 394 c 256
 100 412 102 432 105 454 c 258
 142 687 l 258
 146 708 160 720 181 720 c 258
 216 720 l 258
 239 720 251 705 247 683 c 258
 210 450 l 258
 208 436 206 423 206 411 c 256
 206 356 235 336 307 336 c 256
 329 336 366 337 407 339 c 257
 462 687 l 258
 466 708 480 720 501 720 c 258
EndSplineSet
PickledDataWithLists: "(dp0
Vcom.schriftgestaltung.Glyphs.lastChange
p1
V2016-05-30 10:12:16 +0000
p2
s."
EndChar

StartChar: afii10042
Encoding: 1064 1064 443
GlifName: uni0428
Width: 575
VWidth: 0
Flags: HW
LayerCount: 2
Fore
SplineSet
535 720 m 258
 570 720 l 258
 591 720 603 706 599 685 c 258
 496 35 l 258
 493 14 477 0 456 0 c 258
 37 0 l 258
 16 0 4 14 7 35 c 258
 110 685 l 258
 114 706 130 720 151 720 c 258
 186 720 l 258
 207 720 219 706 215 685 c 258
 122 98 l 257
 209 98 l 257
 302 685 l 258
 306 706 322 720 343 720 c 258
 378 720 l 258
 399 720 411 706 407 685 c 258
 314 98 l 257
 401 98 l 257
 494 685 l 258
 498 706 514 720 535 720 c 258
EndSplineSet
PickledDataWithLists: "(dp0
Vcom.schriftgestaltung.Glyphs.lastChange
p1
V2016-05-30 09:51:07 +0000
p2
s."
EndChar

StartChar: afii10043
Encoding: 1065 1065 444
GlifName: uni0429
Width: 575
VWidth: 0
Flags: HW
LayerCount: 2
Fore
SplineSet
599 685 m 258
 506 94 l 257
 516 89 521 78 519 63 c 258
 491 -115 l 258
 487 -136 471 -150 450 -150 c 258
 415 -150 l 258
 394 -150 382 -136 386 -115 c 258
 404 0 l 257
 37 0 l 258
 16 0 4 14 7 35 c 258
 110 685 l 258
 114 706 130 720 151 720 c 258
 186 720 l 258
 207 720 219 706 215 685 c 258
 122 98 l 257
 209 98 l 257
 302 685 l 258
 306 706 322 720 343 720 c 258
 378 720 l 258
 399 720 411 706 407 685 c 258
 314 98 l 257
 401 98 l 257
 494 685 l 258
 498 706 514 720 535 720 c 258
 570 720 l 258
 591 720 603 706 599 685 c 258
EndSplineSet
PickledDataWithLists: "(dp0
Vcom.schriftgestaltung.Glyphs.lastChange
p1
V2016-05-29 16:25:37 +0000
p2
s."
EndChar

StartChar: afii10044
Encoding: 1066 1066 445
GlifName: uni042A_
Width: 575
VWidth: 0
Flags: HW
LayerCount: 2
Fore
SplineSet
194 96 m 257
 239 96 l 258
 348 96 413 140 426 220 c 256
 427 228 428 235 428 242 c 256
 428 309 377 344 278 344 c 258
 233 344 l 257
 194 96 l 257
249 440 m 257
 294 440 l 258
 447 440 534 372 534 259 c 256
 534 246 533 233 531 220 c 256
 509 83 393 0 224 0 c 258
 109 0 l 258
 87 0 76 14 79 35 c 258
 172 623 l 257
 102 623 l 258
 81 623 70 637 73 658 c 258
 77 685 l 258
 81 706 96 720 118 720 c 258
 258 720 l 258
 278 720 291 704 288 684 c 258
 249 440 l 257
EndSplineSet
PickledDataWithLists: "(dp0
Vcom.schriftgestaltung.Glyphs.lastChange
p1
V2016-05-30 10:12:28 +0000
p2
s."
EndChar

StartChar: afii10045
Encoding: 1067 1067 446
GlifName: uni042B_
Width: 575
VWidth: 0
Flags: HW
AnchorPoint: "top" 361 720 basechar 0
LayerCount: 2
Fore
SplineSet
217 685 m 257
 179 440 l 257
 307 436 380 372 380 263 c 256
 380 250 378 235 376 220 c 256
 354 83 250 0 99 0 c 258
 39 0 l 258
 18 0 6 14 9 35 c 258
 112 685 l 258
 116 706 132 720 153 720 c 258
 188 720 l 258
 209 720 221 706 217 685 c 257
597 685 m 258
 494 35 l 258
 491 16 473 0 454 0 c 258
 419 0 l 258
 398 0 386 14 389 35 c 258
 492 685 l 258
 496 706 512 720 533 720 c 258
 568 720 l 258
 589 720 601 706 597 685 c 258
163 344 m 257
 124 96 l 257
 209 99 258 142 271 220 c 256
 273 230 273 240 273 249 c 256
 273 310 235 341 163 344 c 257
EndSplineSet
PickledDataWithLists: "(dp0
Vcom.schriftgestaltung.Glyphs.lastChange
p1
V2016-05-30 10:12:35 +0000
p2
s."
EndChar

StartChar: afii10046
Encoding: 1068 1068 447
GlifName: uni042C_
Width: 575
VWidth: 0
Flags: HW
LayerCount: 2
Fore
SplineSet
209 440 m 257
 274 440 l 258
 430 440 524 370 524 256 c 256
 524 244 523 232 521 220 c 256
 499 86 376 0 204 0 c 258
 69 0 l 258
 47 0 36 14 39 35 c 258
 142 685 l 258
 146 706 161 720 183 720 c 258
 218 720 l 258
 239 720 251 706 247 685 c 258
 209 440 l 257
154 96 m 257
 219 96 l 258
 330 96 403 142 416 220 c 256
 417 227 418 233 418 240 c 256
 418 306 360 344 258 344 c 258
 193 344 l 257
 154 96 l 257
EndSplineSet
PickledDataWithLists: "(dp0
Vcom.schriftgestaltung.Glyphs.lastChange
p1
V2016-05-30 10:12:22 +0000
p2
s."
EndChar

StartChar: afii10047
Encoding: 1069 1069 448
GlifName: uni042D_
Width: 575
VWidth: 0
Flags: HW
AnchorPoint: "top" 361 720 basechar 0
LayerCount: 2
Fore
SplineSet
163 699 m 256
 217 720 265 730 309 730 c 256
 451 730 529 642 529 488 c 256
 529 460 527 431 522 400 c 258
 510 320 l 258
 477 112 359 -10 192 -10 c 256
 148 -10 103 0 55 21 c 256
 37 29 33 46 44 67 c 258
 58 91 l 258
 69 111 87 118 106 110 c 256
 141 96 176 88 210 88 c 256
 311 88 377 165 402 313 c 257
 165 313 l 258
 146 313 132 329 135 348 c 258
 139 373 l 258
 142 392 160 408 179 408 c 258
 417 408 l 257
 421 434 423 457 423 478 c 256
 423 580 380 632 296 632 c 256
 262 632 224 624 185 610 c 256
 164 602 148 609 143 629 c 258
 137 653 l 258
 132 674 142 691 163 699 c 256
  PathStart: -2
EndSplineSet
PickledDataWithLists: "(dp0
Vcom.schriftgestaltung.Glyphs.lastChange
p1
V2016-05-30 10:12:43 +0000
p2
s."
EndChar

StartChar: afii10048
Encoding: 1070 1070 449
GlifName: uni042E_
Width: 575
VWidth: 0
Flags: HW
AnchorPoint: "top" 361 720 basechar 0
LayerCount: 2
Fore
SplineSet
249 507 m 258
 274 663 333 730 447 730 c 256
 539 730 581 687 581 588 c 256
 581 564 579 537 574 507 c 258
 528 213 l 258
 503 57 444 -10 330 -10 c 256
 238 -10 196 33 196 132 c 256
 196 156 198 183 203 213 c 258
 222 333 l 257
 157 333 l 257
 109 35 l 258
 106 13 91 0 69 0 c 258
 34 0 l 258
 12 0 1 14 4 35 c 258
 107 685 l 258
 111 706 126 720 148 720 c 258
 183 720 l 258
 205 720 216 707 212 685 c 258
 172 430 l 257
 237 430 l 257
 249 507 l 258
  PathStart: -2
345 86 m 256
 385 86 408 121 423 213 c 258
 469 507 l 258
 473 532 475 553 475 571 c 256
 475 616 461 634 432 634 c 256
 391 634 369 599 354 507 c 258
 308 213 l 258
 304 188 302 167 302 149 c 256
 302 104 316 86 345 86 c 256
  PathStart: -2
EndSplineSet
PickledDataWithLists: "(dp0
Vcom.schriftgestaltung.Glyphs.lastChange
p1
V2016-05-30 10:12:53 +0000
p2
s."
EndChar

StartChar: afii10049
Encoding: 1071 1071 450
GlifName: uni042F_
Width: 575
VWidth: 0
Flags: HW
AnchorPoint: "top" 361 720 basechar 0
AnchorPoint: "bottom" 296 0 basechar 0
LayerCount: 2
Fore
SplineSet
1 0 m 258
 -26 0 -35 20 -19 44 c 258
 177 341 l 257
 130 370 103 422 103 482 c 256
 103 493 104 504 106 516 c 256
 125 640 233 720 380 720 c 258
 538 720 l 258
 560 720 571 707 567 685 c 258
 464 35 l 258
 461 14 445 0 424 0 c 258
 389 0 l 258
 368 0 356 14 359 35 c 258
 403 312 l 257
 274 312 l 257
 85 24 l 258
 74 8 60 0 43 0 c 258
 1 0 l 258
  PathStart: -2
210 500 m 256
 210 446 256 409 331 409 c 258
 419 409 l 257
 453 624 l 257
 365 624 l 258
 283 624 221 580 211 516 c 256
 210 510 210 505 210 500 c 256
  PathStart: -2
EndSplineSet
PickledDataWithLists: "(dp0
Vcom.schriftgestaltung.Glyphs.lastChange
p1
V2016-05-30 10:12:58 +0000
p2
s."
EndChar

StartChar: afii10066
Encoding: 1073 1073 452
GlifName: uni0431
Width: 575
VWidth: 0
Flags: HW
LayerCount: 2
Fore
SplineSet
180 416 m 257
 236 432 277 439 313 439 c 256
 428 439 503 366 503 259 c 256
 503 246 502 233 500 220 c 256
 477 74 374 -20 239 -20 c 256
 110 -20 44 62 44 216 c 256
 44 249 47 286 53 326 c 256
 92 568 220 710 401 710 c 256
 421 710 446 714 504 726 c 256
 523 730 538 721 543 705 c 258
 549 679 l 258
 554 658 539 637 516 630 c 256
 447 611 421 612 387 612 c 256
 285 612 218 548 180 416 c 257
  PathStart: -2
157 311 m 257
 135 162 171 78 257 78 c 256
 327 78 380 133 394 220 c 256
 395 229 396 237 396 245 c 256
 396 305 359 341 294 341 c 256
 267 341 219 339 157 311 c 257
  PathStart: -2
EndSplineSet
PickledDataWithLists: "(dp0
Vcom.schriftgestaltung.Glyphs.lastChange
p1
V2016-05-30 10:13:07 +0000
p2
s."
EndChar

StartChar: afii10067
Encoding: 1074 1074 453
GlifName: uni0432
Width: 575
VWidth: 0
Flags: HW
LayerCount: 2
Fore
SplineSet
56 35 m 258
 118 424 l 257
 90 424 l 258
 68 424 57 437 61 459 c 258
 65 485 l 258
 68 507 83 520 105 520 c 258
 285 520 l 258
 433 520 504 483 504 405 c 256
 504 397 503 389 502 381 c 256
 494 327 464 301 429 285 c 257
 480 273 509 235 509 181 c 256
 509 173 508 165 507 156 c 256
 490 53 393 0 223 0 c 258
 86 0 l 258
 64 0 53 14 56 35 c 258
223 424 m 257
 207 323 l 257
 254 323 l 258
 354 323 398 322 406 371 c 256
 407 375 407 378 407 381 c 256
 407 415 375 424 270 424 c 258
 223 424 l 257
171 97 m 257
 238 97 l 258
 363 97 404 112 411 161 c 256
 412 165 412 169 412 173 c 256
 412 213 372 226 259 226 c 258
 192 226 l 257
 171 97 l 257
EndSplineSet
PickledDataWithLists: "(dp0
Vcom.schriftgestaltung.Glyphs.lastChange
p1
V2016-05-30 10:13:14 +0000
p2
s."
EndChar

StartChar: afii10068
Encoding: 1075 1075 454
GlifName: uni0433
Width: 575
VWidth: 0
Flags: HW
AnchorPoint: "top" 329 520 basechar 0
AnchorPoint: "bottomright" 514 0 basechar 0
LayerCount: 2
Fore
SplineSet
536 458 m 258
 532 437 517 423 496 423 c 258
 206 423 l 257
 144 35 l 258
 141 13 126 0 104 0 c 258
 69 0 l 258
 47 0 36 14 39 35 c 258
 111 485 l 258
 114 506 130 520 151 520 c 258
 511 520 l 258
 533 520 545 506 541 485 c 258
 536 458 l 258
  PathStart: -2
EndSplineSet
PickledDataWithLists: "(dp0
Vcom.schriftgestaltung.Glyphs.lastChange
p1
V2016-05-29 16:25:09 +0000
p2
s."
EndChar

StartChar: afii10069
Encoding: 1076 1076 455
GlifName: uni0434
Width: 575
VWidth: 0
Flags: HW
LayerCount: 2
Fore
SplineSet
49 -125 m 258
 14 -125 l 258
 -7 -125 -19 -111 -15 -90 c 258
 9 63 l 258
 12 84 28 98 49 98 c 258
 60 98 l 257
 122 216 149 387 165 485 c 256
 168 506 184 520 205 520 c 258
 475 520 l 258
 497 520 508 506 505 485 c 258
 443 98 l 257
 474 98 l 258
 496 98 507 84 504 63 c 258
 480 -90 l 258
 476 -111 460 -125 439 -125 c 258
 404 -125 l 258
 383 -125 371 -111 375 -90 c 258
 389 0 l 257
 104 0 l 257
 90 -90 l 258
 86 -111 70 -125 49 -125 c 258
259 422 m 257
 233 276 203 171 151 98 c 257
 338 98 l 257
 390 422 l 257
 259 422 l 257
  PathStart: -2
EndSplineSet
PickledDataWithLists: "(dp0
Vcom.schriftgestaltung.Glyphs.lastChange
p1
V2016-05-30 08:31:25 +0000
p2
s."
EndChar

StartChar: afii10072
Encoding: 1078 1078 457
GlifName: uni0436
Width: 575
VWidth: 0
Flags: HW
AnchorPoint: "top" 329 520 basechar 0
AnchorPoint: "bottomright" 514 0 basechar 0
LayerCount: 2
Fore
SplineSet
440 296 m 258
 433 285 422 275 410 267 c 257
 420 260 427 250 431 239 c 258
 484 56 l 258
 491 29 469 0 439 0 c 258
 414 0 l 258
 401 0 392 7 388 19 c 258
 332 201 l 273
 332 201 331 203 331 203 c 257
 304 35 l 257
 301 16 283 0 264 0 c 258
 229 0 l 258
 210 0 196 16 199 35 c 258
 226 203 l 257
 226 203 225 201 225 201 c 265
 111 19 l 258
 103 7 92 0 79 0 c 258
 54 0 l 258
 24 0 10 29 27 56 c 258
 138 239 l 258
 144 250 155 260 167 267 c 257
 157 275 150 285 147 296 c 258
 92 463 l 258
 83 490 106 520 137 520 c 258
 161 520 l 258
 172 520 184 513 187 503 c 258
 246 333 l 257
 246 333 246 331 246 331 c 257
 270 484 l 258
 274 504 292 520 311 520 c 258
 346 520 l 258
 365 520 379 504 376 485 c 258
 351 331 l 257
 351 331 353 333 353 333 c 257
 464 503 l 258
 471 513 485 520 496 520 c 258
 520 520 l 258
 551 520 564 490 547 463 c 258
 440 296 l 258
  PathStart: -2
EndSplineSet
PickledDataWithLists: "(dp0
Vcom.schriftgestaltung.Glyphs.lastChange
p1
V2016-05-23 16:22:06 +0000
p2
s."
EndChar

StartChar: afii10073
Encoding: 1079 1079 458
GlifName: uni0437
Width: 575
VWidth: 0
Flags: HW
AnchorPoint: "top" 329 520 basechar 0
AnchorPoint: "bottom" 247 0 basechar 0
LayerCount: 2
Fore
SplineSet
143 444 m 258
 139 472 l 258
 137 494 149 511 170 516 c 256
 209 525 250 530 291 530 c 256
 436 530 513 489 513 411 c 256
 513 405 512 398 511 391 c 256
 502 338 466 299 404 275 c 257
 453 256 484 214 484 164 c 256
 484 157 483 151 482 144 c 256
 467 50 355 -10 200 -10 c 256
 158 -10 116 -5 79 4 c 256
 59 9 53 26 62 48 c 258
 74 76 l 258
 83 96 100 104 121 99 c 256
 150 92 182 88 216 88 c 256
 308 88 371 116 378 159 c 256
 378 161 378 163 378 165 c 256
 378 202 330 224 244 224 c 258
 193 224 l 258
 172 224 160 238 164 259 c 258
 168 286 l 258
 172 307 187 321 209 321 c 258
 260 321 l 258
 348 321 397 341 403 378 c 256
 403 380 403 382 403 384 c 256
 403 416 364 432 275 432 c 256
 244 432 213 428 182 421 c 256
 159 416 145 424 143 444 c 258
EndSplineSet
PickledDataWithLists: "(dp0
Vcom.schriftgestaltung.Glyphs.lastChange
p1
V2016-05-30 10:13:27 +0000
p2
s."
EndChar

StartChar: afii10074
Encoding: 1080 1080 459
GlifName: uni0438
Width: 575
VWidth: 0
Flags: HW
AnchorPoint: "top" 329 520 basechar 0
AnchorPoint: "bottomright" 514 0 basechar 0
LayerCount: 2
Fore
SplineSet
94 484 m 258
 98 504 116 520 136 520 c 258
 170 520 l 258
 190 520 203 505 199 484 c 258
 151 179 l 257
 432 485 l 258
 456 511 474 520 504 520 c 258
 520 520 l 258
 543 520 555 507 552 485 c 258
 481 36 l 258
 477 16 459 0 439 0 c 258
 405 0 l 258
 385 0 372 15 376 36 c 258
 423 338 l 257
 144 40 l 258
 116 10 98 0 71 0 c 258
 55 0 l 258
 32 0 20 13 23 35 c 258
 94 484 l 258
  PathStart: -2
EndSplineSet
PickledDataWithLists: "(dp0
Vcom.schriftgestaltung.Glyphs.lastChange
p1
V2016-05-30 07:47:32 +0000
p2
s."
EndChar

StartChar: afii10075
Encoding: 1081 1081 460
GlifName: uni0439
Width: 575
VWidth: 0
Flags: HW
LayerCount: 2
Fore
SplineSet
94 484 m 258
 98 504 116 520 136 520 c 258
 170 520 l 258
 190 520 203 505 199 484 c 258
 151 179 l 257
 432 485 l 258
 456 511 474 520 504 520 c 258
 520 520 l 258
 543 520 555 507 552 485 c 258
 481 36 l 258
 477 16 459 0 439 0 c 258
 405 0 l 258
 385 0 372 15 376 36 c 258
 423 338 l 257
 144 40 l 258
 116 10 98 0 71 0 c 258
 55 0 l 258
 32 0 20 13 23 35 c 258
 94 484 l 258
  PathStart: -2
EndSplineSet
Refer: 165 728 N 1 0 0 1 0 50 2
PickledDataWithLists: "(dp0
Vcom.schriftgestaltung.Glyphs.lastChange
p1
V2016-05-30 07:48:42 +0000
p2
s."
EndChar

StartChar: afii10076
Encoding: 1082 1082 461
GlifName: uni043A_
Width: 575
VWidth: 0
Flags: HW
AnchorPoint: "top" 329 520 basechar 0
AnchorPoint: "bottomright" 514 0 basechar 0
LayerCount: 2
Fore
SplineSet
305 250 m 258
 476 48 l 258
 494 26 480 0 448 0 c 258
 390 0 l 258
 374 0 364 5 354 16 c 258
 186 217 l 258
 182 221 178 225 175 229 c 257
 144 35 l 257
 141 14 125 0 104 0 c 258
 69 0 l 258
 47 0 36 14 39 35 c 258
 111 485 l 258
 114 506 130 520 151 520 c 258
 186 520 l 258
 208 520 219 506 216 485 c 258
 188 312 l 257
 193 316 198 320 203 324 c 258
 412 504 l 258
 424 515 437 520 452 520 c 258
 510 520 l 258
 542 520 549 494 523 472 c 258
 312 290 l 258
 305 284 297 277 282 270 c 257
 295 263 300 256 305 250 c 258
EndSplineSet
PickledDataWithLists: "(dp0
Vcom.schriftgestaltung.Glyphs.lastChange
p1
V2016-05-30 07:49:26 +0000
p2
s."
EndChar

StartChar: afii10077
Encoding: 1083 1083 462
GlifName: uni043B_
Width: 575
VWidth: 0
Flags: HW
LayerCount: 2
Fore
SplineSet
536 485 m 258
 464 35 l 258
 461 14 445 0 424 0 c 258
 389 0 l 258
 367 0 356 14 359 35 c 258
 421 422 l 257
 262 422 l 257
 263 430 l 257
 219 155 145 13 26 -16 c 256
 3 -21 -11 -7 -7 17 c 258
 -1 56 l 258
 1 72 10 82 31 92 c 256
 80 116 131 257 158 430 c 258
 167 485 l 258
 170 506 186 520 207 520 c 258
 506 520 l 258
 528 520 539 506 536 485 c 258
EndSplineSet
PickledDataWithLists: "(dp0
Vcom.schriftgestaltung.Glyphs.lastChange
p1
V2016-05-30 07:50:00 +0000
p2
s."
EndChar

StartChar: afii10078
Encoding: 1084 1084 463
GlifName: uni043C_
Width: 575
VWidth: 0
Flags: HW
LayerCount: 2
Fore
SplineSet
540 525 m 258
 563 525 575 512 571 490 c 257
 520 36 l 257
 516 16 498 0 478 0 c 258
 444 0 l 258
 424 0 412 14 414 35 c 258
 442 312 l 257
 318 124 l 258
 308 108 295 100 277 100 c 258
 249 100 l 258
 231 100 220 108 214 124 c 258
 150 312 l 257
 90 35 l 258
 86 14 70 0 50 0 c 258
 16 0 l 258
 -5 0 -19 16 -14 36 c 258
 78 491 l 258
 82 513 98 525 120 525 c 258
 136 525 l 258
 168 525 188 511 197 483 c 258
 283 231 l 257
 449 483 l 258
 468 511 492 525 524 525 c 258
 540 525 l 258
  PathStart: -2
EndSplineSet
PickledDataWithLists: "(dp0
Vcom.schriftgestaltung.Glyphs.lastChange
p1
V2016-05-30 07:50:28 +0000
p2
s."
EndChar

StartChar: afii10079
Encoding: 1085 1085 464
GlifName: uni043D_
Width: 575
VWidth: 0
Flags: HW
AnchorPoint: "bottomright" 514 0 basechar 0
LayerCount: 2
Fore
SplineSet
488 520 m 258
 523 520 l 258
 545 520 556 507 553 485 c 258
 481 35 l 258
 478 13 463 0 441 0 c 258
 406 0 l 258
 384 0 373 14 376 35 c 258
 408 233 l 257
 159 233 l 257
 127 35 l 258
 124 13 109 0 87 0 c 258
 52 0 l 258
 30 0 19 14 22 35 c 258
 94 485 l 258
 97 506 113 520 134 520 c 258
 169 520 l 258
 192 520 202 507 199 485 c 258
 174 330 l 257
 423 330 l 257
 448 485 l 258
 451 507 466 520 488 520 c 258
EndSplineSet
PickledDataWithLists: "(dp0
Vcom.schriftgestaltung.Glyphs.lastChange
p1
V2016-05-30 07:51:04 +0000
p2
s."
EndChar

StartChar: afii10081
Encoding: 1087 1087 466
GlifName: uni043F_
Width: 575
VWidth: 0
Flags: HW
AnchorPoint: "bottomright" 514 0 basechar 0
LayerCount: 2
Fore
SplineSet
144 520 m 258
 514 520 l 258
 536 520 547 506 544 485 c 258
 472 35 l 258
 469 14 453 0 432 0 c 258
 397 0 l 258
 375 0 364 14 367 35 c 258
 429 422 l 257
 199 422 l 257
 137 35 l 258
 134 14 118 0 97 0 c 258
 62 0 l 258
 40 0 29 14 32 35 c 258
 104 485 l 258
 107 506 123 520 144 520 c 258
EndSplineSet
PickledDataWithLists: "(dp0
Vcom.schriftgestaltung.Glyphs.lastChange
p1
V2016-05-30 07:52:44 +0000
p2
s."
EndChar

StartChar: afii10084
Encoding: 1090 1090 469
GlifName: uni0442
Width: 575
VWidth: 0
Flags: HW
LayerCount: 2
Fore
SplineSet
600 485 m 258
 596 459 l 258
 592 438 576 424 555 424 c 258
 366 424 l 257
 304 35 l 258
 301 13 286 0 264 0 c 258
 229 0 l 258
 207 0 196 14 199 35 c 258
 261 424 l 257
 72 424 l 258
 51 424 40 437 44 459 c 258
 48 485 l 258
 51 507 66 520 88 520 c 258
 570 520 l 258
 592 520 603 507 600 485 c 258
EndSplineSet
PickledDataWithLists: "(dp0
Vcom.schriftgestaltung.Glyphs.lastChange
p1
V2016-05-30 07:54:07 +0000
p2
s."
EndChar

StartChar: afii10086
Encoding: 1092 1092 471
GlifName: uni0444
Width: 575
VWidth: 0
Flags: HW
LayerCount: 2
Fore
SplineSet
536 331 m 256
 536 309 534 285 530 260 c 256
 505 105 425 11 297 -9 c 257
 279 -125 l 257
 276 -147 260 -160 238 -160 c 258
 203 -160 l 258
 182 -160 171 -146 174 -125 c 258
 193 -8 l 257
 92 10 39 81 39 192 c 256
 39 213 41 236 45 260 c 256
 69 411 151 506 277 528 c 257
 296 645 l 258
 299 666 316 680 337 680 c 258
 372 680 l 258
 394 680 404 667 401 645 c 257
 383 529 l 257
 483 512 536 444 536 331 c 256
  PathStart: -2
366 427 m 257
 314 93 l 257
 373 113 410 168 425 260 c 256
 428 279 430 297 430 313 c 256
 430 374 408 411 366 427 c 257
261 427 m 257
 202 407 165 352 150 260 c 256
 147 241 145 223 145 207 c 256
 145 146 167 109 209 93 c 257
 261 427 l 257
  PathStart: -2
EndSplineSet
PickledDataWithLists: "(dp0
Vcom.schriftgestaltung.Glyphs.lastChange
p1
V2016-05-30 10:13:41 +0000
p2
s."
EndChar

StartChar: afii10088
Encoding: 1094 1094 473
GlifName: uni0446
Width: 575
VWidth: 0
Flags: HW
LayerCount: 2
Fore
SplineSet
504 485 m 258
 442 98 l 257
 489 98 l 258
 511 98 522 84 519 63 c 258
 499 -65 l 258
 495 -86 479 -100 458 -100 c 258
 423 -100 l 258
 402 -100 390 -86 394 -65 c 258
 404 0 l 257
 62 0 l 258
 40 0 29 14 32 35 c 258
 104 485 l 258
 107 506 123 520 144 520 c 258
 179 520 l 258
 201 520 212 506 209 485 c 258
 147 98 l 257
 337 98 l 257
 399 485 l 258
 402 506 418 520 439 520 c 258
 474 520 l 258
 496 520 507 506 504 485 c 258
EndSplineSet
PickledDataWithLists: "(dp0
Vcom.schriftgestaltung.Glyphs.lastChange
p1
V2016-05-30 07:56:43 +0000
p2
s."
EndChar

StartChar: afii10089
Encoding: 1095 1095 474
GlifName: uni0447
Width: 575
VWidth: 0
Flags: HW
AnchorPoint: "top" 329 520 basechar 0
AnchorPoint: "bottomright" 514 0 basechar 0
LayerCount: 2
Fore
SplineSet
471 520 m 258
 506 520 l 258
 528 520 539 506 536 485 c 258
 464 35 l 258
 461 14 445 0 424 0 c 258
 389 0 l 258
 367 0 356 14 359 35 c 258
 377 144 l 257
 335 141 299 140 278 140 c 256
 145 140 85 186 85 292 c 256
 85 310 86 330 90 352 c 258
 111 485 l 258
 114 507 129 520 151 520 c 258
 186 520 l 258
 208 520 219 506 216 485 c 258
 195 352 l 258
 193 337 191 324 191 312 c 256
 191 256 221 236 293 236 c 256
 315 236 351 237 392 239 c 257
 431 485 l 258
 434 507 449 520 471 520 c 258
EndSplineSet
PickledDataWithLists: "(dp0
Vcom.schriftgestaltung.Glyphs.lastChange
p1
V2016-05-30 10:13:48 +0000
p2
s."
EndChar

StartChar: afii10090
Encoding: 1096 1096 475
GlifName: uni0448
Width: 575
VWidth: 0
Flags: HW
LayerCount: 2
Fore
SplineSet
503 520 m 258
 538 520 l 258
 560 520 571 506 568 485 c 258
 496 35 l 258
 493 14 477 0 456 0 c 258
 37 0 l 258
 15 0 4 14 7 35 c 258
 79 485 l 258
 82 506 98 520 119 520 c 258
 154 520 l 258
 176 520 187 506 184 485 c 258
 122 98 l 257
 209 98 l 257
 271 485 l 258
 274 506 290 520 311 520 c 258
 346 520 l 258
 368 520 379 506 376 485 c 258
 314 98 l 257
 401 98 l 257
 463 485 l 258
 466 506 482 520 503 520 c 258
EndSplineSet
PickledDataWithLists: "(dp0
Vcom.schriftgestaltung.Glyphs.lastChange
p1
V2016-05-30 07:57:20 +0000
p2
s."
EndChar

StartChar: afii10091
Encoding: 1097 1097 476
GlifName: uni0449
Width: 575
VWidth: 0
Flags: HW
LayerCount: 2
Fore
SplineSet
568 485 m 258
 506 94 l 257
 516 89 521 78 519 63 c 258
 491 -115 l 258
 487 -136 471 -150 450 -150 c 258
 415 -150 l 258
 394 -150 382 -136 386 -115 c 258
 404 0 l 257
 37 0 l 258
 16 0 4 14 7 35 c 258
 79 485 l 258
 82 506 98 520 119 520 c 258
 154 520 l 258
 175 520 187 506 184 485 c 258
 122 98 l 257
 209 98 l 257
 271 485 l 258
 274 506 290 520 311 520 c 258
 346 520 l 258
 367 520 379 506 376 485 c 258
 314 98 l 257
 401 98 l 257
 463 485 l 258
 466 506 482 520 503 520 c 258
 538 520 l 258
 559 520 571 506 568 485 c 258
EndSplineSet
PickledDataWithLists: "(dp0
Vcom.schriftgestaltung.Glyphs.lastChange
p1
V2016-05-30 07:57:56 +0000
p2
s."
EndChar

StartChar: afii10092
Encoding: 1098 1098 477
GlifName: uni044A_
Width: 575
VWidth: 0
Flags: HW
LayerCount: 2
Fore
SplineSet
263 340 m 257
 318 340 l 258
 448 340 516 292 516 202 c 256
 516 192 515 181 513 170 c 256
 495 60 408 0 264 0 c 258
 139 0 l 258
 118 0 106 14 109 35 c 258
 171 423 l 257
 101 423 l 258
 80 423 68 437 71 458 c 258
 76 485 l 258
 79 506 95 520 116 520 c 258
 256 520 l 258
 276 520 290 504 286 484 c 258
 263 340 l 257
224 96 m 257
 279 96 l 258
 345 96 397 103 408 170 c 256
 409 176 409 181 409 186 c 256
 409 238 363 244 302 244 c 258
 247 244 l 257
 224 96 l 257
EndSplineSet
PickledDataWithLists: "(dp0
Vcom.schriftgestaltung.Glyphs.lastChange
p1
V2016-05-30 10:13:59 +0000
p2
s."
EndChar

StartChar: afii10093
Encoding: 1099 1099 478
GlifName: uni044B_
Width: 575
VWidth: 0
Flags: HW
AnchorPoint: "top" 341 520 basechar 0
LayerCount: 2
Fore
SplineSet
206 485 m 257
 183 340 l 257
 296 337 351 296 351 210 c 256
 351 197 350 184 348 170 c 256
 330 55 255 0 119 0 c 258
 59 0 l 258
 38 0 26 14 29 35 c 258
 101 485 l 258
 104 506 120 520 141 520 c 258
 176 520 l 258
 197 520 209 506 206 485 c 257
481 520 m 258
 516 520 l 258
 537 520 549 506 546 485 c 258
 474 35 l 258
 471 14 455 0 434 0 c 258
 399 0 l 258
 378 0 366 14 369 35 c 258
 441 485 l 258
 444 506 460 520 481 520 c 258
167 244 m 257
 144 96 l 257
 203 97 233 106 243 170 c 256
 244 179 245 187 245 194 c 256
 245 236 219 243 167 244 c 257
EndSplineSet
PickledDataWithLists: "(dp0
Vcom.schriftgestaltung.Glyphs.lastChange
p1
V2016-05-30 10:14:04 +0000
p2
s."
EndChar

StartChar: afii10094
Encoding: 1100 1100 479
GlifName: uni044C_
Width: 575
VWidth: 0
Flags: HW
LayerCount: 2
Fore
SplineSet
193 340 m 257
 318 340 l 258
 448 340 516 292 516 202 c 256
 516 192 515 181 513 170 c 256
 495 60 408 0 264 0 c 258
 69 0 l 258
 48 0 36 14 39 35 c 258
 111 485 l 258
 114 506 130 520 151 520 c 258
 186 520 l 258
 207 520 219 506 216 485 c 258
 193 340 l 257
154 96 m 257
 279 96 l 258
 345 96 397 103 408 170 c 256
 409 176 409 181 409 186 c 256
 409 238 363 244 302 244 c 258
 177 244 l 257
 154 96 l 257
EndSplineSet
PickledDataWithLists: "(dp0
Vcom.schriftgestaltung.Glyphs.lastChange
p1
V2016-05-30 10:13:54 +0000
p2
s."
EndChar

StartChar: afii10095
Encoding: 1101 1101 480
GlifName: uni044D_
Width: 575
VWidth: 0
Flags: HW
AnchorPoint: "top" 329 520 basechar 0
LayerCount: 2
Fore
SplineSet
131 499 m 256
 182 519 237 530 290 530 c 256
 428 530 505 453 505 322 c 256
 505 303 503 282 500 260 c 256
 473 91 362 -10 204 -10 c 256
 151 -10 100 1 55 21 c 256
 37 29 32 46 44 67 c 258
 58 91 l 258
 69 111 88 118 105 110 c 257
 148 95 181 88 220 88 c 256
 303 88 358 130 384 213 c 257
 149 213 l 258
 130 213 116 229 119 248 c 258
 123 273 l 258
 126 292 145 308 164 308 c 258
 399 308 l 257
 399 391 357 432 274 432 c 256
 234 432 197 427 154 410 c 256
 132 402 117 409 112 429 c 258
 106 453 l 258
 100 474 111 491 131 499 c 256
  PathStart: -2
EndSplineSet
PickledDataWithLists: "(dp0
Vcom.schriftgestaltung.Glyphs.lastChange
p1
V2016-05-30 10:14:08 +0000
p2
s."
EndChar

StartChar: afii10096
Encoding: 1102 1102 481
GlifName: uni044E_
Width: 575
VWidth: 0
Flags: HW
AnchorPoint: "top" 329 520 basechar 0
LayerCount: 2
Fore
SplineSet
345 86 m 256
 385 86 408 121 423 213 c 258
 437 307 l 258
 441 333 443 355 443 372 c 256
 443 416 430 434 401 434 c 256
 360 434 337 399 322 307 c 258
 308 213 l 258
 304 188 302 167 302 149 c 256
 302 104 316 86 345 86 c 256
  PathStart: -2
220 320 m 257
 245 466 305 530 416 530 c 256
 508 530 549 487 549 389 c 256
 549 365 547 338 542 307 c 258
 528 213 l 258
 503 57 444 -10 330 -10 c 256
 238 -10 196 33 196 132 c 256
 196 156 198 183 203 213 c 258
 204 223 l 257
 139 223 l 257
 109 35 l 258
 106 13 91 0 69 0 c 258
 34 0 l 258
 12 0 1 14 4 35 c 258
 76 485 l 258
 79 506 95 520 116 520 c 258
 151 520 l 258
 174 520 184 507 181 485 c 258
 155 320 l 257
 220 320 l 257
  PathStart: -2
EndSplineSet
PickledDataWithLists: "(dp0
Vcom.schriftgestaltung.Glyphs.lastChange
p1
V2016-05-30 10:14:16 +0000
p2
s."
EndChar

